<?xml version="1.0" encoding="UTF-8" standalone="no"?>
<!-- Created with Inkscape (http://www.inkscape.org/) -->

<svg
   xmlns:dc="http://purl.org/dc/elements/1.1/"
   xmlns:cc="http://creativecommons.org/ns#"
   xmlns:rdf="http://www.w3.org/1999/02/22-rdf-syntax-ns#"
   xmlns:svg="http://www.w3.org/2000/svg"
   xmlns="http://www.w3.org/2000/svg"
   xmlns:inkscape="http://www.inkscape.org/namespaces/inkscape"
   version="1.1"
   width="260px"
   height="200px"
   viewbox="0 0 260 200"
   id="svg2"
   xml:space="preserve"><g
     transform="matrix(1.25,0,0,-1.25,0,200.3875)"
     id="g10"><g
       transform="scale(0.1,0.1)"
       id="g12"><g
         id="g14"><g
           clip-path="url(#clipPath18)"
           id="g16"><path
             d="M 1247.1,497.781 1580.77,0 2086.81,0 1494.58,875.016 1247.1,497.781"
             inkscape:connector-curvature="0"
             id="path30"
             style="fill:#429f87;fill-opacity:1;fill-rule:nonzero;stroke:none" /><path
             d="M 240.547,221.488 474.922,442.281 849.641,0 609.094,887.191 387.129,556.289 240.547,221.488"
             inkscape:connector-curvature="0"
             id="path32"
             style="fill:#429f87;fill-opacity:1;fill-rule:nonzero;stroke:none" /><path
             d="M 240.547,221.488 609.094,887.191 374.773,666.297 0,1108.59 240.547,221.488"
             inkscape:connector-curvature="0"
             id="path34"
             style="fill:#56c5a8;fill-opacity:1;fill-rule:nonzero;stroke:none" /><path
             d="m 2038.56,1603.08 -506.04,0 -309.93,-457.92 0,457.92 -464.184,0 0,-474.93 L 1005.9,216.012 1063.58,0 l 159.01,0 0,400.781 815.97,1202.299"
             inkscape:connector-curvature="0"
             id="path36"
             style="fill:#56c5a8;fill-opacity:1;fill-rule:nonzero;stroke:none" /></g></g></g></g></svg>
