<?xml version="1.0" encoding="iso-8859-1"?>
<!-- Generator: Adobe Illustrator 19.0.0, SVG Export Plug-In . SVG Version: 6.00 Build 0)  -->
<svg version="1.1" id="Layer_1" xmlns="http://www.w3.org/2000/svg" xmlns:xlink="http://www.w3.org/1999/xlink" x="0px" y="0px"
	 viewBox="0 0 512 512" style="enable-background:new 0 0 512 512;" xml:space="preserve">
    <path d="M256,0C114.848,0,0,114.848,0,256c0,137.424,108.928,249.584,244.944,255.44c0.048,0.048,0.24,0.224,0.288,0.256
        l0.224-0.24C248.96,511.616,252.432,512,256,512s7.04-0.384,10.56-0.528l0.224,0.24c0.048-0.032,0.224-0.208,0.288-0.256
        C403.072,505.584,512,393.424,512,256C512,114.848,397.152,0,256,0z M234.432,17.088C213.904,37.76,174.944,82.384,149.696,142.8
        C117.824,120.464,99.76,92.88,92.8,80.528C130.72,45.232,179.904,21.968,234.432,17.088z M81.184,92.08
        c9.376,15.232,29.584,43.12,62.592,65.536C133.84,185.04,127.264,215.44,126.288,248H16.4C18.4,187.776,42.592,133.2,81.184,92.08
        z M16.384,264h109.888c0.96,32.496,7.36,63.008,17.024,90.688c-32.736,22.352-52.8,50.08-62.128,65.232
        C42.592,378.8,18.384,324.224,16.384,264z M92.784,431.44c6.928-12.24,24.816-39.52,56.288-61.792
        c23.248,57.792,58.304,101.776,79.12,124.592C176.144,488.192,129.248,465.392,92.784,431.44z M248,491.856
        c-17.36-18.032-59.264-66.032-84.976-131.136C185.44,347.76,213.6,338.224,248,336.928V491.856z M248,320.928
        c-36.224,1.296-66.304,11.2-90.464,24.864c-8.592-25.264-14.32-52.736-15.248-81.792H248V320.928z M248,248H142.304
        c0.96-29.12,6.848-56.496,15.712-81.552c24.08,13.536,54,23.328,89.984,24.624V248z M248,175.088
        c-34.064-1.28-62.016-10.624-84.32-23.392C188.88,90.448,229.168,45.2,248,26.304V175.088z M495.584,248H385.712
        c-0.976-32.672-7.584-63.152-17.568-90.624c33.568-23.008,53.36-51.584,61.968-66.064
        C469.104,132.512,493.584,187.408,495.584,248z M418.4,79.792c-5.904,10.976-23.52,39.52-56.208,62.704
        c-25.264-60.272-64.128-104.768-84.608-125.408C331.728,21.936,380.592,44.912,418.4,79.792z M264,26.288
        c18.816,18.848,59.056,63.968,84.256,125.152c-22.16,12.8-50.048,22.256-84.256,23.632V26.288z M264,248v-56.944
        c36.112-1.376,66.016-11.216,89.952-24.784c8.88,25.088,14.784,52.528,15.744,81.744H264V248z M264,264h105.712
        c-0.928,29.12-6.688,56.672-15.344,82c-24-13.68-54.032-23.648-90.368-25.04V264z M264,491.84V336.944
        c34.528,1.392,62.592,11.024,84.848,24C323.136,425.872,281.328,473.808,264,491.84z M283.808,494.256
        c20.784-22.784,55.744-66.656,79.008-124.288c32.288,23.088,49.728,51.344,55.584,62.24
        C382.048,465.744,335.472,488.256,283.808,494.256z M430.112,420.688c-8.56-14.416-28.208-42.8-61.504-65.76
        c9.712-27.744,16.144-58.352,17.104-90.928h109.872C493.584,324.592,469.104,379.488,430.112,420.688z"/>
</svg>
