<?xml version="1.0" standalone="no"?><!-- Generator: Gravit.io --><svg xmlns="http://www.w3.org/2000/svg" xmlns:xlink="http://www.w3.org/1999/xlink" style="isolation:isolate" viewBox="0 0 1024 512" width="1024" height="512"><rect x="0" y="0" width="1024" height="512" transform="matrix(1,0,0,1,0,0)" fill="rgb(51,153,51)"/><g id="null"><path d=" M 367.463 211.301 L 226.107 352.657 Q 195.164 383.6 165.978 381.843 Q 136.793 380.084 111.475 354.767 Q 86.158 329.449 84.399 300.264 Q 82.641 271.078 113.585 240.134 L 254.941 98.779 L 227.162 71 L 85.806 212.356 Q 44.313 253.848 46.072 297.803 Q 47.829 341.757 86.333 380.26 Q 124.837 418.764 168.615 420.346 Q 212.394 421.929 253.886 380.436 L 395.242 239.08 L 367.463 211.301 Z " fill="rgb(255,255,255)"/><path d=" M 303.731 417.222 L 445.087 275.866 Q 476.03 244.922 474.273 215.736 Q 472.514 186.551 447.197 161.234 Q 421.879 135.916 392.694 134.158 Q 363.508 132.4 332.565 163.343 L 191.209 304.7 L 163.43 276.92 L 304.786 135.564 Q 346.278 94.072 390.232 95.83 Q 434.187 97.588 472.69 136.092 Q 511.194 174.595 512.776 218.374 Q 514.358 262.152 472.865 303.645 L 331.51 445 L 303.731 417.222 Z " fill="rgb(255,255,255)"/><rect x="316.999" y="185.749" width="35.187" height="35.187" transform="matrix(0.707,0.707,-0.707,0.707,241.785,-177.035)" fill="rgb(255,255,255)"/><rect x="245.317" y="115.258" width="35.187" height="35.187" transform="matrix(0.707,0.707,-0.707,0.707,170.945,-146.994)" fill="rgb(255,255,255)"/><rect x="206.562" y="296.209" width="35.187" height="35.187" transform="matrix(0.707,0.707,-0.707,0.707,287.546,-66.591)" fill="rgb(255,255,255)"/><rect x="277.068" y="365.527" width="35.187" height="35.187" transform="matrix(0.707,0.707,-0.707,0.707,357.211,-96.144)" fill="rgb(255,255,255)"/></g><path d=" M 610.602 88.039 L 614.586 88.039 L 614.586 110.211 L 614.586 110.211 Q 614.586 116.07 611.047 119.422 L 611.047 119.422 L 611.047 119.422 Q 607.508 122.773 601.32 122.773 L 601.32 122.773 L 601.32 122.773 Q 595.133 122.773 591.746 119.398 L 591.746 119.398 L 591.746 119.398 Q 588.359 116.023 588.359 110.117 L 588.359 110.117 L 588.359 88.039 L 592.344 88.039 L 592.344 110.398 L 592.344 110.398 Q 592.344 114.688 594.688 116.984 L 594.688 116.984 L 594.688 116.984 Q 597.031 119.281 601.578 119.281 L 601.578 119.281 L 601.578 119.281 Q 605.914 119.281 608.258 116.973 L 608.258 116.973 L 608.258 116.973 Q 610.602 114.664 610.602 110.352 L 610.602 110.352 L 610.602 88.039 Z  M 644.539 122.305 L 640.648 122.305 L 640.648 105.688 L 640.648 105.688 Q 640.648 102.547 639.219 101 L 639.219 101 L 639.219 101 Q 637.789 99.453 634.742 99.453 L 634.742 99.453 L 634.742 99.453 Q 630.711 99.453 628.836 101.633 L 628.836 101.633 L 628.836 101.633 Q 626.961 103.813 626.961 108.828 L 626.961 108.828 L 626.961 122.305 L 623.07 122.305 L 623.07 96.617 L 626.234 96.617 L 626.867 100.133 L 627.055 100.133 L 627.055 100.133 Q 628.25 98.234 630.406 97.191 L 630.406 97.191 L 630.406 97.191 Q 632.563 96.148 635.211 96.148 L 635.211 96.148 L 635.211 96.148 Q 639.852 96.148 642.195 98.387 L 642.195 98.387 L 642.195 98.387 Q 644.539 100.625 644.539 105.547 L 644.539 105.547 L 644.539 122.305 Z  M 656.422 96.617 L 656.422 122.305 L 652.531 122.305 L 652.531 96.617 L 656.422 96.617 Z  M 652.203 89.656 L 652.203 89.656 L 652.203 89.656 Q 652.203 88.32 652.859 87.699 L 652.859 87.699 L 652.859 87.699 Q 653.516 87.078 654.5 87.078 L 654.5 87.078 L 654.5 87.078 Q 655.438 87.078 656.117 87.711 L 656.117 87.711 L 656.117 87.711 Q 656.797 88.344 656.797 89.656 L 656.797 89.656 L 656.797 89.656 Q 656.797 90.969 656.117 91.613 L 656.117 91.613 L 656.117 91.613 Q 655.438 92.258 654.5 92.258 L 654.5 92.258 L 654.5 92.258 Q 653.516 92.258 652.859 91.613 L 652.859 91.613 L 652.859 91.613 Q 652.203 90.969 652.203 89.656 Z  M 672.969 119.563 L 672.969 119.563 L 672.969 119.563 Q 674 119.563 674.961 119.41 L 674.961 119.41 L 674.961 119.41 Q 675.922 119.258 676.484 119.094 L 676.484 119.094 L 676.484 122.07 L 676.484 122.07 Q 675.852 122.375 674.621 122.574 L 674.621 122.574 L 674.621 122.574 Q 673.391 122.773 672.406 122.773 L 672.406 122.773 L 672.406 122.773 Q 664.953 122.773 664.953 114.922 L 664.953 114.922 L 664.953 99.641 L 661.273 99.641 L 661.273 97.766 L 664.953 96.148 L 666.594 90.664 L 668.844 90.664 L 668.844 96.617 L 676.297 96.617 L 676.297 99.641 L 668.844 99.641 L 668.844 114.758 L 668.844 114.758 Q 668.844 117.078 669.945 118.32 L 669.945 118.32 L 669.945 118.32 Q 671.047 119.563 672.969 119.563 Z  M 692.469 122.773 L 692.469 122.773 L 692.469 122.773 Q 686.773 122.773 683.48 119.305 L 683.48 119.305 L 683.48 119.305 Q 680.188 115.836 680.188 109.672 L 680.188 109.672 L 680.188 109.672 Q 680.188 103.461 683.246 99.805 L 683.246 99.805 L 683.246 99.805 Q 686.305 96.148 691.461 96.148 L 691.461 96.148 L 691.461 96.148 Q 696.289 96.148 699.102 99.324 L 699.102 99.324 L 699.102 99.324 Q 701.914 102.5 701.914 107.703 L 701.914 107.703 L 701.914 110.164 L 684.219 110.164 L 684.219 110.164 Q 684.336 114.688 686.504 117.031 L 686.504 117.031 L 686.504 117.031 Q 688.672 119.375 692.609 119.375 L 692.609 119.375 L 692.609 119.375 Q 696.758 119.375 700.813 117.641 L 700.813 117.641 L 700.813 121.109 L 700.813 121.109 Q 698.75 122 696.91 122.387 L 696.91 122.387 L 696.91 122.387 Q 695.07 122.773 692.469 122.773 Z  M 691.414 99.406 L 691.414 99.406 L 691.414 99.406 Q 688.32 99.406 686.48 101.422 L 686.48 101.422 L 686.48 101.422 Q 684.641 103.438 684.313 107 L 684.313 107 L 697.742 107 L 697.742 107 Q 697.742 103.32 696.102 101.363 L 696.102 101.363 L 696.102 101.363 Q 694.461 99.406 691.414 99.406 Z  M 704.141 131.328 L 704.141 131.328 L 704.141 131.328 Q 701.938 131.328 700.672 130.695 L 700.672 130.695 L 700.672 127.297 L 700.672 127.297 Q 702.336 127.766 704.141 127.766 L 704.141 127.766 L 704.141 127.766 Q 706.461 127.766 707.668 126.359 L 707.668 126.359 L 707.668 126.359 Q 708.875 124.953 708.875 122.305 L 708.875 122.305 L 708.875 88.039 L 712.859 88.039 L 712.859 121.977 L 712.859 121.977 Q 712.859 126.43 710.609 128.879 L 710.609 128.879 L 710.609 128.879 Q 708.359 131.328 704.141 131.328 Z  M 741.289 113.188 L 741.289 113.188 L 741.289 113.188 Q 741.289 117.711 738.008 120.242 L 738.008 120.242 L 738.008 120.242 Q 734.727 122.773 729.102 122.773 L 729.102 122.773 L 729.102 122.773 Q 723.008 122.773 719.727 121.203 L 719.727 121.203 L 719.727 117.359 L 719.727 117.359 Q 721.836 118.25 724.32 118.766 L 724.32 118.766 L 724.32 118.766 Q 726.805 119.281 729.242 119.281 L 729.242 119.281 L 729.242 119.281 Q 733.227 119.281 735.242 117.77 L 735.242 117.77 L 735.242 117.77 Q 737.258 116.258 737.258 113.563 L 737.258 113.563 L 737.258 113.563 Q 737.258 111.781 736.543 110.645 L 736.543 110.645 L 736.543 110.645 Q 735.828 109.508 734.152 108.547 L 734.152 108.547 L 734.152 108.547 Q 732.477 107.586 729.055 106.367 L 729.055 106.367 L 729.055 106.367 Q 724.273 104.656 722.223 102.313 L 722.223 102.313 L 722.223 102.313 Q 720.172 99.969 720.172 96.195 L 720.172 96.195 L 720.172 96.195 Q 720.172 92.234 723.148 89.891 L 723.148 89.891 L 723.148 89.891 Q 726.125 87.547 731.023 87.547 L 731.023 87.547 L 731.023 87.547 Q 736.133 87.547 740.422 89.422 L 740.422 89.422 L 739.18 92.891 L 739.18 92.891 Q 734.938 91.109 730.93 91.109 L 730.93 91.109 L 730.93 91.109 Q 727.766 91.109 725.984 92.469 L 725.984 92.469 L 725.984 92.469 Q 724.203 93.828 724.203 96.242 L 724.203 96.242 L 724.203 96.242 Q 724.203 98.023 724.859 99.16 L 724.859 99.16 L 724.859 99.16 Q 725.516 100.297 727.074 101.246 L 727.074 101.246 L 727.074 101.246 Q 728.633 102.195 731.844 103.344 L 731.844 103.344 L 731.844 103.344 Q 737.234 105.266 739.262 107.469 L 739.262 107.469 L 739.262 107.469 Q 741.289 109.672 741.289 113.188 Z " fill-rule="evenodd" fill="rgb(255,255,255)"/><path d=" M 604.156 396.109 L 604.156 396.109 L 604.156 396.109 Q 604.156 397.773 603.641 399.156 L 603.641 399.156 L 603.641 399.156 Q 603.125 400.539 602.188 401.301 L 602.188 401.301 L 602.188 401.301 Q 601.25 402.063 600.031 402.063 L 600.031 402.063 L 600.031 402.063 Q 599.023 402.063 598.332 401.453 L 598.332 401.453 L 598.332 401.453 Q 597.641 400.844 597.512 399.895 L 597.512 399.895 L 597.418 399.895 L 597.418 399.895 Q 596.949 400.914 596.076 401.488 L 596.076 401.488 L 596.076 401.488 Q 595.203 402.063 594.008 402.063 L 594.008 402.063 L 594.008 402.063 Q 592.25 402.063 591.26 400.861 L 591.26 400.861 L 591.26 400.861 Q 590.27 399.66 590.27 397.598 L 590.27 397.598 L 590.27 397.598 Q 590.27 395.207 591.652 393.713 L 591.652 393.713 L 591.652 393.713 Q 593.035 392.219 595.285 392.219 L 595.285 392.219 L 595.285 392.219 Q 596.082 392.219 597.09 392.365 L 597.09 392.365 L 597.09 392.365 Q 598.098 392.512 598.906 392.77 L 598.906 392.77 L 598.613 398.277 L 598.613 398.535 L 598.613 398.535 Q 598.613 400.621 600.172 400.621 L 600.172 400.621 L 600.172 400.621 Q 601.238 400.621 601.906 399.361 L 601.906 399.361 L 601.906 399.361 Q 602.574 398.102 602.574 396.086 L 602.574 396.086 L 602.574 396.086 Q 602.574 393.965 601.707 392.371 L 601.707 392.371 L 601.707 392.371 Q 600.84 390.777 599.24 389.916 L 599.24 389.916 L 599.24 389.916 Q 597.641 389.055 595.566 389.055 L 595.566 389.055 L 595.566 389.055 Q 592.953 389.055 591.02 390.139 L 591.02 390.139 L 591.02 390.139 Q 589.086 391.223 588.066 393.232 L 588.066 393.232 L 588.066 393.232 Q 587.047 395.242 587.047 397.879 L 587.047 397.879 L 587.047 397.879 Q 587.047 401.453 588.934 403.375 L 588.934 403.375 L 588.934 403.375 Q 590.82 405.297 594.371 405.297 L 594.371 405.297 L 594.371 405.297 Q 596.832 405.297 599.48 404.289 L 599.48 404.289 L 599.48 405.848 L 599.48 405.848 Q 597.23 406.832 594.371 406.832 L 594.371 406.832 L 594.371 406.832 Q 590.117 406.832 587.768 404.494 L 587.768 404.494 L 587.768 404.494 Q 585.418 402.156 585.418 397.961 L 585.418 397.961 L 585.418 397.961 Q 585.418 394.914 586.672 392.535 L 586.672 392.535 L 586.672 392.535 Q 587.926 390.156 590.246 388.85 L 590.246 388.85 L 590.246 388.85 Q 592.566 387.543 595.566 387.543 L 595.566 387.543 L 595.566 387.543 Q 598.086 387.543 600.049 388.604 L 600.049 388.604 L 600.049 388.604 Q 602.012 389.664 603.084 391.615 L 603.084 391.615 L 603.084 391.615 Q 604.156 393.566 604.156 396.109 Z  M 592.039 397.645 L 592.039 397.645 L 592.039 397.645 Q 592.039 400.621 594.324 400.621 L 594.324 400.621 L 594.324 400.621 Q 596.75 400.621 596.961 396.953 L 596.961 396.953 L 597.125 393.895 L 597.125 393.895 Q 596.281 393.66 595.285 393.66 L 595.285 393.66 L 595.285 393.66 Q 593.762 393.66 592.9 394.715 L 592.9 394.715 L 592.9 394.715 Q 592.039 395.77 592.039 397.645 Z  M 607.496 391.809 L 609.465 391.809 L 609.465 400.141 L 609.465 400.141 Q 609.465 401.711 610.18 402.484 L 610.18 402.484 L 610.18 402.484 Q 610.895 403.258 612.418 403.258 L 612.418 403.258 L 612.418 403.258 Q 614.434 403.258 615.365 402.156 L 615.365 402.156 L 615.365 402.156 Q 616.297 401.055 616.297 398.559 L 616.297 398.559 L 616.297 391.809 L 618.242 391.809 L 618.242 404.652 L 616.637 404.652 L 616.355 402.93 L 616.25 402.93 L 616.25 402.93 Q 615.652 403.879 614.592 404.383 L 614.592 404.383 L 614.592 404.383 Q 613.531 404.887 612.172 404.887 L 612.172 404.887 L 612.172 404.887 Q 609.828 404.887 608.662 403.773 L 608.662 403.773 L 608.662 403.773 Q 607.496 402.66 607.496 400.211 L 607.496 400.211 L 607.496 391.809 Z  M 633.102 404.652 L 631.156 404.652 L 631.156 396.344 L 631.156 396.344 Q 631.156 394.773 630.441 394 L 630.441 394 L 630.441 394 Q 629.727 393.227 628.203 393.227 L 628.203 393.227 L 628.203 393.227 Q 626.188 393.227 625.25 394.316 L 625.25 394.316 L 625.25 394.316 Q 624.313 395.406 624.313 397.914 L 624.313 397.914 L 624.313 404.652 L 622.367 404.652 L 622.367 391.809 L 623.949 391.809 L 624.266 393.566 L 624.359 393.566 L 624.359 393.566 Q 624.957 392.617 626.035 392.096 L 626.035 392.096 L 626.035 392.096 Q 627.113 391.574 628.438 391.574 L 628.438 391.574 L 628.438 391.574 Q 630.758 391.574 631.93 392.693 L 631.93 392.693 L 631.93 392.693 Q 633.102 393.813 633.102 396.273 L 633.102 396.273 L 633.102 404.652 Z  M 639.043 391.809 L 639.043 404.652 L 637.098 404.652 L 637.098 391.809 L 639.043 391.809 Z  M 636.934 388.328 L 636.934 388.328 L 636.934 388.328 Q 636.934 387.66 637.262 387.35 L 637.262 387.35 L 637.262 387.35 Q 637.59 387.039 638.082 387.039 L 638.082 387.039 L 638.082 387.039 Q 638.551 387.039 638.891 387.355 L 638.891 387.355 L 638.891 387.355 Q 639.23 387.672 639.23 388.328 L 639.23 388.328 L 639.23 388.328 Q 639.23 388.984 638.891 389.307 L 638.891 389.307 L 638.891 389.307 Q 638.551 389.629 638.082 389.629 L 638.082 389.629 L 638.082 389.629 Q 637.59 389.629 637.262 389.307 L 637.262 389.307 L 637.262 389.307 Q 636.934 388.984 636.934 388.328 Z  M 647.316 403.281 L 647.316 403.281 L 647.316 403.281 Q 647.832 403.281 648.313 403.205 L 648.313 403.205 L 648.313 403.205 Q 648.793 403.129 649.074 403.047 L 649.074 403.047 L 649.074 404.535 L 649.074 404.535 Q 648.758 404.688 648.143 404.787 L 648.143 404.787 L 648.143 404.787 Q 647.527 404.887 647.035 404.887 L 647.035 404.887 L 647.035 404.887 Q 643.309 404.887 643.309 400.961 L 643.309 400.961 L 643.309 393.32 L 641.469 393.32 L 641.469 392.383 L 643.309 391.574 L 644.129 388.832 L 645.254 388.832 L 645.254 391.809 L 648.98 391.809 L 648.98 393.32 L 645.254 393.32 L 645.254 400.879 L 645.254 400.879 Q 645.254 402.039 645.805 402.66 L 645.805 402.66 L 645.805 402.66 Q 646.355 403.281 647.316 403.281 Z  M 657.066 404.887 L 657.066 404.887 L 657.066 404.887 Q 654.219 404.887 652.572 403.152 L 652.572 403.152 L 652.572 403.152 Q 650.926 401.418 650.926 398.336 L 650.926 398.336 L 650.926 398.336 Q 650.926 395.23 652.455 393.402 L 652.455 393.402 L 652.455 393.402 Q 653.984 391.574 656.563 391.574 L 656.563 391.574 L 656.563 391.574 Q 658.977 391.574 660.383 393.162 L 660.383 393.162 L 660.383 393.162 Q 661.789 394.75 661.789 397.352 L 661.789 397.352 L 661.789 398.582 L 652.941 398.582 L 652.941 398.582 Q 653 400.844 654.084 402.016 L 654.084 402.016 L 654.084 402.016 Q 655.168 403.188 657.137 403.188 L 657.137 403.188 L 657.137 403.188 Q 659.211 403.188 661.238 402.32 L 661.238 402.32 L 661.238 404.055 L 661.238 404.055 Q 660.207 404.5 659.287 404.693 L 659.287 404.693 L 659.287 404.693 Q 658.367 404.887 657.066 404.887 Z  M 656.539 393.203 L 656.539 393.203 L 656.539 393.203 Q 654.992 393.203 654.072 394.211 L 654.072 394.211 L 654.072 394.211 Q 653.152 395.219 652.988 397 L 652.988 397 L 659.703 397 L 659.703 397 Q 659.703 395.16 658.883 394.182 L 658.883 394.182 L 658.883 394.182 Q 658.063 393.203 656.539 393.203 Z  M 663.547 410.418 L 663.547 410.418 L 663.547 410.418 Q 662.434 410.418 661.742 410.125 L 661.742 410.125 L 661.742 408.543 L 661.742 408.543 Q 662.551 408.777 663.336 408.777 L 663.336 408.777 L 663.336 408.777 Q 664.25 408.777 664.678 408.279 L 664.678 408.279 L 664.678 408.279 Q 665.105 407.781 665.105 406.762 L 665.105 406.762 L 665.105 391.809 L 667.051 391.809 L 667.051 406.621 L 667.051 406.621 Q 667.051 410.418 663.547 410.418 Z  M 664.941 388.328 L 664.941 388.328 L 664.941 388.328 Q 664.941 387.66 665.27 387.35 L 665.27 387.35 L 665.27 387.35 Q 665.598 387.039 666.09 387.039 L 666.09 387.039 L 666.09 387.039 Q 666.559 387.039 666.898 387.355 L 666.898 387.355 L 666.898 387.355 Q 667.238 387.672 667.238 388.328 L 667.238 388.328 L 667.238 388.328 Q 667.238 388.984 666.898 389.307 L 666.898 389.307 L 666.898 389.307 Q 666.559 389.629 666.09 389.629 L 666.09 389.629 L 666.09 389.629 Q 665.598 389.629 665.27 389.307 L 665.27 389.307 L 665.27 389.307 Q 664.941 388.984 664.941 388.328 Z  M 679.461 401.148 L 679.461 401.148 L 679.461 401.148 Q 679.461 402.941 678.125 403.914 L 678.125 403.914 L 678.125 403.914 Q 676.789 404.887 674.375 404.887 L 674.375 404.887 L 674.375 404.887 Q 671.82 404.887 670.391 404.078 L 670.391 404.078 L 670.391 402.273 L 670.391 402.273 Q 671.316 402.742 672.377 403.012 L 672.377 403.012 L 672.377 403.012 Q 673.438 403.281 674.422 403.281 L 674.422 403.281 L 674.422 403.281 Q 675.945 403.281 676.766 402.795 L 676.766 402.795 L 676.766 402.795 Q 677.586 402.309 677.586 401.313 L 677.586 401.313 L 677.586 401.313 Q 677.586 400.563 676.936 400.029 L 676.936 400.029 L 676.936 400.029 Q 676.285 399.496 674.398 398.77 L 674.398 398.77 L 674.398 398.77 Q 672.605 398.102 671.85 397.604 L 671.85 397.604 L 671.85 397.604 Q 671.094 397.105 670.725 396.473 L 670.725 396.473 L 670.725 396.473 Q 670.355 395.84 670.355 394.961 L 670.355 394.961 L 670.355 394.961 Q 670.355 393.391 671.633 392.482 L 671.633 392.482 L 671.633 392.482 Q 672.91 391.574 675.137 391.574 L 675.137 391.574 L 675.137 391.574 Q 677.211 391.574 679.191 392.418 L 679.191 392.418 L 678.5 394 L 678.5 394 Q 676.566 393.203 674.996 393.203 L 674.996 393.203 L 674.996 393.203 Q 673.613 393.203 672.91 393.637 L 672.91 393.637 L 672.91 393.637 Q 672.207 394.07 672.207 394.832 L 672.207 394.832 L 672.207 394.832 Q 672.207 395.348 672.471 395.711 L 672.471 395.711 L 672.471 395.711 Q 672.734 396.074 673.32 396.402 L 673.32 396.402 L 673.32 396.402 Q 673.906 396.73 675.57 397.352 L 675.57 397.352 L 675.57 397.352 Q 677.855 398.184 678.658 399.027 L 678.658 399.027 L 678.658 399.027 Q 679.461 399.871 679.461 401.148 Z " fill-rule="evenodd" fill="rgb(255,255,255)"/><path d=" M 596.797 450.311 L 594.852 450.311 L 594.852 442.002 L 594.852 442.002 Q 594.852 440.432 594.137 439.658 L 594.137 439.658 L 594.137 439.658 Q 593.422 438.885 591.898 438.885 L 591.898 438.885 L 591.898 438.885 Q 589.871 438.885 588.939 439.986 L 588.939 439.986 L 588.939 439.986 Q 588.008 441.088 588.008 443.596 L 588.008 443.596 L 588.008 450.311 L 586.063 450.311 L 586.063 432.076 L 588.008 432.076 L 588.008 437.596 L 588.008 437.596 Q 588.008 438.592 587.914 439.248 L 587.914 439.248 L 588.031 439.248 L 588.031 439.248 Q 588.605 438.322 589.666 437.789 L 589.666 437.789 L 589.666 437.789 Q 590.727 437.256 592.086 437.256 L 592.086 437.256 L 592.086 437.256 Q 594.441 437.256 595.619 438.375 L 595.619 438.375 L 595.619 438.375 Q 596.797 439.494 596.797 441.932 L 596.797 441.932 L 596.797 450.311 Z  M 604.941 448.939 L 604.941 448.939 L 604.941 448.939 Q 605.457 448.939 605.938 448.863 L 605.938 448.863 L 605.938 448.863 Q 606.418 448.787 606.699 448.705 L 606.699 448.705 L 606.699 450.193 L 606.699 450.193 Q 606.383 450.346 605.768 450.445 L 605.768 450.445 L 605.768 450.445 Q 605.152 450.545 604.66 450.545 L 604.66 450.545 L 604.66 450.545 Q 600.934 450.545 600.934 446.619 L 600.934 446.619 L 600.934 438.979 L 599.094 438.979 L 599.094 438.041 L 600.934 437.232 L 601.754 434.49 L 602.879 434.49 L 602.879 437.467 L 606.605 437.467 L 606.605 438.979 L 602.879 438.979 L 602.879 446.537 L 602.879 446.537 Q 602.879 447.697 603.43 448.318 L 603.43 448.318 L 603.43 448.318 Q 603.98 448.939 604.941 448.939 Z  M 613.414 448.939 L 613.414 448.939 L 613.414 448.939 Q 613.93 448.939 614.41 448.863 L 614.41 448.863 L 614.41 448.863 Q 614.891 448.787 615.172 448.705 L 615.172 448.705 L 615.172 450.193 L 615.172 450.193 Q 614.855 450.346 614.24 450.445 L 614.24 450.445 L 614.24 450.445 Q 613.625 450.545 613.133 450.545 L 613.133 450.545 L 613.133 450.545 Q 609.406 450.545 609.406 446.619 L 609.406 446.619 L 609.406 438.979 L 607.566 438.979 L 607.566 438.041 L 609.406 437.232 L 610.227 434.49 L 611.352 434.49 L 611.352 437.467 L 615.078 437.467 L 615.078 438.979 L 611.352 438.979 L 611.352 446.537 L 611.352 446.537 Q 611.352 447.697 611.902 448.318 L 611.902 448.318 L 611.902 448.318 Q 612.453 448.939 613.414 448.939 Z  M 623.715 450.545 L 623.715 450.545 L 623.715 450.545 Q 622.461 450.545 621.424 450.082 L 621.424 450.082 L 621.424 450.082 Q 620.387 449.619 619.684 448.658 L 619.684 448.658 L 619.543 448.658 L 619.543 448.658 Q 619.684 449.783 619.684 450.791 L 619.684 450.791 L 619.684 456.076 L 617.738 456.076 L 617.738 437.467 L 619.32 437.467 L 619.59 439.225 L 619.684 439.225 L 619.684 439.225 Q 620.434 438.17 621.43 437.701 L 621.43 437.701 L 621.43 437.701 Q 622.426 437.232 623.715 437.232 L 623.715 437.232 L 623.715 437.232 Q 626.27 437.232 627.658 438.979 L 627.658 438.979 L 627.658 438.979 Q 629.047 440.725 629.047 443.877 L 629.047 443.877 L 629.047 443.877 Q 629.047 447.041 627.635 448.793 L 627.635 448.793 L 627.635 448.793 Q 626.223 450.545 623.715 450.545 Z  M 623.434 438.885 L 623.434 438.885 L 623.434 438.885 Q 621.465 438.885 620.586 439.975 L 620.586 439.975 L 620.586 439.975 Q 619.707 441.064 619.684 443.443 L 619.684 443.443 L 619.684 443.877 L 619.684 443.877 Q 619.684 446.584 620.586 447.75 L 620.586 447.75 L 620.586 447.75 Q 621.488 448.916 623.48 448.916 L 623.48 448.916 L 623.48 448.916 Q 625.145 448.916 626.088 447.568 L 626.088 447.568 L 626.088 447.568 Q 627.031 446.221 627.031 443.854 L 627.031 443.854 L 627.031 443.854 Q 627.031 441.451 626.088 440.168 L 626.088 440.168 L 626.088 440.168 Q 625.145 438.885 623.434 438.885 Z  M 632.164 449.068 L 632.164 449.068 L 632.164 449.068 Q 632.164 448.283 632.521 447.879 L 632.521 447.879 L 632.521 447.879 Q 632.879 447.475 633.547 447.475 L 633.547 447.475 L 633.547 447.475 Q 634.227 447.475 634.607 447.879 L 634.607 447.879 L 634.607 447.879 Q 634.988 448.283 634.988 449.068 L 634.988 449.068 L 634.988 449.068 Q 634.988 449.83 634.602 450.24 L 634.602 450.24 L 634.602 450.24 Q 634.215 450.65 633.547 450.65 L 633.547 450.65 L 633.547 450.65 Q 632.949 450.65 632.557 450.281 L 632.557 450.281 L 632.557 450.281 Q 632.164 449.912 632.164 449.068 Z  M 632.164 438.721 L 632.164 438.721 L 632.164 438.721 Q 632.164 437.139 633.547 437.139 L 633.547 437.139 L 633.547 437.139 Q 634.988 437.139 634.988 438.721 L 634.988 438.721 L 634.988 438.721 Q 634.988 439.482 634.602 439.893 L 634.602 439.893 L 634.602 439.893 Q 634.215 440.303 633.547 440.303 L 633.547 440.303 L 633.547 440.303 Q 632.949 440.303 632.557 439.934 L 632.557 439.934 L 632.557 439.934 Q 632.164 439.564 632.164 438.721 Z  M 643.391 433.178 L 645.336 433.178 L 638.949 450.311 L 637.004 450.311 L 643.391 433.178 Z  M 652.203 433.178 L 654.148 433.178 L 647.762 450.311 L 645.816 450.311 L 652.203 433.178 Z  M 656.316 437.467 L 658.285 437.467 L 658.285 445.799 L 658.285 445.799 Q 658.285 447.369 659 448.143 L 659 448.143 L 659 448.143 Q 659.715 448.916 661.238 448.916 L 661.238 448.916 L 661.238 448.916 Q 663.254 448.916 664.186 447.814 L 664.186 447.814 L 664.186 447.814 Q 665.117 446.713 665.117 444.217 L 665.117 444.217 L 665.117 437.467 L 667.063 437.467 L 667.063 450.311 L 665.457 450.311 L 665.176 448.588 L 665.07 448.588 L 665.07 448.588 Q 664.473 449.537 663.412 450.041 L 663.412 450.041 L 663.412 450.041 Q 662.352 450.545 660.992 450.545 L 660.992 450.545 L 660.992 450.545 Q 658.648 450.545 657.482 449.432 L 657.482 449.432 L 657.482 449.432 Q 656.316 448.318 656.316 445.869 L 656.316 445.869 L 656.316 437.467 Z  M 681.922 450.311 L 679.977 450.311 L 679.977 442.002 L 679.977 442.002 Q 679.977 440.432 679.262 439.658 L 679.262 439.658 L 679.262 439.658 Q 678.547 438.885 677.023 438.885 L 677.023 438.885 L 677.023 438.885 Q 675.008 438.885 674.07 439.975 L 674.07 439.975 L 674.07 439.975 Q 673.133 441.064 673.133 443.572 L 673.133 443.572 L 673.133 450.311 L 671.188 450.311 L 671.188 437.467 L 672.77 437.467 L 673.086 439.225 L 673.18 439.225 L 673.18 439.225 Q 673.777 438.275 674.855 437.754 L 674.855 437.754 L 674.855 437.754 Q 675.934 437.232 677.258 437.232 L 677.258 437.232 L 677.258 437.232 Q 679.578 437.232 680.75 438.352 L 680.75 438.352 L 680.75 438.352 Q 681.922 439.471 681.922 441.932 L 681.922 441.932 L 681.922 450.311 Z  M 687.863 437.467 L 687.863 450.311 L 685.918 450.311 L 685.918 437.467 L 687.863 437.467 Z  M 685.754 433.986 L 685.754 433.986 L 685.754 433.986 Q 685.754 433.318 686.082 433.008 L 686.082 433.008 L 686.082 433.008 Q 686.41 432.697 686.902 432.697 L 686.902 432.697 L 686.902 432.697 Q 687.371 432.697 687.711 433.014 L 687.711 433.014 L 687.711 433.014 Q 688.051 433.33 688.051 433.986 L 688.051 433.986 L 688.051 433.986 Q 688.051 434.643 687.711 434.965 L 687.711 434.965 L 687.711 434.965 Q 687.371 435.287 686.902 435.287 L 686.902 435.287 L 686.902 435.287 Q 686.41 435.287 686.082 434.965 L 686.082 434.965 L 686.082 434.965 Q 685.754 434.643 685.754 433.986 Z  M 696.137 448.939 L 696.137 448.939 L 696.137 448.939 Q 696.652 448.939 697.133 448.863 L 697.133 448.863 L 697.133 448.863 Q 697.613 448.787 697.895 448.705 L 697.895 448.705 L 697.895 450.193 L 697.895 450.193 Q 697.578 450.346 696.963 450.445 L 696.963 450.445 L 696.963 450.445 Q 696.348 450.545 695.855 450.545 L 695.855 450.545 L 695.855 450.545 Q 692.129 450.545 692.129 446.619 L 692.129 446.619 L 692.129 438.979 L 690.289 438.979 L 690.289 438.041 L 692.129 437.232 L 692.949 434.49 L 694.074 434.49 L 694.074 437.467 L 697.801 437.467 L 697.801 438.979 L 694.074 438.979 L 694.074 446.537 L 694.074 446.537 Q 694.074 447.697 694.625 448.318 L 694.625 448.318 L 694.625 448.318 Q 695.176 448.939 696.137 448.939 Z  M 705.887 450.545 L 705.887 450.545 L 705.887 450.545 Q 703.039 450.545 701.393 448.811 L 701.393 448.811 L 701.393 448.811 Q 699.746 447.076 699.746 443.994 L 699.746 443.994 L 699.746 443.994 Q 699.746 440.889 701.275 439.061 L 701.275 439.061 L 701.275 439.061 Q 702.805 437.232 705.383 437.232 L 705.383 437.232 L 705.383 437.232 Q 707.797 437.232 709.203 438.82 L 709.203 438.82 L 709.203 438.82 Q 710.609 440.408 710.609 443.01 L 710.609 443.01 L 710.609 444.24 L 701.762 444.24 L 701.762 444.24 Q 701.82 446.502 702.904 447.674 L 702.904 447.674 L 702.904 447.674 Q 703.988 448.846 705.957 448.846 L 705.957 448.846 L 705.957 448.846 Q 708.031 448.846 710.059 447.979 L 710.059 447.979 L 710.059 449.713 L 710.059 449.713 Q 709.027 450.158 708.107 450.352 L 708.107 450.352 L 708.107 450.352 Q 707.188 450.545 705.887 450.545 Z  M 705.359 438.861 L 705.359 438.861 L 705.359 438.861 Q 703.813 438.861 702.893 439.869 L 702.893 439.869 L 702.893 439.869 Q 701.973 440.877 701.809 442.658 L 701.809 442.658 L 708.523 442.658 L 708.523 442.658 Q 708.523 440.818 707.703 439.84 L 707.703 439.84 L 707.703 439.84 Q 706.883 438.861 705.359 438.861 Z  M 712.367 456.076 L 712.367 456.076 L 712.367 456.076 Q 711.254 456.076 710.563 455.783 L 710.563 455.783 L 710.563 454.201 L 710.563 454.201 Q 711.371 454.436 712.156 454.436 L 712.156 454.436 L 712.156 454.436 Q 713.07 454.436 713.498 453.938 L 713.498 453.938 L 713.498 453.938 Q 713.926 453.439 713.926 452.42 L 713.926 452.42 L 713.926 437.467 L 715.871 437.467 L 715.871 452.279 L 715.871 452.279 Q 715.871 456.076 712.367 456.076 Z  M 713.762 433.986 L 713.762 433.986 L 713.762 433.986 Q 713.762 433.318 714.09 433.008 L 714.09 433.008 L 714.09 433.008 Q 714.418 432.697 714.91 432.697 L 714.91 432.697 L 714.91 432.697 Q 715.379 432.697 715.719 433.014 L 715.719 433.014 L 715.719 433.014 Q 716.059 433.33 716.059 433.986 L 716.059 433.986 L 716.059 433.986 Q 716.059 434.643 715.719 434.965 L 715.719 434.965 L 715.719 434.965 Q 715.379 435.287 714.91 435.287 L 714.91 435.287 L 714.91 435.287 Q 714.418 435.287 714.09 434.965 L 714.09 434.965 L 714.09 434.965 Q 713.762 434.643 713.762 433.986 Z  M 728.281 446.807 L 728.281 446.807 L 728.281 446.807 Q 728.281 448.6 726.945 449.572 L 726.945 449.572 L 726.945 449.572 Q 725.609 450.545 723.195 450.545 L 723.195 450.545 L 723.195 450.545 Q 720.641 450.545 719.211 449.736 L 719.211 449.736 L 719.211 447.932 L 719.211 447.932 Q 720.137 448.4 721.197 448.67 L 721.197 448.67 L 721.197 448.67 Q 722.258 448.939 723.242 448.939 L 723.242 448.939 L 723.242 448.939 Q 724.766 448.939 725.586 448.453 L 725.586 448.453 L 725.586 448.453 Q 726.406 447.967 726.406 446.971 L 726.406 446.971 L 726.406 446.971 Q 726.406 446.221 725.756 445.688 L 725.756 445.688 L 725.756 445.688 Q 725.105 445.154 723.219 444.428 L 723.219 444.428 L 723.219 444.428 Q 721.426 443.76 720.67 443.262 L 720.67 443.262 L 720.67 443.262 Q 719.914 442.764 719.545 442.131 L 719.545 442.131 L 719.545 442.131 Q 719.176 441.498 719.176 440.619 L 719.176 440.619 L 719.176 440.619 Q 719.176 439.049 720.453 438.141 L 720.453 438.141 L 720.453 438.141 Q 721.73 437.232 723.957 437.232 L 723.957 437.232 L 723.957 437.232 Q 726.031 437.232 728.012 438.076 L 728.012 438.076 L 727.32 439.658 L 727.32 439.658 Q 725.387 438.861 723.816 438.861 L 723.816 438.861 L 723.816 438.861 Q 722.434 438.861 721.73 439.295 L 721.73 439.295 L 721.73 439.295 Q 721.027 439.729 721.027 440.49 L 721.027 440.49 L 721.027 440.49 Q 721.027 441.006 721.291 441.369 L 721.291 441.369 L 721.291 441.369 Q 721.555 441.732 722.141 442.061 L 722.141 442.061 L 722.141 442.061 Q 722.727 442.389 724.391 443.01 L 724.391 443.01 L 724.391 443.01 Q 726.676 443.842 727.479 444.686 L 727.479 444.686 L 727.479 444.686 Q 728.281 445.529 728.281 446.807 Z  M 731.164 449.068 L 731.164 449.068 L 731.164 449.068 Q 731.164 448.283 731.521 447.879 L 731.521 447.879 L 731.521 447.879 Q 731.879 447.475 732.547 447.475 L 732.547 447.475 L 732.547 447.475 Q 733.227 447.475 733.607 447.879 L 733.607 447.879 L 733.607 447.879 Q 733.988 448.283 733.988 449.068 L 733.988 449.068 L 733.988 449.068 Q 733.988 449.83 733.602 450.24 L 733.602 450.24 L 733.602 450.24 Q 733.215 450.65 732.547 450.65 L 732.547 450.65 L 732.547 450.65 Q 731.949 450.65 731.557 450.281 L 731.557 450.281 L 731.557 450.281 Q 731.164 449.912 731.164 449.068 Z  M 742.965 450.545 L 742.965 450.545 L 742.965 450.545 Q 740.176 450.545 738.646 448.828 L 738.646 448.828 L 738.646 448.828 Q 737.117 447.111 737.117 443.971 L 737.117 443.971 L 737.117 443.971 Q 737.117 440.748 738.67 438.99 L 738.67 438.99 L 738.67 438.99 Q 740.223 437.232 743.094 437.232 L 743.094 437.232 L 743.094 437.232 Q 744.02 437.232 744.945 437.432 L 744.945 437.432 L 744.945 437.432 Q 745.871 437.631 746.398 437.9 L 746.398 437.9 L 745.801 439.553 L 745.801 439.553 Q 745.156 439.295 744.395 439.125 L 744.395 439.125 L 744.395 439.125 Q 743.633 438.955 743.047 438.955 L 743.047 438.955 L 743.047 438.955 Q 739.133 438.955 739.133 443.947 L 739.133 443.947 L 739.133 443.947 Q 739.133 446.314 740.088 447.58 L 740.088 447.58 L 740.088 447.58 Q 741.043 448.846 742.918 448.846 L 742.918 448.846 L 742.918 448.846 Q 744.523 448.846 746.211 448.154 L 746.211 448.154 L 746.211 449.877 L 746.211 449.877 Q 744.922 450.545 742.965 450.545 Z  M 760.344 443.877 L 760.344 443.877 L 760.344 443.877 Q 760.344 447.018 758.762 448.781 L 758.762 448.781 L 758.762 448.781 Q 757.18 450.545 754.391 450.545 L 754.391 450.545 L 754.391 450.545 Q 752.668 450.545 751.332 449.736 L 751.332 449.736 L 751.332 449.736 Q 749.996 448.928 749.27 447.416 L 749.27 447.416 L 749.27 447.416 Q 748.543 445.904 748.543 443.877 L 748.543 443.877 L 748.543 443.877 Q 748.543 440.736 750.113 438.984 L 750.113 438.984 L 750.113 438.984 Q 751.684 437.232 754.473 437.232 L 754.473 437.232 L 754.473 437.232 Q 757.168 437.232 758.756 439.025 L 758.756 439.025 L 758.756 439.025 Q 760.344 440.818 760.344 443.877 Z  M 750.559 443.877 L 750.559 443.877 L 750.559 443.877 Q 750.559 446.338 751.543 447.627 L 751.543 447.627 L 751.543 447.627 Q 752.527 448.916 754.438 448.916 L 754.438 448.916 L 754.438 448.916 Q 756.348 448.916 757.338 447.633 L 757.338 447.633 L 757.338 447.633 Q 758.328 446.35 758.328 443.877 L 758.328 443.877 L 758.328 443.877 Q 758.328 441.428 757.338 440.156 L 757.338 440.156 L 757.338 440.156 Q 756.348 438.885 754.414 438.885 L 754.414 438.885 L 754.414 438.885 Q 752.504 438.885 751.531 440.139 L 751.531 440.139 L 751.531 440.139 Q 750.559 441.393 750.559 443.877 Z  M 782.07 450.311 L 780.125 450.311 L 780.125 441.955 L 780.125 441.955 Q 780.125 440.42 779.469 439.652 L 779.469 439.652 L 779.469 439.652 Q 778.813 438.885 777.43 438.885 L 777.43 438.885 L 777.43 438.885 Q 775.613 438.885 774.746 439.928 L 774.746 439.928 L 774.746 439.928 Q 773.879 440.971 773.879 443.139 L 773.879 443.139 L 773.879 450.311 L 771.934 450.311 L 771.934 441.955 L 771.934 441.955 Q 771.934 440.42 771.277 439.652 L 771.277 439.652 L 771.277 439.652 Q 770.621 438.885 769.227 438.885 L 769.227 438.885 L 769.227 438.885 Q 767.398 438.885 766.549 439.98 L 766.549 439.98 L 766.549 439.98 Q 765.699 441.076 765.699 443.572 L 765.699 443.572 L 765.699 450.311 L 763.754 450.311 L 763.754 437.467 L 765.336 437.467 L 765.652 439.225 L 765.746 439.225 L 765.746 439.225 Q 766.297 438.287 767.299 437.76 L 767.299 437.76 L 767.299 437.76 Q 768.301 437.232 769.543 437.232 L 769.543 437.232 L 769.543 437.232 Q 772.555 437.232 773.48 439.412 L 773.48 439.412 L 773.574 439.412 L 773.574 439.412 Q 774.148 438.404 775.238 437.818 L 775.238 437.818 L 775.238 437.818 Q 776.328 437.232 777.723 437.232 L 777.723 437.232 L 777.723 437.232 Q 779.902 437.232 780.986 438.352 L 780.986 438.352 L 780.986 438.352 Q 782.07 439.471 782.07 441.932 L 782.07 441.932 L 782.07 450.311 Z " fill-rule="evenodd" fill="rgb(255,255,255)"/><path d=" M 603.301 221.791 L 603.301 223.479 L 585.441 223.479 L 585.441 222.143 L 600.488 199.467 L 586.127 199.467 L 586.127 197.779 L 602.896 197.779 L 602.896 199.115 L 587.814 221.791 L 603.301 221.791 Z  M 615.658 223.83 L 615.658 223.83 L 615.658 223.83 Q 611.492 223.83 609.163 221.264 L 609.163 221.264 L 609.163 221.264 Q 606.834 218.697 606.834 214.074 L 606.834 214.074 L 606.834 214.074 Q 606.834 209.504 609.084 206.753 L 609.084 206.753 L 609.084 206.753 Q 611.334 204.002 615.148 204.002 L 615.148 204.002 L 615.148 204.002 Q 618.523 204.002 620.475 206.357 L 620.475 206.357 L 620.475 206.357 Q 622.426 208.713 622.426 212.756 L 622.426 212.756 L 622.426 214.162 L 608.662 214.162 L 608.662 214.162 Q 608.697 218.1 610.499 220.174 L 610.499 220.174 L 610.499 220.174 Q 612.301 222.248 615.658 222.248 L 615.658 222.248 L 615.658 222.248 Q 617.293 222.248 618.532 222.02 L 618.532 222.02 L 618.532 222.02 Q 619.771 221.791 621.67 221.035 L 621.67 221.035 L 621.67 222.617 L 621.67 222.617 Q 620.053 223.32 618.682 223.575 L 618.682 223.575 L 618.682 223.575 Q 617.311 223.83 615.658 223.83 Z  M 615.148 205.549 L 615.148 205.549 L 615.148 205.549 Q 612.389 205.549 610.719 207.368 L 610.719 207.368 L 610.719 207.368 Q 609.049 209.188 608.768 212.615 L 608.768 212.615 L 620.58 212.615 L 620.58 212.615 Q 620.58 209.293 619.139 207.421 L 619.139 207.421 L 619.139 207.421 Q 617.697 205.549 615.148 205.549 Z  M 635.223 204.002 L 635.223 204.002 L 635.223 204.002 Q 636.436 204.002 637.824 204.248 L 637.824 204.248 L 637.49 205.918 L 637.49 205.918 Q 636.295 205.619 635.012 205.619 L 635.012 205.619 L 635.012 205.619 Q 632.568 205.619 631.004 207.693 L 631.004 207.693 L 631.004 207.693 Q 629.439 209.768 629.439 212.932 L 629.439 212.932 L 629.439 223.479 L 627.699 223.479 L 627.699 204.371 L 629.176 204.371 L 629.352 207.816 L 629.475 207.816 L 629.475 207.816 Q 630.652 205.707 631.988 204.854 L 631.988 204.854 L 631.988 204.854 Q 633.324 204.002 635.223 204.002 Z  M 657.512 213.898 L 657.512 213.898 L 657.512 213.898 Q 657.512 218.574 655.244 221.202 L 655.244 221.202 L 655.244 221.202 Q 652.977 223.83 648.986 223.83 L 648.986 223.83 L 648.986 223.83 Q 646.473 223.83 644.557 222.617 L 644.557 222.617 L 644.557 222.617 Q 642.641 221.404 641.621 219.137 L 641.621 219.137 L 641.621 219.137 Q 640.602 216.869 640.602 213.898 L 640.602 213.898 L 640.602 213.898 Q 640.602 209.223 642.869 206.612 L 642.869 206.612 L 642.869 206.612 Q 645.137 204.002 649.092 204.002 L 649.092 204.002 L 649.092 204.002 Q 653.029 204.002 655.271 206.647 L 655.271 206.647 L 655.271 206.647 Q 657.512 209.293 657.512 213.898 Z  M 642.43 213.898 L 642.43 213.898 L 642.43 213.898 Q 642.43 217.836 644.161 220.042 L 644.161 220.042 L 644.161 220.042 Q 645.893 222.248 649.057 222.248 L 649.057 222.248 L 649.057 222.248 Q 652.221 222.248 653.952 220.042 L 653.952 220.042 L 653.952 220.042 Q 655.684 217.836 655.684 213.898 L 655.684 213.898 L 655.684 213.898 Q 655.684 209.943 653.935 207.764 L 653.935 207.764 L 653.935 207.764 Q 652.186 205.584 649.021 205.584 L 649.021 205.584 L 649.021 205.584 Q 645.857 205.584 644.144 207.755 L 644.144 207.755 L 644.144 207.755 Q 642.43 209.926 642.43 213.898 Z  M 679.783 223.83 L 679.783 223.83 L 679.783 223.83 Q 675.688 223.83 673.367 221.246 L 673.367 221.246 L 673.367 221.246 Q 671.047 218.662 671.047 214.039 L 671.047 214.039 L 671.047 214.039 Q 671.047 209.293 673.455 206.647 L 673.455 206.647 L 673.455 206.647 Q 675.863 204.002 680.047 204.002 L 680.047 204.002 L 680.047 204.002 Q 682.525 204.002 684.793 204.863 L 684.793 204.863 L 684.318 206.41 L 684.318 206.41 Q 681.84 205.584 680.012 205.584 L 680.012 205.584 L 680.012 205.584 Q 676.496 205.584 674.686 207.755 L 674.686 207.755 L 674.686 207.755 Q 672.875 209.926 672.875 214.004 L 672.875 214.004 L 672.875 214.004 Q 672.875 217.871 674.686 220.06 L 674.686 220.06 L 674.686 220.06 Q 676.496 222.248 679.748 222.248 L 679.748 222.248 L 679.748 222.248 Q 682.35 222.248 684.582 221.316 L 684.582 221.316 L 684.582 222.934 L 684.582 222.934 Q 682.754 223.83 679.783 223.83 Z  M 705.061 213.898 L 705.061 213.898 L 705.061 213.898 Q 705.061 218.574 702.793 221.202 L 702.793 221.202 L 702.793 221.202 Q 700.525 223.83 696.535 223.83 L 696.535 223.83 L 696.535 223.83 Q 694.021 223.83 692.105 222.617 L 692.105 222.617 L 692.105 222.617 Q 690.189 221.404 689.17 219.137 L 689.17 219.137 L 689.17 219.137 Q 688.15 216.869 688.15 213.898 L 688.15 213.898 L 688.15 213.898 Q 688.15 209.223 690.418 206.612 L 690.418 206.612 L 690.418 206.612 Q 692.686 204.002 696.641 204.002 L 696.641 204.002 L 696.641 204.002 Q 700.578 204.002 702.819 206.647 L 702.819 206.647 L 702.819 206.647 Q 705.061 209.293 705.061 213.898 Z  M 689.979 213.898 L 689.979 213.898 L 689.979 213.898 Q 689.979 217.836 691.71 220.042 L 691.71 220.042 L 691.71 220.042 Q 693.441 222.248 696.605 222.248 L 696.605 222.248 L 696.605 222.248 Q 699.77 222.248 701.501 220.042 L 701.501 220.042 L 701.501 220.042 Q 703.232 217.836 703.232 213.898 L 703.232 213.898 L 703.232 213.898 Q 703.232 209.943 701.483 207.764 L 701.483 207.764 L 701.483 207.764 Q 699.734 205.584 696.57 205.584 L 696.57 205.584 L 696.57 205.584 Q 693.406 205.584 691.692 207.755 L 691.692 207.755 L 691.692 207.755 Q 689.979 209.926 689.979 213.898 Z  M 725.398 223.479 L 723.676 223.479 L 723.676 211.086 L 723.676 211.086 Q 723.676 208.203 722.463 206.894 L 722.463 206.894 L 722.463 206.894 Q 721.25 205.584 718.701 205.584 L 718.701 205.584 L 718.701 205.584 Q 715.273 205.584 713.683 207.315 L 713.683 207.315 L 713.683 207.315 Q 712.092 209.047 712.092 212.932 L 712.092 212.932 L 712.092 223.479 L 710.352 223.479 L 710.352 204.371 L 711.828 204.371 L 712.162 206.99 L 712.268 206.99 L 712.268 206.99 Q 714.131 204.002 718.895 204.002 L 718.895 204.002 L 718.895 204.002 Q 725.398 204.002 725.398 210.98 L 725.398 210.98 L 725.398 223.479 Z  M 738.688 204.371 L 738.688 205.883 L 734.188 205.883 L 734.188 223.479 L 732.447 223.479 L 732.447 205.883 L 728.896 205.883 L 728.896 204.863 L 732.447 204.213 L 732.447 202.736 L 732.447 202.736 Q 732.447 199.221 733.739 197.577 L 733.739 197.577 L 733.739 197.577 Q 735.031 195.934 737.967 195.934 L 737.967 195.934 L 737.967 195.934 Q 739.549 195.934 741.131 196.408 L 741.131 196.408 L 740.727 197.92 L 740.727 197.92 Q 739.32 197.48 737.932 197.48 L 737.932 197.48 L 737.932 197.48 Q 735.893 197.48 735.04 198.685 L 735.04 198.685 L 735.04 198.685 Q 734.188 199.889 734.188 202.596 L 734.188 202.596 L 734.188 204.371 L 738.688 204.371 Z  M 744.119 204.371 L 744.119 223.479 L 742.379 223.479 L 742.379 204.371 L 744.119 204.371 Z  M 742.133 199.063 L 742.133 199.063 L 742.133 199.063 Q 742.133 197.375 743.24 197.375 L 743.24 197.375 L 743.24 197.375 Q 743.785 197.375 744.093 197.814 L 744.093 197.814 L 744.093 197.814 Q 744.4 198.254 744.4 199.063 L 744.4 199.063 L 744.4 199.063 Q 744.4 199.854 744.093 200.311 L 744.093 200.311 L 744.093 200.311 Q 743.785 200.768 743.24 200.768 L 743.24 200.768 L 743.24 200.768 Q 742.133 200.768 742.133 199.063 Z  M 759.307 204.371 L 765.424 204.371 L 765.424 205.584 L 761.469 205.83 L 761.469 205.83 Q 763.051 207.799 763.051 210.154 L 763.051 210.154 L 763.051 210.154 Q 763.051 212.914 761.214 214.628 L 761.214 214.628 L 761.214 214.628 Q 759.377 216.342 756.283 216.342 L 756.283 216.342 L 756.283 216.342 Q 754.982 216.342 754.455 216.236 L 754.455 216.236 L 754.455 216.236 Q 753.418 216.781 752.873 217.52 L 752.873 217.52 L 752.873 217.52 Q 752.328 218.258 752.328 219.084 L 752.328 219.084 L 752.328 219.084 Q 752.328 219.998 753.022 220.42 L 753.022 220.42 L 753.022 220.42 Q 753.717 220.842 755.352 220.842 L 755.352 220.842 L 758.691 220.842 L 758.691 220.842 Q 761.803 220.842 763.455 222.099 L 763.455 222.099 L 763.455 222.099 Q 765.107 223.355 765.107 225.816 L 765.107 225.816 L 765.107 225.816 Q 765.107 228.84 762.655 230.483 L 762.655 230.483 L 762.655 230.483 Q 760.203 232.127 755.668 232.127 L 755.668 232.127 L 755.668 232.127 Q 752.064 232.127 750.087 230.738 L 750.087 230.738 L 750.087 230.738 Q 748.109 229.35 748.109 226.871 L 748.109 226.871 L 748.109 226.871 Q 748.109 224.902 749.331 223.602 L 749.331 223.602 L 749.331 223.602 Q 750.553 222.301 752.645 221.826 L 752.645 221.826 L 752.645 221.826 Q 751.783 221.457 751.265 220.78 L 751.265 220.78 L 751.265 220.78 Q 750.746 220.104 750.746 219.225 L 750.746 219.225 L 750.746 219.225 Q 750.746 217.309 753.189 215.85 L 753.189 215.85 L 753.189 215.85 Q 751.52 215.164 750.588 213.696 L 750.588 213.696 L 750.588 213.696 Q 749.656 212.229 749.656 210.33 L 749.656 210.33 L 749.656 210.33 Q 749.656 207.465 751.476 205.733 L 751.476 205.733 L 751.476 205.733 Q 753.295 204.002 756.389 204.002 L 756.389 204.002 L 756.389 204.002 Q 758.27 204.002 759.307 204.371 L 759.307 204.371 Z  M 749.955 226.713 L 749.955 226.713 L 749.955 226.713 Q 749.955 230.65 755.809 230.65 L 755.809 230.65 L 755.809 230.65 Q 763.332 230.65 763.332 225.852 L 763.332 225.852 L 763.332 225.852 Q 763.332 224.129 762.154 223.355 L 762.154 223.355 L 762.154 223.355 Q 760.977 222.582 758.34 222.582 L 758.34 222.582 L 755.211 222.582 L 755.211 222.582 Q 749.955 222.582 749.955 226.713 Z  M 751.414 210.33 L 751.414 210.33 L 751.414 210.33 Q 751.414 212.545 752.759 213.767 L 752.759 213.767 L 752.759 213.767 Q 754.104 214.988 756.354 214.988 L 756.354 214.988 L 756.354 214.988 Q 758.744 214.988 760.019 213.775 L 760.019 213.775 L 760.019 213.775 Q 761.293 212.563 761.293 210.26 L 761.293 210.26 L 761.293 210.26 Q 761.293 207.816 759.983 206.595 L 759.983 206.595 L 759.983 206.595 Q 758.674 205.373 756.318 205.373 L 756.318 205.373 L 756.318 205.373 Q 754.033 205.373 752.724 206.683 L 752.724 206.683 L 752.724 206.683 Q 751.414 207.992 751.414 210.33 Z  M 769.133 204.371 L 770.855 204.371 L 770.855 216.746 L 770.855 216.746 Q 770.855 219.629 772.068 220.938 L 772.068 220.938 L 772.068 220.938 Q 773.281 222.248 775.83 222.248 L 775.83 222.248 L 775.83 222.248 Q 779.24 222.248 780.849 220.525 L 780.849 220.525 L 780.849 220.525 Q 782.457 218.803 782.457 214.918 L 782.457 214.918 L 782.457 204.371 L 784.18 204.371 L 784.18 223.479 L 782.703 223.479 L 782.387 220.842 L 782.281 220.842 L 782.281 220.842 Q 780.418 223.83 775.654 223.83 L 775.654 223.83 L 775.654 223.83 Q 769.133 223.83 769.133 216.852 L 769.133 216.852 L 769.133 204.371 Z  M 798.102 204.002 L 798.102 204.002 L 798.102 204.002 Q 799.314 204.002 800.703 204.248 L 800.703 204.248 L 800.369 205.918 L 800.369 205.918 Q 799.174 205.619 797.891 205.619 L 797.891 205.619 L 797.891 205.619 Q 795.447 205.619 793.883 207.693 L 793.883 207.693 L 793.883 207.693 Q 792.318 209.768 792.318 212.932 L 792.318 212.932 L 792.318 223.479 L 790.578 223.479 L 790.578 204.371 L 792.055 204.371 L 792.23 207.816 L 792.354 207.816 L 792.354 207.816 Q 793.531 205.707 794.867 204.854 L 794.867 204.854 L 794.867 204.854 Q 796.203 204.002 798.102 204.002 Z  M 817.473 223.479 L 816.189 223.479 L 815.75 220.455 L 815.609 220.455 L 815.609 220.455 Q 814.168 222.301 812.647 223.065 L 812.647 223.065 L 812.647 223.065 Q 811.127 223.83 809.053 223.83 L 809.053 223.83 L 809.053 223.83 Q 806.24 223.83 804.676 222.389 L 804.676 222.389 L 804.676 222.389 Q 803.111 220.947 803.111 218.398 L 803.111 218.398 L 803.111 218.398 Q 803.111 215.604 805.44 214.057 L 805.44 214.057 L 805.44 214.057 Q 807.77 212.51 812.182 212.422 L 812.182 212.422 L 815.82 212.316 L 815.82 211.051 L 815.82 211.051 Q 815.82 208.326 814.713 206.938 L 814.713 206.938 L 814.713 206.938 Q 813.605 205.549 811.145 205.549 L 811.145 205.549 L 811.145 205.549 Q 808.49 205.549 805.643 207.025 L 805.643 207.025 L 804.992 205.514 L 804.992 205.514 Q 808.139 204.037 811.215 204.037 L 811.215 204.037 L 811.215 204.037 Q 814.361 204.037 815.917 205.672 L 815.917 205.672 L 815.917 205.672 Q 817.473 207.307 817.473 210.77 L 817.473 210.77 L 817.473 223.479 Z  M 809.158 222.248 L 809.158 222.248 L 809.158 222.248 Q 812.217 222.248 813.983 220.499 L 813.983 220.499 L 813.983 220.499 Q 815.75 218.75 815.75 215.639 L 815.75 215.639 L 815.75 213.758 L 812.41 213.898 L 812.41 213.898 Q 808.385 214.092 806.671 215.155 L 806.671 215.155 L 806.671 215.155 Q 804.957 216.219 804.957 218.469 L 804.957 218.469 L 804.957 218.469 Q 804.957 220.262 806.056 221.255 L 806.056 221.255 L 806.056 221.255 Q 807.154 222.248 809.158 222.248 Z  M 828.705 222.283 L 828.705 222.283 L 828.705 222.283 Q 830.357 222.283 831.588 222.002 L 831.588 222.002 L 831.588 223.408 L 831.588 223.408 Q 830.322 223.83 828.67 223.83 L 828.67 223.83 L 828.67 223.83 Q 826.139 223.83 824.935 222.477 L 824.935 222.477 L 824.935 222.477 Q 823.73 221.123 823.73 218.223 L 823.73 218.223 L 823.73 205.883 L 820.9 205.883 L 820.9 204.863 L 823.73 204.072 L 824.609 199.748 L 825.506 199.748 L 825.506 204.371 L 831.113 204.371 L 831.113 205.883 L 825.506 205.883 L 825.506 217.977 L 825.506 217.977 Q 825.506 220.174 826.279 221.229 L 826.279 221.229 L 826.279 221.229 Q 827.053 222.283 828.705 222.283 Z  M 837.459 204.371 L 837.459 223.479 L 835.719 223.479 L 835.719 204.371 L 837.459 204.371 Z  M 835.473 199.063 L 835.473 199.063 L 835.473 199.063 Q 835.473 197.375 836.58 197.375 L 836.58 197.375 L 836.58 197.375 Q 837.125 197.375 837.433 197.814 L 837.433 197.814 L 837.433 197.814 Q 837.74 198.254 837.74 199.063 L 837.74 199.063 L 837.74 199.063 Q 837.74 199.854 837.433 200.311 L 837.433 200.311 L 837.433 200.311 Q 837.125 200.768 836.58 200.768 L 836.58 200.768 L 836.58 200.768 Q 835.473 200.768 835.473 199.063 Z  M 859.66 213.898 L 859.66 213.898 L 859.66 213.898 Q 859.66 218.574 857.393 221.202 L 857.393 221.202 L 857.393 221.202 Q 855.125 223.83 851.135 223.83 L 851.135 223.83 L 851.135 223.83 Q 848.621 223.83 846.705 222.617 L 846.705 222.617 L 846.705 222.617 Q 844.789 221.404 843.77 219.137 L 843.77 219.137 L 843.77 219.137 Q 842.75 216.869 842.75 213.898 L 842.75 213.898 L 842.75 213.898 Q 842.75 209.223 845.018 206.612 L 845.018 206.612 L 845.018 206.612 Q 847.285 204.002 851.24 204.002 L 851.24 204.002 L 851.24 204.002 Q 855.178 204.002 857.419 206.647 L 857.419 206.647 L 857.419 206.647 Q 859.66 209.293 859.66 213.898 Z  M 844.578 213.898 L 844.578 213.898 L 844.578 213.898 Q 844.578 217.836 846.31 220.042 L 846.31 220.042 L 846.31 220.042 Q 848.041 222.248 851.205 222.248 L 851.205 222.248 L 851.205 222.248 Q 854.369 222.248 856.101 220.042 L 856.101 220.042 L 856.101 220.042 Q 857.832 217.836 857.832 213.898 L 857.832 213.898 L 857.832 213.898 Q 857.832 209.943 856.083 207.764 L 856.083 207.764 L 856.083 207.764 Q 854.334 205.584 851.17 205.584 L 851.17 205.584 L 851.17 205.584 Q 848.006 205.584 846.292 207.755 L 846.292 207.755 L 846.292 207.755 Q 844.578 209.926 844.578 213.898 Z  M 879.998 223.479 L 878.275 223.479 L 878.275 211.086 L 878.275 211.086 Q 878.275 208.203 877.063 206.894 L 877.063 206.894 L 877.063 206.894 Q 875.85 205.584 873.301 205.584 L 873.301 205.584 L 873.301 205.584 Q 869.873 205.584 868.282 207.315 L 868.282 207.315 L 868.282 207.315 Q 866.691 209.047 866.691 212.932 L 866.691 212.932 L 866.691 223.479 L 864.951 223.479 L 864.951 204.371 L 866.428 204.371 L 866.762 206.99 L 866.867 206.99 L 866.867 206.99 Q 868.73 204.002 873.494 204.002 L 873.494 204.002 L 873.494 204.002 Q 879.998 204.002 879.998 210.98 L 879.998 210.98 L 879.998 223.479 Z " fill-rule="evenodd" fill="rgb(255,255,255)"/><path d=" M 606.303 288.479 L 604.475 288.479 L 600.291 275.699 L 600.291 275.699 Q 599.887 274.398 599.254 271.885 L 599.254 271.885 L 599.148 271.885 L 598.779 273.186 L 597.988 275.734 L 593.734 288.479 L 592.012 288.479 L 586.545 269.371 L 588.408 269.371 L 591.467 280.445 L 591.467 280.445 Q 592.539 284.559 592.873 286.492 L 592.873 286.492 L 592.979 286.492 L 592.979 286.492 Q 594.016 282.379 594.49 281.025 L 594.49 281.025 L 598.428 269.371 L 600.01 269.371 L 603.754 280.99 L 603.754 280.99 Q 605.02 285.121 605.301 286.457 L 605.301 286.457 L 605.406 286.457 L 605.406 286.457 Q 605.547 285.314 606.813 280.34 L 606.813 280.34 L 609.73 269.371 L 611.488 269.371 L 606.303 288.479 Z  M 622.949 288.83 L 622.949 288.83 L 622.949 288.83 Q 618.783 288.83 616.454 286.264 L 616.454 286.264 L 616.454 286.264 Q 614.125 283.697 614.125 279.074 L 614.125 279.074 L 614.125 279.074 Q 614.125 274.504 616.375 271.753 L 616.375 271.753 L 616.375 271.753 Q 618.625 269.002 622.439 269.002 L 622.439 269.002 L 622.439 269.002 Q 625.814 269.002 627.766 271.357 L 627.766 271.357 L 627.766 271.357 Q 629.717 273.713 629.717 277.756 L 629.717 277.756 L 629.717 279.162 L 615.953 279.162 L 615.953 279.162 Q 615.988 283.1 617.79 285.174 L 617.79 285.174 L 617.79 285.174 Q 619.592 287.248 622.949 287.248 L 622.949 287.248 L 622.949 287.248 Q 624.584 287.248 625.823 287.02 L 625.823 287.02 L 625.823 287.02 Q 627.063 286.791 628.961 286.035 L 628.961 286.035 L 628.961 287.617 L 628.961 287.617 Q 627.344 288.32 625.973 288.575 L 625.973 288.575 L 625.973 288.575 Q 624.602 288.83 622.949 288.83 Z  M 622.439 270.549 L 622.439 270.549 L 622.439 270.549 Q 619.68 270.549 618.01 272.368 L 618.01 272.368 L 618.01 272.368 Q 616.34 274.188 616.059 277.615 L 616.059 277.615 L 627.871 277.615 L 627.871 277.615 Q 627.871 274.293 626.43 272.421 L 626.43 272.421 L 626.43 272.421 Q 624.988 270.549 622.439 270.549 Z  M 643.059 269.002 L 643.059 269.002 L 643.059 269.002 Q 647.066 269.002 649.097 271.524 L 649.097 271.524 L 649.097 271.524 Q 651.127 274.047 651.127 278.898 L 651.127 278.898 L 651.127 278.898 Q 651.127 283.662 648.991 286.246 L 648.991 286.246 L 648.991 286.246 Q 646.855 288.83 642.988 288.83 L 642.988 288.83 L 642.988 288.83 Q 640.949 288.83 639.314 287.986 L 639.314 287.986 L 639.314 287.986 Q 637.68 287.143 636.73 285.596 L 636.73 285.596 L 636.572 285.596 L 636.08 288.479 L 634.99 288.479 L 634.99 261.127 L 636.73 261.127 L 636.73 268 L 636.73 268 Q 636.73 269.547 636.66 270.848 L 636.66 270.848 L 636.607 272.342 L 636.73 272.342 L 636.73 272.342 Q 637.82 270.619 639.358 269.811 L 639.358 269.811 L 639.358 269.811 Q 640.896 269.002 643.059 269.002 Z  M 643.023 270.584 L 643.023 270.584 L 643.023 270.584 Q 639.648 270.584 638.189 272.518 L 638.189 272.518 L 638.189 272.518 Q 636.73 274.451 636.73 278.898 L 636.73 278.898 L 636.73 279.197 L 636.73 279.197 Q 636.73 283.521 638.251 285.402 L 638.251 285.402 L 638.251 285.402 Q 639.771 287.283 642.988 287.283 L 642.988 287.283 L 642.988 287.283 Q 646.117 287.283 647.699 285.095 L 647.699 285.095 L 647.699 285.095 Q 649.281 282.906 649.281 278.863 L 649.281 278.863 L 649.281 278.863 Q 649.281 270.584 643.023 270.584 Z  M 678.654 288.479 L 677.371 288.479 L 676.932 285.455 L 676.791 285.455 L 676.791 285.455 Q 675.35 287.301 673.829 288.065 L 673.829 288.065 L 673.829 288.065 Q 672.309 288.83 670.234 288.83 L 670.234 288.83 L 670.234 288.83 Q 667.422 288.83 665.857 287.389 L 665.857 287.389 L 665.857 287.389 Q 664.293 285.947 664.293 283.398 L 664.293 283.398 L 664.293 283.398 Q 664.293 280.604 666.622 279.057 L 666.622 279.057 L 666.622 279.057 Q 668.951 277.51 673.363 277.422 L 673.363 277.422 L 677.002 277.316 L 677.002 276.051 L 677.002 276.051 Q 677.002 273.326 675.895 271.938 L 675.895 271.938 L 675.895 271.938 Q 674.787 270.549 672.326 270.549 L 672.326 270.549 L 672.326 270.549 Q 669.672 270.549 666.824 272.025 L 666.824 272.025 L 666.174 270.514 L 666.174 270.514 Q 669.32 269.037 672.396 269.037 L 672.396 269.037 L 672.396 269.037 Q 675.543 269.037 677.099 270.672 L 677.099 270.672 L 677.099 270.672 Q 678.654 272.307 678.654 275.77 L 678.654 275.77 L 678.654 288.479 Z  M 670.34 287.248 L 670.34 287.248 L 670.34 287.248 Q 673.398 287.248 675.165 285.499 L 675.165 285.499 L 675.165 285.499 Q 676.932 283.75 676.932 280.639 L 676.932 280.639 L 676.932 278.758 L 673.592 278.898 L 673.592 278.898 Q 669.566 279.092 667.853 280.155 L 667.853 280.155 L 667.853 280.155 Q 666.139 281.219 666.139 283.469 L 666.139 283.469 L 666.139 283.469 Q 666.139 285.262 667.237 286.255 L 667.237 286.255 L 667.237 286.255 Q 668.336 287.248 670.34 287.248 Z  M 693.016 288.83 L 693.016 288.83 L 693.016 288.83 Q 688.604 288.83 686.582 285.525 L 686.582 285.525 L 686.459 285.525 L 686.512 287.002 L 686.512 287.002 Q 686.582 288.303 686.582 289.85 L 686.582 289.85 L 686.582 297.127 L 684.842 297.127 L 684.842 269.371 L 686.318 269.371 L 686.652 272.096 L 686.758 272.096 L 686.758 272.096 Q 688.727 269.002 693.051 269.002 L 693.051 269.002 L 693.051 269.002 Q 696.918 269.002 698.948 271.542 L 698.948 271.542 L 698.948 271.542 Q 700.979 274.082 700.979 278.934 L 700.979 278.934 L 700.979 278.934 Q 700.979 283.645 698.843 286.237 L 698.843 286.237 L 698.843 286.237 Q 696.707 288.83 693.016 288.83 Z  M 692.98 287.283 L 692.98 287.283 L 692.98 287.283 Q 695.916 287.283 697.524 285.104 L 697.524 285.104 L 697.524 285.104 Q 699.133 282.924 699.133 279.004 L 699.133 279.004 L 699.133 279.004 Q 699.133 270.584 693.051 270.584 L 693.051 270.584 L 693.051 270.584 Q 689.711 270.584 688.146 272.421 L 688.146 272.421 L 688.146 272.421 Q 686.582 274.258 686.582 278.406 L 686.582 278.406 L 686.582 278.969 L 686.582 278.969 Q 686.582 283.451 688.085 285.367 L 688.085 285.367 L 688.085 285.367 Q 689.588 287.283 692.98 287.283 Z  M 714.443 288.83 L 714.443 288.83 L 714.443 288.83 Q 710.031 288.83 708.01 285.525 L 708.01 285.525 L 707.887 285.525 L 707.939 287.002 L 707.939 287.002 Q 708.01 288.303 708.01 289.85 L 708.01 289.85 L 708.01 297.127 L 706.27 297.127 L 706.27 269.371 L 707.746 269.371 L 708.08 272.096 L 708.186 272.096 L 708.186 272.096 Q 710.154 269.002 714.479 269.002 L 714.479 269.002 L 714.479 269.002 Q 718.346 269.002 720.376 271.542 L 720.376 271.542 L 720.376 271.542 Q 722.406 274.082 722.406 278.934 L 722.406 278.934 L 722.406 278.934 Q 722.406 283.645 720.271 286.237 L 720.271 286.237 L 720.271 286.237 Q 718.135 288.83 714.443 288.83 Z  M 714.408 287.283 L 714.408 287.283 L 714.408 287.283 Q 717.344 287.283 718.952 285.104 L 718.952 285.104 L 718.952 285.104 Q 720.561 282.924 720.561 279.004 L 720.561 279.004 L 720.561 279.004 Q 720.561 270.584 714.479 270.584 L 714.479 270.584 L 714.479 270.584 Q 711.139 270.584 709.574 272.421 L 709.574 272.421 L 709.574 272.421 Q 708.01 274.258 708.01 278.406 L 708.01 278.406 L 708.01 278.969 L 708.01 278.969 Q 708.01 283.451 709.513 285.367 L 709.513 285.367 L 709.513 285.367 Q 711.016 287.283 714.408 287.283 Z  M 744.678 288.83 L 744.678 288.83 L 744.678 288.83 Q 740.582 288.83 738.262 286.246 L 738.262 286.246 L 738.262 286.246 Q 735.941 283.662 735.941 279.039 L 735.941 279.039 L 735.941 279.039 Q 735.941 274.293 738.35 271.647 L 738.35 271.647 L 738.35 271.647 Q 740.758 269.002 744.941 269.002 L 744.941 269.002 L 744.941 269.002 Q 747.42 269.002 749.688 269.863 L 749.688 269.863 L 749.213 271.41 L 749.213 271.41 Q 746.734 270.584 744.906 270.584 L 744.906 270.584 L 744.906 270.584 Q 741.391 270.584 739.58 272.755 L 739.58 272.755 L 739.58 272.755 Q 737.77 274.926 737.77 279.004 L 737.77 279.004 L 737.77 279.004 Q 737.77 282.871 739.58 285.06 L 739.58 285.06 L 739.58 285.06 Q 741.391 287.248 744.643 287.248 L 744.643 287.248 L 744.643 287.248 Q 747.244 287.248 749.477 286.316 L 749.477 286.316 L 749.477 287.934 L 749.477 287.934 Q 747.648 288.83 744.678 288.83 Z  M 761.676 269.002 L 761.676 269.002 L 761.676 269.002 Q 762.889 269.002 764.277 269.248 L 764.277 269.248 L 763.943 270.918 L 763.943 270.918 Q 762.748 270.619 761.465 270.619 L 761.465 270.619 L 761.465 270.619 Q 759.021 270.619 757.457 272.693 L 757.457 272.693 L 757.457 272.693 Q 755.893 274.768 755.893 277.932 L 755.893 277.932 L 755.893 288.479 L 754.152 288.479 L 754.152 269.371 L 755.629 269.371 L 755.805 272.816 L 755.928 272.816 L 755.928 272.816 Q 757.105 270.707 758.441 269.854 L 758.441 269.854 L 758.441 269.854 Q 759.777 269.002 761.676 269.002 Z  M 775.879 288.83 L 775.879 288.83 L 775.879 288.83 Q 771.713 288.83 769.384 286.264 L 769.384 286.264 L 769.384 286.264 Q 767.055 283.697 767.055 279.074 L 767.055 279.074 L 767.055 279.074 Q 767.055 274.504 769.305 271.753 L 769.305 271.753 L 769.305 271.753 Q 771.555 269.002 775.369 269.002 L 775.369 269.002 L 775.369 269.002 Q 778.744 269.002 780.695 271.357 L 780.695 271.357 L 780.695 271.357 Q 782.646 273.713 782.646 277.756 L 782.646 277.756 L 782.646 279.162 L 768.883 279.162 L 768.883 279.162 Q 768.918 283.1 770.72 285.174 L 770.72 285.174 L 770.72 285.174 Q 772.521 287.248 775.879 287.248 L 775.879 287.248 L 775.879 287.248 Q 777.514 287.248 778.753 287.02 L 778.753 287.02 L 778.753 287.02 Q 779.992 286.791 781.891 286.035 L 781.891 286.035 L 781.891 287.617 L 781.891 287.617 Q 780.273 288.32 778.902 288.575 L 778.902 288.575 L 778.902 288.575 Q 777.531 288.83 775.879 288.83 Z  M 775.369 270.549 L 775.369 270.549 L 775.369 270.549 Q 772.609 270.549 770.939 272.368 L 770.939 272.368 L 770.939 272.368 Q 769.27 274.188 768.988 277.615 L 768.988 277.615 L 780.801 277.615 L 780.801 277.615 Q 780.801 274.293 779.359 272.421 L 779.359 272.421 L 779.359 272.421 Q 777.918 270.549 775.369 270.549 Z  M 800.805 288.479 L 799.521 288.479 L 799.082 285.455 L 798.941 285.455 L 798.941 285.455 Q 797.5 287.301 795.979 288.065 L 795.979 288.065 L 795.979 288.065 Q 794.459 288.83 792.385 288.83 L 792.385 288.83 L 792.385 288.83 Q 789.572 288.83 788.008 287.389 L 788.008 287.389 L 788.008 287.389 Q 786.443 285.947 786.443 283.398 L 786.443 283.398 L 786.443 283.398 Q 786.443 280.604 788.772 279.057 L 788.772 279.057 L 788.772 279.057 Q 791.102 277.51 795.514 277.422 L 795.514 277.422 L 799.152 277.316 L 799.152 276.051 L 799.152 276.051 Q 799.152 273.326 798.045 271.938 L 798.045 271.938 L 798.045 271.938 Q 796.938 270.549 794.477 270.549 L 794.477 270.549 L 794.477 270.549 Q 791.822 270.549 788.975 272.025 L 788.975 272.025 L 788.324 270.514 L 788.324 270.514 Q 791.471 269.037 794.547 269.037 L 794.547 269.037 L 794.547 269.037 Q 797.693 269.037 799.249 270.672 L 799.249 270.672 L 799.249 270.672 Q 800.805 272.307 800.805 275.77 L 800.805 275.77 L 800.805 288.479 Z  M 792.49 287.248 L 792.49 287.248 L 792.49 287.248 Q 795.549 287.248 797.315 285.499 L 797.315 285.499 L 797.315 285.499 Q 799.082 283.75 799.082 280.639 L 799.082 280.639 L 799.082 278.758 L 795.742 278.898 L 795.742 278.898 Q 791.717 279.092 790.003 280.155 L 790.003 280.155 L 790.003 280.155 Q 788.289 281.219 788.289 283.469 L 788.289 283.469 L 788.289 283.469 Q 788.289 285.262 789.388 286.255 L 789.388 286.255 L 789.388 286.255 Q 790.486 287.248 792.49 287.248 Z  M 812.037 287.283 L 812.037 287.283 L 812.037 287.283 Q 813.689 287.283 814.92 287.002 L 814.92 287.002 L 814.92 288.408 L 814.92 288.408 Q 813.654 288.83 812.002 288.83 L 812.002 288.83 L 812.002 288.83 Q 809.471 288.83 808.267 287.477 L 808.267 287.477 L 808.267 287.477 Q 807.063 286.123 807.063 283.223 L 807.063 283.223 L 807.063 270.883 L 804.232 270.883 L 804.232 269.863 L 807.063 269.072 L 807.941 264.748 L 808.838 264.748 L 808.838 269.371 L 814.445 269.371 L 814.445 270.883 L 808.838 270.883 L 808.838 282.977 L 808.838 282.977 Q 808.838 285.174 809.611 286.229 L 809.611 286.229 L 809.611 286.229 Q 810.385 287.283 812.037 287.283 Z  M 820.791 269.371 L 820.791 288.479 L 819.051 288.479 L 819.051 269.371 L 820.791 269.371 Z  M 818.805 264.063 L 818.805 264.063 L 818.805 264.063 Q 818.805 262.375 819.912 262.375 L 819.912 262.375 L 819.912 262.375 Q 820.457 262.375 820.765 262.814 L 820.765 262.814 L 820.765 262.814 Q 821.072 263.254 821.072 264.063 L 821.072 264.063 L 821.072 264.063 Q 821.072 264.854 820.765 265.311 L 820.765 265.311 L 820.765 265.311 Q 820.457 265.768 819.912 265.768 L 819.912 265.768 L 819.912 265.768 Q 818.805 265.768 818.805 264.063 Z  M 842.992 278.898 L 842.992 278.898 L 842.992 278.898 Q 842.992 283.574 840.725 286.202 L 840.725 286.202 L 840.725 286.202 Q 838.457 288.83 834.467 288.83 L 834.467 288.83 L 834.467 288.83 Q 831.953 288.83 830.037 287.617 L 830.037 287.617 L 830.037 287.617 Q 828.121 286.404 827.102 284.137 L 827.102 284.137 L 827.102 284.137 Q 826.082 281.869 826.082 278.898 L 826.082 278.898 L 826.082 278.898 Q 826.082 274.223 828.35 271.612 L 828.35 271.612 L 828.35 271.612 Q 830.617 269.002 834.572 269.002 L 834.572 269.002 L 834.572 269.002 Q 838.51 269.002 840.751 271.647 L 840.751 271.647 L 840.751 271.647 Q 842.992 274.293 842.992 278.898 Z  M 827.91 278.898 L 827.91 278.898 L 827.91 278.898 Q 827.91 282.836 829.642 285.042 L 829.642 285.042 L 829.642 285.042 Q 831.373 287.248 834.537 287.248 L 834.537 287.248 L 834.537 287.248 Q 837.701 287.248 839.433 285.042 L 839.433 285.042 L 839.433 285.042 Q 841.164 282.836 841.164 278.898 L 841.164 278.898 L 841.164 278.898 Q 841.164 274.943 839.415 272.764 L 839.415 272.764 L 839.415 272.764 Q 837.666 270.584 834.502 270.584 L 834.502 270.584 L 834.502 270.584 Q 831.338 270.584 829.624 272.755 L 829.624 272.755 L 829.624 272.755 Q 827.91 274.926 827.91 278.898 Z  M 863.33 288.479 L 861.607 288.479 L 861.607 276.086 L 861.607 276.086 Q 861.607 273.203 860.395 271.894 L 860.395 271.894 L 860.395 271.894 Q 859.182 270.584 856.633 270.584 L 856.633 270.584 L 856.633 270.584 Q 853.205 270.584 851.614 272.315 L 851.614 272.315 L 851.614 272.315 Q 850.023 274.047 850.023 277.932 L 850.023 277.932 L 850.023 288.479 L 848.283 288.479 L 848.283 269.371 L 849.76 269.371 L 850.094 271.99 L 850.199 271.99 L 850.199 271.99 Q 852.063 269.002 856.826 269.002 L 856.826 269.002 L 856.826 269.002 Q 863.33 269.002 863.33 275.98 L 863.33 275.98 L 863.33 288.479 Z  M 869.166 287.107 L 869.166 287.107 L 869.166 287.107 Q 869.166 285.385 870.572 285.385 L 870.572 285.385 L 870.572 285.385 Q 872.014 285.385 872.014 287.107 L 872.014 287.107 L 872.014 287.107 Q 872.014 288.83 870.572 288.83 L 870.572 288.83 L 870.572 288.83 Q 869.166 288.83 869.166 287.107 Z " fill-rule="evenodd" fill="rgb(255,255,255)"/></svg>