<?xml version="1.0" standalone="no"?><!-- Generator: Gravit.io --><svg xmlns="http://www.w3.org/2000/svg" xmlns:xlink="http://www.w3.org/1999/xlink" style="isolation:isolate" viewBox="0 0 1024 512" width="1024" height="512"><rect x="0" y="0" width="1024" height="512" transform="matrix(1,0,0,1,0,0)" fill="rgb(51,153,51)"/><g id="null"><path d=" M 367.463 211.301 L 226.107 352.657 Q 195.164 383.6 165.978 381.843 Q 136.793 380.084 111.475 354.767 Q 86.158 329.449 84.399 300.264 Q 82.641 271.078 113.585 240.134 L 254.941 98.779 L 227.162 71 L 85.806 212.356 Q 44.313 253.848 46.072 297.803 Q 47.829 341.757 86.333 380.26 Q 124.837 418.764 168.615 420.346 Q 212.394 421.929 253.886 380.436 L 395.242 239.08 L 367.463 211.301 Z " fill="rgb(255,255,255)"/><path d=" M 303.731 417.222 L 445.087 275.866 Q 476.03 244.922 474.273 215.736 Q 472.514 186.551 447.197 161.234 Q 421.879 135.916 392.694 134.158 Q 363.508 132.4 332.565 163.343 L 191.209 304.7 L 163.43 276.92 L 304.786 135.564 Q 346.278 94.072 390.232 95.83 Q 434.187 97.588 472.69 136.092 Q 511.194 174.595 512.776 218.374 Q 514.358 262.152 472.865 303.645 L 331.51 445 L 303.731 417.222 Z " fill="rgb(255,255,255)"/><rect x="316.999" y="185.749" width="35.187" height="35.187" transform="matrix(0.707,0.707,-0.707,0.707,241.785,-177.035)" fill="rgb(255,255,255)"/><rect x="245.317" y="115.258" width="35.187" height="35.187" transform="matrix(0.707,0.707,-0.707,0.707,170.945,-146.994)" fill="rgb(255,255,255)"/><rect x="206.562" y="296.209" width="35.187" height="35.187" transform="matrix(0.707,0.707,-0.707,0.707,287.546,-66.591)" fill="rgb(255,255,255)"/><rect x="277.068" y="365.527" width="35.187" height="35.187" transform="matrix(0.707,0.707,-0.707,0.707,357.211,-96.144)" fill="rgb(255,255,255)"/></g><g transform="matrix(1,0,0,1,584,71)"><text transform="matrix(1,0,0,1,0,51.305)" style="font-family:&quot;Open Sans&quot;;font-weight:400;font-size:48px;font-style:normal;fill:#FFFFFF;stroke:none;">UniteJS</text></g><g transform="matrix(1,0,0,1,584,379)"><text transform="matrix(1,0,0,1,0,25.652)" style="font-family:&quot;Open Sans&quot;;font-weight:400;font-size:24px;font-style:normal;fill:#FFFFFF;stroke:none;">@unitejs</text></g><g transform="matrix(1,0,0,1,584,424.658)"><text transform="matrix(1,0,0,1,0,25.652)" style="font-family:&quot;Open Sans&quot;;font-weight:400;font-size:24px;font-style:normal;fill:#FFFFFF;stroke:none;">http://unitejs.com</text></g><g transform="matrix(1,0,0,1,584,185)"><text transform="matrix(1,0,0,1,0,38.479)" style="font-family:&quot;Open Sans&quot;;font-weight:300;font-size:36px;font-style:normal;fill:#FFFFFF;stroke:none;">Zero configuration</text></g><g transform="matrix(1,0,0,1,586,250)"><text transform="matrix(1,0,0,1,0,38.479)" style="font-family:&quot;Open Sans&quot;;font-weight:300;font-size:36px;font-style:normal;fill:#FFFFFF;stroke:none;">web app creation.</text></g></svg>