<?xml version="1.0" standalone="no"?><!-- Generator: Gravit.io --><svg xmlns="http://www.w3.org/2000/svg" xmlns:xlink="http://www.w3.org/1999/xlink" style="isolation:isolate" viewBox="0 0 800 800" width="800" height="800"><rect x="0" y="0" width="800" height="800" transform="matrix(1,0,0,1,0,0)" fill="rgb(51,153,51)"/><g id="null"><path d=" M 532.022 329.976 L 320.064 541.934 Q 273.665 588.333 229.902 585.697 Q 186.14 583.061 148.177 545.098 Q 110.215 507.135 107.578 463.373 Q 104.942 419.61 151.341 373.212 L 363.299 161.254 L 321.645 119.6 L 109.687 331.558 Q 47.471 393.775 50.107 459.682 Q 52.743 525.589 110.478 583.324 Q 168.213 641.059 233.857 643.432 Q 299.501 645.804 361.717 583.588 L 573.675 371.63 L 532.022 329.976 Z " fill="rgb(255,255,255)"/><path d=" M 436.458 638.746 L 648.416 426.788 Q 694.814 380.39 692.178 336.627 Q 689.542 292.865 651.579 254.902 Q 613.616 216.939 569.854 214.303 Q 526.092 211.667 479.693 258.066 L 267.735 470.024 L 226.081 428.37 L 438.039 216.412 Q 500.256 154.196 566.163 156.832 Q 632.071 159.468 689.805 217.203 Q 747.54 274.938 749.913 340.582 Q 752.286 406.225 690.069 468.442 L 478.111 680.4 L 436.458 638.746 Z " fill="rgb(255,255,255)"/><rect x="456.37" y="291.742" width="52.77" height="52.77" transform="matrix(0.707,0.707,-0.707,0.707,366.345,-248.182)" fill="rgb(255,255,255)"/><rect x="348.886" y="186.02" width="52.77" height="52.77" transform="matrix(0.707,0.707,-0.707,0.707,260.107,-203.145)" fill="rgb(255,255,255)"/><rect x="290.739" y="457.373" width="52.77" height="52.77" transform="matrix(0.707,0.707,-0.707,0.707,434.951,-82.551)" fill="rgb(255,255,255)"/><rect x="396.461" y="561.333" width="52.77" height="52.77" transform="matrix(0.707,0.707,-0.707,0.707,539.427,-126.859)" fill="rgb(255,255,255)"/></g></svg>