<?xml version="1.0" standalone="no"?><!-- Generator: Gravit.io --><svg xmlns="http://www.w3.org/2000/svg" xmlns:xlink="http://www.w3.org/1999/xlink" style="isolation:isolate" viewBox="0 0 200 200" width="200" height="200"><defs><clipPath id="_clipPath_GDSnXHLMdYlkSnwNJow9d2QolIrSsCTd"><rect width="200" height="200"/></clipPath></defs><g clip-path="url(#_clipPath_GDSnXHLMdYlkSnwNJow9d2QolIrSsCTd)"><clipPath id="_clipPath_TPzvhZVTwNbBSnW4vYiWDKzbMn3zWXsp"><rect x="5.6" y="0" width="188.8" height="200" transform="matrix(1,0,0,1,0,0)" fill="rgb(255,255,255)"/></clipPath><g clip-path="url(#_clipPath_TPzvhZVTwNbBSnW4vYiWDKzbMn3zWXsp)"><g id="Group"><path d=" M 99.699 0 L 5.6 33.116 L 20.47 156.4 L 99.798 200 L 179.536 155.809 L 194.4 32.529 L 99.699 0 Z " fill="rgb(179,179,179)"/><path d=" M 185.015 39.654 L 99.479 10.486 L 99.479 189.583 L 171.161 149.911 L 185.014 39.654 L 185.015 39.654 Z " fill="rgb(166,18,13)"/><path d=" M 16.159 40.18 L 28.902 150.438 L 99.477 189.583 L 99.477 10.483 L 16.16 40.179 L 16.159 40.18 Z " fill="rgb(221,27,22)"/><path d=" M 123.024 105.828 L 99.479 116.838 L 74.663 116.838 L 62.997 146.017 L 41.3 146.418 L 99.479 16.99 L 123.024 105.829 L 123.024 105.828 Z  M 120.748 100.285 L 99.636 58.488 L 82.317 99.565 L 99.478 99.565 L 120.748 100.285 L 120.748 100.285 Z " fill="rgb(242,242,242)"/><path d=" M 99.478 16.989 L 99.634 58.488 L 119.284 99.597 L 99.523 99.597 L 99.478 116.812 L 126.804 116.838 L 139.576 146.422 L 160.337 146.807 L 99.478 16.989 L 99.478 16.989 Z " fill="rgb(179,179,179)"/></g></g></g></svg>