<?xml version="1.0" standalone="no"?><!-- Generator: Gravit.io --><svg xmlns="http://www.w3.org/2000/svg" xmlns:xlink="http://www.w3.org/1999/xlink" style="isolation:isolate" viewBox="0 0 200 200" width="200" height="200"><defs><clipPath id="_clipPath_dgFR20KptfvCqkKmbsR3uYiDv5QYV1Q5"><rect width="200" height="200"/></clipPath></defs><g clip-path="url(#_clipPath_dgFR20KptfvCqkKmbsR3uYiDv5QYV1Q5)"><linearGradient id="_lgradient_0" x1="0%" y1="50%" x2="76.46009605391897%" y2="114.45039729455114%"><stop offset="0%" stop-opacity="1" style="stop-color:rgb(153,95,172)"/><stop offset="100%" stop-opacity="1" style="stop-color:rgb(179,106,182)"/></linearGradient><path d=" M 130.97 36.091 L 112.408 48.479 L 93.286 19.822 L 111.848 7.434 L 130.97 36.091 L 130.97 36.091 L 130.97 36.091 Z " fill="url(#_lgradient_0)"/><linearGradient id="_lgradient_1" x1="0%" y1="50%" x2="62.03496078648191%" y2="128.43254197219193%"><stop offset="0%" stop-opacity="1" style="stop-color:rgb(160,32,120)"/><stop offset="46.651317740230816%" stop-opacity="1" style="stop-color:rgb(119,50,122)"/><stop offset="78.49400102023081%" stop-opacity="1" style="stop-color:rgb(110,77,155)"/></linearGradient><path d=" M 146.061 122.182 L 177.776 169.707 L 139.996 194.92 L 108.281 147.393 L 102.748 139.103 L 140.529 113.891 L 146.061 122.182 L 146.061 122.182 L 146.061 122.182 Z " fill="url(#_lgradient_1)"/><linearGradient id="_lgradient_2" x1="0%" y1="50%" x2="55.116582064806764%" y2="133.43957323412806%"><stop offset="0%" stop-opacity="1" style="stop-color:rgb(129,85,163)"/><stop offset="100%" stop-opacity="1" style="stop-color:rgb(182,107,183)"/></linearGradient><path d=" M 98.476 153.936 L 105.458 164.4 L 76.702 183.59 L 64.186 164.836 L 70.468 160.644 L 92.943 145.646 L 98.476 153.936 L 98.476 153.936 L 98.476 153.936 Z " fill="url(#_lgradient_2)"/><linearGradient id="_lgradient_3" x1="0%" y1="50%" x2="77.37865634265928%" y2="113.34464099357291%"><stop offset="0%" stop-opacity="1" style="stop-color:rgb(128,84,162)"/><stop offset="100%" stop-opacity="1" style="stop-color:rgb(183,107,184)"/></linearGradient><path d=" M 161.772 99.714 L 169.838 94.332 L 182.353 113.086 L 163.789 125.475 L 156.806 115.011 L 167.305 108.005 L 161.772 99.714 L 161.772 99.714 L 161.772 99.714 L 161.772 99.714 Z  M 156.806 115.011 L 151.274 106.72 L 161.772 99.714 L 167.305 108.005 L 156.806 115.011 L 156.806 115.011 L 156.806 115.011 L 156.806 115.011 Z " fill="url(#_lgradient_3)"/><linearGradient id="_lgradient_4" x1="0%" y1="50%" x2="75.00491358741513%" y2="116.13821087498806%"><stop offset="0%" stop-opacity="1" style="stop-color:rgb(163,99,176)"/><stop offset="100%" stop-opacity="1" style="stop-color:rgb(177,105,181)"/></linearGradient><path d=" M 31.603 102.403 L 25.321 106.596 L 6.198 77.939 L 34.954 58.748 L 48.359 78.836 L 25.885 93.834 L 48.359 78.836 L 54.078 87.406 L 31.603 102.403 L 31.603 102.403 L 31.603 102.403 Z " fill="url(#_lgradient_4)"/><linearGradient id="_lgradient_5" x1="0%" y1="50%" x2="61.94208029486666%" y2="128.5059149920838%"><stop offset="20.987508516987855%" stop-opacity="1" style="stop-color:rgb(237,44,137)"/><stop offset="49.05357272498786%" stop-opacity="1" style="stop-color:rgb(205,15,126)"/><stop offset="79.12435580498786%" stop-opacity="1" style="stop-color:rgb(179,23,119)"/><stop offset="100%" stop-opacity="1" style="stop-color:rgb(143,39,121)"/><stop offset="100%" stop-opacity="1" style="stop-color:rgb(115,63,138)"/></linearGradient><path d=" M 101.664 55.651 L 63.882 80.863 L 58.164 72.293 L 26.745 25.212 L 64.527 0 L 95.945 47.08 L 101.664 55.651 Z " fill="url(#_lgradient_5)"/><linearGradient id="_lgradient_6" x1="0%" y1="50%" x2="70.12556899997516%" y2="121.29098521152393%"><stop offset="0%" stop-opacity="1" style="stop-color:rgb(157,96,173)"/><stop offset="100%" stop-opacity="1" style="stop-color:rgb(179,106,182)"/></linearGradient><path d=" M 122.907 41.475 L 112.409 48.48 L 106.689 39.911 L 93.285 19.823 L 111.849 7.435 L 130.973 36.092 L 122.907 41.475 L 122.907 41.475 L 122.907 41.475 Z " fill="url(#_lgradient_6)"/><path d=" M 76.001 168.934 L 70.468 160.644 L 92.943 145.646 L 98.476 153.936 L 76.001 168.934 L 76.001 168.934 L 76.001 168.934 Z " fill="rgb(113,72,150)"/><path d=" M 156.806 115.011 L 151.274 106.72 L 161.772 99.714 L 167.305 108.005 L 156.806 115.011 L 156.806 115.011 L 156.806 115.011 Z " fill="rgb(111,71,149)"/><path d=" M 31.603 102.403 L 25.885 93.834 L 48.359 78.836 L 54.078 87.406 L 31.603 102.403 L 31.603 102.403 L 31.603 102.403 Z " fill="rgb(136,81,159)"/><path d=" M 112.409 48.48 L 106.689 39.911 L 117.188 32.905 L 122.907 41.475 L 112.409 48.48 L 112.409 48.48 L 112.409 48.48 Z " fill="rgb(133,80,158)"/><path d=" M 146.061 122.182 L 108.281 147.393 L 102.748 139.103 L 140.529 113.891 L 146.061 122.182 L 146.061 122.182 L 146.061 122.182 Z " fill="rgb(141,22,106)"/><path d=" M 95.945 47.08 L 101.664 55.651 L 63.882 80.863 L 58.164 72.293 L 95.945 47.08 L 95.945 47.08 L 95.945 47.08 Z " fill="rgb(167,13,111)"/><path d=" M 20.887 40.233 L 28.018 50.919 L 17.332 58.05 L 10.201 47.364 L 20.887 40.233 L 20.887 40.233 Z " fill="rgb(158,97,173)"/><path d=" M 59.398 168.339 L 66.529 179.025 L 55.843 186.156 L 48.711 175.47 L 59.398 168.339 L 59.398 168.339 Z " fill="rgb(128,83,163)"/><linearGradient id="_lgradient_7" x1="0%" y1="50%" x2="78.35351851892783%" y2="-12.134741777076963%"><stop offset="11.009986234223664%" stop-opacity="1" style="stop-color:rgb(110,77,155)"/><stop offset="21.974194356223663%" stop-opacity="1" style="stop-color:rgb(119,50,122)"/><stop offset="52.51734555322366%" stop-opacity="1" style="stop-color:rgb(179,23,119)"/><stop offset="72.87944635122366%" stop-opacity="1" style="stop-color:rgb(205,15,126)"/><stop offset="89.32575853422367%" stop-opacity="1" style="stop-color:rgb(237,44,137)"/></linearGradient><path d=" M 31.286 179.101 L 0 131.838 L 167.194 20.011 L 200 66.52 L 31.286 179.101 L 31.286 179.101 L 31.286 179.101 L 31.286 179.101 Z " fill="url(#_lgradient_7)"/></g></svg>