<?xml version="1.0" standalone="no"?><!-- Generator: Gravit.io --><svg xmlns="http://www.w3.org/2000/svg" xmlns:xlink="http://www.w3.org/1999/xlink" style="isolation:isolate" viewBox="0 0 200 200" width="200" height="200"><defs><clipPath id="_clipPath_Zz3I48Q7RQl82nu6Qrn5rT64hmMxuJ4l"><rect width="200" height="200"/></clipPath></defs><g clip-path="url(#_clipPath_Zz3I48Q7RQl82nu6Qrn5rT64hmMxuJ4l)"><g id="Group"><path d=" M 86.351 15.709 C 82.883 15.773 78.543 17.936 75.439 17.189 C 74.2 16.891 72.686 16.762 71.204 16.843 C 71.177 16.844 71.151 16.841 71.125 16.843 C 69.618 16.932 68.147 17.25 67.062 17.913 C 67.018 17.941 66.966 17.966 66.921 17.992 C 66.878 18.055 66.832 18.112 66.779 18.165 C 65.338 19.606 62.152 19.738 60.67 21.22 C 59.459 22.431 58.337 24.749 57.001 26.826 C 56.988 26.845 56.982 26.869 56.969 26.889 C 52.216 32.431 48.422 39.25 47.081 44.823 C 45.978 49.403 45.993 55.588 44.183 60.144 C 43.677 61.418 41.578 68.472 43.207 69.844 C 44.317 70.778 49.046 71.493 50.435 69.844 C 51.182 68.956 58.037 66.737 60.181 64.191 C 62.706 61.193 64.009 56.014 65.74 51.657 C 66.015 50.964 66.37 50.228 66.779 49.5 C 67.761 51.402 68.54 52.955 68.952 53.909 C 69.809 55.895 70.752 58.642 71.534 61.577 C 69.838 64.176 70.545 67.731 71.77 69.356 C 66.811 70.9 69.173 76.236 68.983 76.426 C 68.657 76.752 67.622 77.189 67.204 77.607 C 66.687 78.124 66.606 79.203 66.606 79.984 C 66.606 80.738 66.701 81.408 66.842 82 C 62.329 93.352 58.07 107.562 52.686 115.224 C 51.137 115.93 49.552 116.537 47.695 116.909 C 44.076 117.813 34.93 119.606 27.225 122.199 C 26.891 122.644 26.501 123.081 26.06 123.522 C 25.296 124.285 23.769 124.286 23.005 125.049 C 22.411 125.643 20.56 124.975 19.966 125.569 C 18.204 127.331 15.603 128.246 12.833 129.631 C 12.526 129.785 11.541 129.396 11.306 129.631 C 10.047 130.89 7.794 131.616 6.724 132.686 C 4.629 134.78 2.874 137.056 0.614 139.315 C -1.631 141.56 2.948 147.743 3.669 148.464 C 5.791 150.585 9.688 150.924 11.81 153.046 C 12.702 153.938 15.695 152.745 16.77 153.455 C 17.047 153.494 17.295 153.545 17.462 153.628 C 20.589 155.191 26.721 156.347 30.421 157.581 C 35.522 159.281 39.568 163.823 44.829 165.139 C 48.834 166.14 53.383 166.673 57.426 168.02 C 59.116 168.583 61.168 168.197 62.811 168.744 C 65.883 169.768 68.656 171.039 71.456 171.972 C 72.425 172.296 73.706 171.724 74.699 171.972 C 76.934 172.531 79.35 172.693 81.533 173.421 C 85.42 174.717 90.605 172.125 94.492 173.421 C 97.054 174.275 113.002 172.909 114.285 171.626 C 115.228 170.683 118.813 171.881 120.048 171.264 C 121.119 170.728 124.372 171.254 125.086 170.539 C 126.931 168.695 130.717 168.614 133.353 167.296 C 134.462 166.741 136.171 167.509 137.321 166.934 C 137.983 166.603 139.327 167.01 140.785 167.642 C 143.56 167.584 145.695 167.296 148.469 167.296 C 151.767 167.296 156.32 165.73 161.145 163.359 C 166.484 162.157 173.011 160.768 173.316 160.462 C 175.636 158.142 181.802 158.81 184.102 156.51 C 185.732 154.88 187.826 154.219 189.503 152.542 C 190.998 151.047 193.051 149.336 195.203 147.535 C 195.578 146.49 196.538 145.507 197.424 144.622 C 197.795 144.25 200.417 136.578 199.943 135.631 C 199.075 133.895 197.642 132.46 195.991 131.127 C 195.478 130.952 195.086 130.773 194.904 130.592 C 193.14 128.828 188.914 128.554 187.346 126.986 C 184.821 124.461 181.026 122.192 176.497 120.672 C 175.549 120.202 174.661 119.702 174.025 119.066 C 173.218 118.259 168.557 117.229 167.191 116.546 C 166.457 116.179 164.858 116.748 164.31 116.2 C 162.98 114.87 157.407 113.923 153.382 112.641 C 152.795 112.679 151.853 112.231 151.681 112.059 C 151.56 111.938 148.44 111.478 147.414 110.453 C 147.298 110.336 146.879 106.155 146.879 105.634 C 146.879 105.442 146.413 104.668 146.69 104.391 C 146.733 104.347 146.775 104.297 146.816 104.249 C 144.953 92.768 143.528 80.091 142.187 78.961 C 140.194 77.283 139.087 68.02 136.896 66.175 C 134.605 64.246 133.171 62.136 131.401 60.491 C 131.4 60.486 131.402 60.48 131.401 60.475 C 130.735 56.815 129.47 52.702 129.07 52.366 C 128.421 51.819 129.405 49.338 128.755 48.791 C 126.734 47.089 124.101 37.083 122.205 35.486 C 119.722 33.395 118.5 30.15 116.143 28.164 C 110.317 23.258 100.639 15.958 89.941 16.512 C 89.481 16.382 89.034 16.227 88.603 16.055 C 87.923 15.785 87.152 15.694 86.351 15.709 L 86.351 15.709 Z " fill="rgb(60,105,145)"/><path d=" M 84.042 79.243 C 83.143 79.081 82.264 79.071 81.575 79.3 C 80.427 79.681 78.577 78.779 77.378 78.995 C 72.847 79.813 69.294 81.041 68.683 82.564 C 75.408 80.636 82.874 84.94 85.933 89.029 C 87.205 90.729 85.243 93.305 85.936 95.391 C 86.092 95.863 86.218 98.886 85.673 99.293 C 84.535 100.144 84.648 103.115 83.707 104.47 C 81.493 107.661 79.561 109.992 77.68 112.702 C 75.739 115.497 70.552 116.057 67.656 117.018 C 67.017 117.23 66.211 116.789 65.537 117.013 C 65.377 117.065 65.192 117.075 65.006 117.049 C 65.071 117.122 65.147 117.192 65.2 117.264 C 65.444 117.591 66.635 117.28 66.983 117.521 C 69.233 119.083 78.136 118.484 80.604 117.665 C 82.14 117.155 83.565 116.402 85.101 115.892 C 87.07 115.239 89.009 112.176 90.424 110.599 C 95.289 105.175 97.512 95.781 95.106 88.531 C 93.896 84.887 90.73 82.703 88.035 80.832 C 87.113 80.192 85.539 79.513 84.042 79.243 L 84.042 79.243 Z " fill="rgb(230,179,90)"/><path d=" M 94.893 72.242 C 94.604 72.232 94.563 75.068 94.54 76.42 C 94.404 76.428 94.41 76.599 94.447 76.792 C 92.985 77.441 89.802 78.742 90.045 79.002 C 90.057 79.008 90.058 79.016 90.064 79.021 C 89.949 79.026 89.828 79.065 89.822 79.225 C 89.811 79.435 90.244 79.236 90.454 79.243 C 90.793 79.255 93.753 80.346 94.93 80.841 C 95.076 81.959 95.506 82.627 95.506 83.905 C 95.506 84.702 95.663 85.799 95.71 85.799 C 95.727 85.799 95.759 85.775 95.784 85.762 C 95.818 85.9 95.857 85.982 95.914 85.929 C 96.145 85.713 96.565 85.133 96.991 84.481 C 97.009 84.453 97.029 84.435 97.046 84.406 C 97.797 83.477 98.654 82.287 99.386 81.212 C 100.806 81.419 102.107 81.583 102.432 81.583 C 102.588 81.583 107.984 82.511 106.425 80.952 C 106.331 80.857 106.22 80.776 106.11 80.692 C 106.144 80.665 106.164 80.636 106.165 80.599 C 106.176 80.298 103.164 78.914 102.673 78.389 C 102.436 78.136 102.093 77.973 101.856 77.72 C 101.794 77.654 101.911 77.468 102.097 77.2 L 102.097 77.182 C 102.516 76.719 102.963 76.242 103.286 75.919 C 103.441 75.764 104.313 74.133 103.486 74.24 C 102.928 74.313 101.105 74.428 98.718 75.127 C 98.718 75.127 98.074 74.284 98.069 74.287 C 97.551 74.075 96.083 72.281 94.891 72.241 L 94.893 72.242 Z " fill="rgb(230,179,90)"/><path d=" M 81.415 71.821 C 81.243 71.904 80.982 72.241 80.899 72.069 C 80.816 71.898 81.587 71.738 81.415 71.821 C 80.902 72.068 78.918 73.855 79.649 74.42 C 80.251 74.885 82.481 74.016 83.427 74.346 C 83.568 74.395 85.14 76.807 85.386 76.103 C 85.788 74.954 85.291 73 85.303 72.965 C 85.488 72.435 86.94 72.652 87.294 72.481 C 87.588 72.34 88.182 72.09 88.264 71.855 C 88.286 71.791 88.302 71.603 88.33 71.664 C 88.355 71.713 87.943 71.314 87.442 71.139 C 86.693 70.877 85.934 71.041 85.398 70.854 C 85.15 70.767 85.448 69.311 85.358 69.125 C 85.063 68.513 84.876 67.795 84.928 67.902 C 85.074 68.206 84.294 68.2 84.088 68.466 C 83.831 68.799 83.158 69.925 82.722 69.919 C 82.201 69.911 80.112 69.414 79.971 69.816 C 79.96 69.838 81.274 71.138 81.415 71.821 L 81.415 71.821 Z " fill="rgb(230,179,90)"/><path d=" M 101.61 92.09 C 101.47 91.96 101.061 91.84 101.191 91.7 C 101.32 91.56 101.75 92.22 101.61 92.09 C 101.193 91.702 98.806 90.507 98.546 91.393 C 98.333 92.123 99.955 93.882 99.992 94.884 C 100.004 95.034 98.325 97.376 99.071 97.349 C 100.287 97.304 101.925 96.129 101.962 96.128 C 102.523 96.107 102.85 97.538 103.138 97.806 C 103.377 98.027 103.827 98.489 104.075 98.48 C 104.143 98.477 104.323 98.423 104.277 98.472 C 104.24 98.512 104.462 97.983 104.442 97.453 C 104.412 96.66 103.984 96.013 103.962 95.445 C 103.951 95.183 105.418 94.93 105.558 94.778 C 106.02 94.281 106.62 93.845 106.539 93.932 C 106.31 94.179 106.032 93.45 105.708 93.355 C 105.305 93.237 104.01 93.021 103.857 92.613 C 103.674 92.125 103.376 89.998 102.951 90.014 C 102.927 90.015 102.194 91.709 101.61 92.089 L 101.61 92.09 Z " fill="rgb(230,179,90)"/><path d=" M 147.54 110.925 C 147.133 112.325 144.583 116.811 143.509 117.885 C 142.128 119.266 140.941 120.705 139.73 121.916 C 138.872 122.774 136.424 124.97 135.699 125.695 C 134.124 127.27 133.201 126.681 131.416 128.466 C 130.532 129.351 128.751 129.368 127.889 130.23 C 127.11 131.009 120.859 131.478 119.323 132.245 C 118.952 132.431 117.842 131.963 117.56 132.245 C 116.457 133.348 107.741 133.75 107.482 134.009 C 106.148 135.343 102.596 133.807 100.68 134.765 C 98.981 135.614 95.609 135.016 93.626 135.016 C 92.527 135.016 89.609 134.996 86.603 134.922 C 85.894 134.822 85.335 134.742 85.312 134.765 C 85.297 134.78 85.229 134.849 85.186 134.891 C 84.622 134.873 84.078 134.85 83.533 134.828 C 83.193 134.698 82.833 134.618 82.541 134.765 C 82.527 134.771 82.508 134.774 82.494 134.78 C 80.148 134.667 78.234 134.501 77.754 134.261 C 75.783 133.275 73.665 133.001 71.204 133.001 C 67.351 133.001 58.82 128.447 55.836 126.955 C 55.379 126.726 54.111 125.397 53.426 125.033 C 53.421 124.77 53.412 124.531 53.316 124.435 C 52.614 123.733 52.307 122.164 51.805 121.16 C 51.596 120.742 51.805 119.21 51.805 119.396 C 51.805 119.405 52.311 117.381 52.308 117.381 C 51.877 117.381 49.619 120.322 48.781 121.16 C 48.774 121.168 48.797 121.213 48.813 121.254 C 48.341 121.905 48.01 122.876 48.01 124.341 C 48.01 129.334 50.764 129.598 53.348 132.182 C 53.982 132.817 55.34 132.395 55.836 132.891 C 56.341 133.397 57.084 133.846 57.961 134.245 C 56.864 134.888 54.749 135.048 54.056 135.741 C 53.378 136.419 50.236 138.368 49.065 138.953 C 48.845 139.063 47.78 139.183 47.648 139.315 C 40.992 145.971 33.481 150.269 27.335 156.415 C 26.818 156.933 26.627 163.69 26.627 164.965 C 26.627 167.191 25.871 169.547 27.335 171.012 C 27.953 171.63 30.002 171.191 30.547 171.736 C 30.666 171.854 32.155 172.962 32.327 172.791 C 32.977 172.141 31.965 168.742 31.965 167.815 C 31.965 162.95 32.49 158.032 35.539 154.982 C 41.419 149.102 49.802 146.419 55.127 141.094 C 56.692 139.529 59.56 138.696 61.646 136.985 C 61.573 137.486 61.658 137.959 62.024 138.355 C 62.267 138.617 63.133 138.097 63.441 138.26 C 65.533 139.369 71.909 141.748 73.786 139.457 C 74.126 140.104 74.396 140.76 74.731 141.094 C 75.981 142.344 75.003 148.375 74.369 149.645 C 71.974 154.433 70.711 168.26 68.669 170.303 C 68.316 170.656 69.092 174.015 69.377 174.586 C 70.119 176.071 68.834 179.381 69.377 179.924 C 69.912 180.459 69.567 181.878 70.101 182.412 C 70.588 182.898 72.811 182.288 73.298 182.774 C 73.491 182.967 76.025 184.692 76.51 184.207 C 76.912 183.805 75.411 179.174 75.077 178.507 C 74.79 177.932 75.851 167.388 76.148 167.091 C 76.564 166.675 75.732 165.019 76.148 164.603 C 76.957 163.794 77.927 147.022 77.927 144.653 C 77.927 144.253 78.949 141.754 78.289 141.094 C 78.286 141.091 77.699 139.743 76.904 138.433 C 78.078 138.521 79.069 138.662 79.36 138.953 C 79.883 139.476 90.425 138.953 92.177 138.953 C 99.138 138.953 110.088 138.414 114.269 137.52 C 115.935 137.164 119.888 136.852 122.11 135.741 C 123.401 135.096 127.945 134.654 128.74 134.45 C 130.437 134.012 135.89 132.7 137.416 131.174 C 138.547 130.043 142.416 126.124 143.84 125.411 C 145.446 124.609 146.252 121.756 147.194 120.436 C 147.315 119.458 149.946 116.903 149.43 115.869 C 148.843 113.483 148.477 111.017 147.54 110.925 L 147.54 110.925 Z " fill="rgb(230,179,90)"/></g></g></svg>