<?xml version="1.0" standalone="no"?><!-- Generator: Gravit.io --><svg xmlns="http://www.w3.org/2000/svg" xmlns:xlink="http://www.w3.org/1999/xlink" style="isolation:isolate" viewBox="0 0 200 200" width="200" height="200"><defs><clipPath id="_clipPath_Ap5YecaVZ5Fk6GyYrUh0y1mYUImNdKVp"><rect width="200" height="200"/></clipPath></defs><g clip-path="url(#_clipPath_Ap5YecaVZ5Fk6GyYrUh0y1mYUImNdKVp)"><path d=" M 192.921 62.823 C 203.799 90.036 202.548 122.427 186.595 149.952 C 165.534 186.479 124.89 204.707 85.548 198.955 L 131.997 118.552 C 142.214 100.827 136.15 78.115 118.443 67.95 C 112.673 64.544 106.279 62.823 100.006 62.823 L 192.921 62.823 Z " fill="rgb(254,209,48)"/><path d=" M 192.921 62.823 L 100.023 62.823 C 87.251 62.823 74.826 69.653 67.997 81.539 C 61.307 93.042 61.585 106.892 67.615 117.857 L 21.531 38.096 C 51.75 -0.273 106.435 -11.776 149.947 13.351 C 170.261 25.046 184.893 42.666 192.921 62.823 Z " fill="rgb(230,74,69)"/><path d=" M 131.997 118.604 L 85.548 199.042 C 73.367 197.287 61.342 193.221 50.047 186.722 C 2.173 159.075 -14.196 97.942 13.416 50.138 C 15.883 45.829 18.594 41.884 21.513 38.131 L 67.597 117.943 L 67.98 118.604 C 71.108 124.043 75.695 128.787 81.534 132.106 C 99.189 142.323 121.814 136.259 131.997 118.604 Z " fill="rgb(81,184,78)"/><path d=" M 121.814 61.659 C 143.083 73.893 150.364 101.018 138.096 122.322 C 125.845 143.54 98.668 150.838 77.45 138.553 C 70.43 134.556 64.921 128.856 61.168 122.322 L 60.699 121.523 C 53.47 108.334 53.122 91.791 61.168 77.959 C 69.387 63.675 84.314 55.647 99.658 55.647 C 107.182 55.664 114.863 57.576 121.814 61.659 Z " fill="rgb(71,147,198)"/><path d=" M 99.589 147.902 C 91.248 147.902 82.993 145.677 75.747 141.489 C 68.484 137.336 62.419 131.289 58.231 124.008 L 57.779 123.226 C 49.734 108.542 49.925 90.575 58.249 76.256 C 66.763 61.468 82.629 52.276 99.658 52.276 C 108.086 52.276 116.34 54.517 123.517 58.757 C 134.551 65.1 142.475 75.404 145.777 87.725 C 149.078 100.045 147.393 112.939 140.998 124.025 C 132.501 138.761 116.635 147.902 99.589 147.902 Z  M 99.658 59.035 C 85.044 59.035 71.403 66.942 64.087 79.644 C 56.945 91.947 56.789 107.361 63.653 119.907 L 64.07 120.637 C 67.667 126.893 72.863 132.071 79.101 135.633 C 85.339 139.248 92.429 141.159 99.589 141.159 C 114.22 141.159 127.844 133.305 135.159 120.654 C 140.651 111.132 142.093 100.062 139.26 89.48 C 136.411 78.897 129.616 70.07 120.128 64.596 C 113.942 60.947 106.887 59.035 99.658 59.035 Z " fill="rgb(255,255,255)"/></g></svg>