<?xml version="1.0" standalone="no"?><!-- Generator: Gravit.io --><svg xmlns="http://www.w3.org/2000/svg" xmlns:xlink="http://www.w3.org/1999/xlink" style="isolation:isolate" viewBox="0 0 200 200" width="200" height="200"><defs><clipPath id="_clipPath_EjrB2E5n8OAHY7G7WJ48t2KzxuwPW1lz"><rect width="200" height="200"/></clipPath></defs><g clip-path="url(#_clipPath_EjrB2E5n8OAHY7G7WJ48t2KzxuwPW1lz)"><g id="Group"><path d=" M 181.835 196.059 L 149.459 196.059 L 151.718 168.765 L 135.812 168.765 L 133.553 196.059 L 66.447 196.059 L 64.188 168.765 L 48.282 168.765 L 50.541 196.059 L 18.165 196.059 L 0 77.753 L 45.459 5 L 154.541 5 L 200 77.753 L 181.835 196.059 Z  M 145.412 41.424 L 116.235 41.424 L 118.212 55.071 L 81.788 55.071 L 83.765 41.424 L 54.588 41.424 L 36.329 77.753 L 45.459 150.506 L 154.541 150.506 L 163.671 77.753 L 145.412 41.424 Z  M 129.506 126.412 C 126.965 126.412 124.988 118.882 124.988 109.471 C 124.988 100.059 127.059 92.529 129.506 92.529 C 132.047 92.529 134.024 100.059 134.024 109.471 C 134.024 118.882 132.047 126.412 129.506 126.412 Z  M 72.188 127.824 C 69.647 127.824 67.671 120.294 67.671 110.882 C 67.671 101.471 69.741 93.941 72.188 93.941 C 74.729 93.941 76.706 101.471 76.706 110.882 C 76.706 120.294 74.635 127.824 72.188 127.824 Z " fill="rgb(0,0,0)"/></g></g></svg>