<?xml version="1.0" standalone="no"?><!-- Generator: Gravit.io --><svg xmlns="http://www.w3.org/2000/svg" xmlns:xlink="http://www.w3.org/1999/xlink" style="isolation:isolate" viewBox="0 0 200 200" width="200" height="200"><defs><clipPath id="_clipPath_Z4T0KlhfkHAeqeoQ2BRMuOBOvbcbPKx0"><rect width="200" height="200"/></clipPath></defs><g clip-path="url(#_clipPath_Z4T0KlhfkHAeqeoQ2BRMuOBOvbcbPKx0)"><g id="Group"><g id="#000000ff"><path d=" M 57.217 0.059 C 65.982 -0.049 74.747 0.026 83.511 0.021 C 83.532 2.764 83.574 5.506 83.474 8.248 C 77.401 8.206 71.332 8.248 65.264 8.286 C 65.222 12.267 65.143 16.249 65.18 20.231 C 71.274 20.268 77.372 20.327 83.466 20.302 C 83.537 22.556 83.511 24.818 83.445 27.076 C 74.705 27.018 65.965 27.043 57.225 27.051 C 57.246 18.052 57.263 9.058 57.217 0.059 Z " fill="rgb(0,0,0)"/><path d=" M 86.638 0.03 C 95.511 0.013 104.385 -0.041 113.262 0.059 C 113.229 2.651 113.254 5.239 113.254 7.831 C 106.797 7.81 100.336 7.839 93.879 7.914 C 93.887 8.932 93.887 9.951 93.879 10.969 C 100.328 11.074 106.772 11.086 113.216 11.124 C 113.241 16.437 113.229 21.746 113.262 27.055 C 104.385 27.038 95.507 27.047 86.629 27.088 C 86.583 24.943 86.579 22.802 86.642 20.657 C 92.794 20.673 98.95 20.682 105.102 20.632 C 105.14 19.25 105.157 17.864 105.153 16.483 C 98.971 16.483 92.786 16.504 86.604 16.462 C 86.604 10.986 86.604 5.506 86.638 0.03 Z " fill="rgb(0,0,0)"/><path d=" M 116.234 0.076 C 125.091 0.076 133.952 0.076 142.808 0.076 C 142.846 2.68 142.884 5.285 142.8 7.885 C 136.314 7.881 129.828 7.918 123.342 7.931 C 123.359 8.995 123.384 10.059 123.438 11.124 C 129.886 11.095 136.335 11.174 142.779 11.241 C 142.838 16.529 142.879 21.817 142.804 27.105 C 133.927 27.08 125.049 27.08 116.171 27.122 C 116.117 24.985 116.1 22.84 116.192 20.703 C 122.332 20.748 128.476 20.74 134.619 20.682 C 134.636 19.296 134.665 17.91 134.653 16.529 C 128.488 16.587 122.319 16.554 116.15 16.533 C 116.15 11.049 116.192 5.56 116.234 0.076 Z " fill="rgb(0,0,0)"/></g><g id="#0170baff"><path d=" M 28.68 38.249 C 76.228 38.245 123.772 38.241 171.32 38.249 C 168.703 67.82 166.127 97.392 163.402 126.955 C 161.782 145.849 160.113 164.744 158.352 183.626 C 148.205 186.314 138.159 189.378 128.017 192.078 C 118.701 194.812 109.31 197.287 99.99 200 L 99.714 200 C 90.845 197.362 81.888 195.042 73.019 192.404 C 62.551 189.582 52.175 186.435 41.703 183.626 C 40.338 169.473 39.107 155.311 37.892 141.15 C 35.601 114.984 33.109 88.835 30.905 62.666 C 30.141 54.79 29.595 46.889 28.68 39.03 L 28.68 38.249 Z  M 100.223 49.915 C 100.123 55.595 100.298 61.28 100.123 66.956 C 83.812 66.898 67.497 66.944 51.186 66.961 C 51.465 72.474 52.204 77.95 52.964 83.418 C 68.139 83.981 83.336 83.397 98.512 83.852 C 85.235 89.808 71.796 95.417 58.46 101.248 C 57.317 101.757 56.094 102.141 55.071 102.884 C 55.184 108.941 56.161 114.963 56.591 121.007 C 64.679 120.978 72.764 120.848 80.853 120.836 C 87.335 120.802 93.821 120.932 100.303 120.79 C 99.994 130.749 100.399 140.72 100.094 150.678 C 95.732 150.031 91.425 149.059 87.08 148.287 C 83.653 147.54 80.143 147.152 76.767 146.171 C 76.287 141.392 75.953 136.596 75.527 131.813 C 74.55 131.512 73.515 131.542 72.505 131.525 C 67.605 131.554 62.701 131.508 57.797 131.583 C 58.277 140.778 59.103 149.96 60.51 159.068 C 65.343 160.328 70.185 161.564 75.009 162.878 C 82.401 164.89 89.885 166.564 97.289 168.542 C 98.17 168.73 99.059 169.056 99.973 168.98 C 100.465 175.028 100.086 181.114 100.177 187.178 C 101.884 186.903 103.562 186.481 105.211 185.972 C 119.227 182.165 133.225 178.288 147.233 174.444 C 147.93 168.935 148.255 163.388 148.806 157.866 C 150.263 141.079 151.732 124.292 153.26 107.509 C 155.05 88.31 156.599 69.089 158.402 49.89 C 139.006 49.907 119.615 49.852 100.223 49.915 Z " fill="rgb(1,112,186)"/></g><g id="#29a9dfff"><path d=" M 100.223 49.915 C 119.615 49.852 139.006 49.907 158.402 49.89 C 156.599 69.089 155.05 88.31 153.26 107.509 C 151.732 124.292 150.263 141.079 148.806 157.866 C 148.255 163.388 147.93 168.935 147.233 174.444 C 133.225 178.288 119.227 182.165 105.211 185.972 C 103.562 186.481 101.884 186.903 100.177 187.178 C 100.086 181.114 100.465 175.028 99.973 168.98 C 100.098 168.955 100.353 168.905 100.478 168.88 C 113.513 165.608 126.46 162.006 139.465 158.617 C 141.11 140.169 142.934 121.729 144.09 103.243 C 133.029 103.302 121.965 103.268 110.904 103.314 C 109.293 103.323 107.682 103.314 106.079 103.197 C 112.031 100.134 118.292 97.705 124.402 94.971 C 130.266 92.312 136.201 89.82 142.086 87.212 C 143.222 86.69 144.432 86.256 145.43 85.48 C 145.822 84.04 145.801 82.533 145.955 81.06 C 146.294 76.385 146.895 71.735 147.12 67.057 C 131.456 66.931 115.792 67.04 100.123 66.956 C 100.298 61.28 100.123 55.595 100.223 49.915 Z " fill="rgb(41,169,223)"/><path d=" M 100.303 120.79 C 107.865 120.661 115.433 120.865 123 120.815 C 122.578 128.549 121.935 136.27 121.535 144.005 C 116.898 145.52 112.19 146.801 107.515 148.203 C 105.023 148.963 102.465 149.564 100.094 150.678 C 100.399 140.72 99.994 130.749 100.303 120.79 Z " fill="rgb(41,169,223)"/></g><g id="#cfcfcfff"><path d=" M 51.186 66.961 C 67.497 66.944 83.812 66.898 100.123 66.956 C 100.336 84.904 100.069 102.851 100.303 120.79 C 93.821 120.932 87.335 120.802 80.853 120.836 C 72.764 120.848 64.679 120.978 56.591 121.007 C 56.161 114.963 55.184 108.941 55.071 102.884 C 56.094 102.141 57.317 101.757 58.46 101.248 C 71.796 95.417 85.235 89.808 98.512 83.852 C 83.336 83.397 68.139 83.981 52.964 83.418 C 52.204 77.95 51.465 72.474 51.186 66.961 Z " fill="rgb(207,207,207)"/><path d=" M 57.797 131.583 C 62.701 131.508 67.605 131.554 72.505 131.525 C 73.515 131.542 74.55 131.512 75.527 131.813 C 75.953 136.596 76.287 141.392 76.767 146.171 C 80.143 147.152 83.653 147.54 87.08 148.287 C 91.425 149.059 95.732 150.031 100.094 150.678 C 100.511 156.739 99.781 162.841 100.478 168.88 C 100.353 168.905 100.098 168.955 99.973 168.98 C 99.059 169.056 98.17 168.73 97.289 168.542 C 89.885 166.564 82.401 164.89 75.009 162.878 C 70.185 161.564 65.343 160.328 60.51 159.068 C 59.103 149.96 58.277 140.778 57.797 131.583 Z " fill="rgb(207,207,207)"/></g><g id="#ffffffff"><path d=" M 100.123 66.956 C 115.792 67.04 131.456 66.931 147.12 67.057 C 146.895 71.735 146.294 76.385 145.955 81.06 C 145.801 82.533 145.822 84.04 145.43 85.48 C 144.432 86.256 143.222 86.69 142.086 87.212 C 136.201 89.82 130.266 92.312 124.402 94.971 C 118.292 97.705 112.031 100.134 106.079 103.197 C 107.682 103.314 109.293 103.323 110.904 103.314 C 121.965 103.268 133.029 103.302 144.09 103.243 C 142.934 121.729 141.11 140.169 139.465 158.617 C 126.46 162.006 113.513 165.608 100.478 168.88 C 99.781 162.841 100.511 156.739 100.094 150.678 C 102.465 149.564 105.023 148.963 107.515 148.203 C 112.19 146.801 116.898 145.52 121.535 144.005 C 121.935 136.27 122.578 128.549 123 120.815 C 115.433 120.865 107.865 120.661 100.303 120.79 C 100.069 102.851 100.336 84.904 100.123 66.956 Z " fill="rgb(255,255,255)"/></g></g></g></svg>