<?xml version="1.0" standalone="no"?><!-- Generator: Gravit.io --><svg xmlns="http://www.w3.org/2000/svg" xmlns:xlink="http://www.w3.org/1999/xlink" style="isolation:isolate" viewBox="0 0 200 200" width="200" height="200"><defs><clipPath id="_clipPath_beRn3pU5VSninZlXTGgW0eIudxcqwnOi"><rect width="200" height="200"/></clipPath></defs><g clip-path="url(#_clipPath_beRn3pU5VSninZlXTGgW0eIudxcqwnOi)"><g id="Group"><path d=" M 115.651 77.86 L 133.581 77.86 L 133.581 96.189 L 142.646 96.189 C 146.833 96.189 151.139 95.444 155.104 94.1 C 157.052 93.439 159.238 92.52 161.16 91.364 C 158.629 88.059 157.337 83.887 156.957 79.774 C 156.44 74.179 157.569 66.898 161.355 62.519 L 163.24 60.339 L 165.486 62.145 C 171.14 66.688 175.896 73.036 176.734 80.273 C 183.543 78.27 191.537 78.744 197.538 82.207 L 200 83.628 L 198.705 86.158 C 193.629 96.063 183.017 99.132 172.643 98.589 C 157.12 137.254 123.323 155.558 82.344 155.558 C 61.173 155.558 41.75 147.644 30.689 128.861 L 30.508 128.555 L 28.896 125.276 C 25.157 117.008 23.915 107.95 24.758 98.9 L 25.011 96.189 L 40.344 96.189 L 40.344 77.86 L 58.273 77.86 L 58.273 59.93 L 94.134 59.93 L 94.134 42 L 115.651 42 L 115.651 77.86 Z " fill-rule="evenodd" fill="rgb(54,69,72)"/><path d=" M 173.741 84.641 C 174.943 75.298 167.951 67.959 163.615 64.474 C 158.617 70.252 157.841 85.393 165.681 91.768 C 161.305 95.654 152.086 99.177 142.646 99.177 L 27.735 99.177 C 26.817 109.031 28.547 118.106 32.498 125.873 L 33.806 128.264 C 34.633 129.668 35.538 131.025 36.515 132.329 C 41.239 132.633 45.595 132.737 49.58 132.649 L 49.582 132.649 C 57.413 132.477 63.803 131.551 68.646 129.873 C 69.357 129.652 70.116 130.035 70.36 130.74 C 70.605 131.444 70.246 132.215 69.55 132.481 C 68.905 132.706 68.234 132.914 67.541 133.113 L 67.538 133.113 C 63.725 134.202 59.636 134.934 54.36 135.26 C 54.674 135.265 54.034 135.307 54.032 135.307 C 53.853 135.318 53.627 135.344 53.447 135.354 C 51.37 135.471 49.129 135.495 46.838 135.495 C 44.332 135.495 41.864 135.448 39.105 135.307 L 39.034 135.354 C 48.609 146.115 63.579 152.569 82.345 152.569 C 122.06 152.569 155.747 134.964 170.664 95.44 C 181.247 96.526 191.418 93.827 196.044 84.795 C 188.675 80.543 179.198 81.898 173.741 84.641 Z " fill-rule="evenodd" fill="rgb(34,160,200)"/><path d=" M 173.741 84.641 C 174.943 75.298 167.951 67.959 163.615 64.474 C 158.617 70.252 157.841 85.393 165.681 91.768 C 161.305 95.654 152.086 99.177 142.646 99.177 L 34.54 99.177 C 34.071 114.268 39.671 125.724 49.579 132.649 L 49.582 132.649 C 57.413 132.477 63.803 131.551 68.646 129.873 C 69.357 129.652 70.116 130.035 70.36 130.74 C 70.605 131.444 70.246 132.215 69.55 132.481 C 68.905 132.706 68.234 132.914 67.541 133.113 L 67.538 133.113 C 63.725 134.202 59.285 135.028 54.009 135.354 C 54.007 135.354 53.881 135.232 53.88 135.232 C 67.396 142.165 86.994 142.14 109.463 133.509 C 134.657 123.83 158.102 105.39 174.46 84.299 C 174.214 84.411 173.974 84.524 173.741 84.641" fill-rule="evenodd" fill="rgb(55,177,217)"/><path d=" M 27.951 111.15 C 28.664 116.429 30.209 121.371 32.498 125.873 L 33.806 128.264 C 34.633 129.668 35.538 131.025 36.515 132.329 C 41.24 132.633 45.596 132.737 49.582 132.649 C 57.413 132.477 63.803 131.551 68.646 129.873 C 69.357 129.652 70.116 130.035 70.36 130.74 C 70.605 131.444 70.246 132.215 69.55 132.481 C 68.905 132.706 68.234 132.914 67.541 133.113 L 67.538 133.113 C 63.725 134.202 59.308 134.981 54.032 135.307 C 53.851 135.318 53.535 135.321 53.353 135.331 C 51.278 135.447 49.059 135.518 46.767 135.518 C 44.262 135.518 41.7 135.471 38.942 135.33 C 48.516 146.092 63.579 152.569 82.345 152.569 C 116.345 152.569 145.926 139.664 163.095 111.15 L 27.951 111.15 Z " fill-rule="evenodd" fill="rgb(27,129,165)"/><g id="Group"><path d=" M 35.574 111.15 C 37.606 120.418 42.491 127.694 49.582 132.649 C 57.413 132.477 63.803 131.551 68.646 129.873 C 69.357 129.652 70.116 130.035 70.36 130.74 C 70.605 131.444 70.246 132.215 69.55 132.481 C 68.905 132.706 68.234 132.914 67.541 133.113 L 67.538 133.113 C 63.725 134.202 59.215 134.981 53.938 135.307 C 67.454 142.239 86.995 142.14 109.463 133.509 C 123.055 128.287 136.137 120.513 147.873 111.15 L 35.574 111.15 Z " fill-rule="evenodd" fill="rgb(29,145,180)"/></g><path d=" M 43.331 80.848 L 58.871 80.848 L 58.871 96.388 L 43.331 96.388 L 43.331 80.848 Z  M 44.626 82.144 L 45.852 82.144 L 45.852 95.094 L 44.626 95.094 L 44.626 82.144 Z  M 46.931 82.144 L 48.207 82.144 L 48.207 95.094 L 46.932 95.094 L 46.932 82.144 L 46.931 82.144 Z  M 49.285 82.144 L 50.561 82.144 L 50.561 95.094 L 49.285 95.094 L 49.285 82.144 Z  M 51.641 82.144 L 52.916 82.144 L 52.916 95.094 L 51.641 95.094 L 51.641 82.144 Z  M 53.996 82.144 L 55.271 82.144 L 55.271 95.094 L 53.996 95.094 L 53.996 82.144 Z  M 56.35 82.144 L 57.577 82.144 L 57.577 95.094 L 56.35 95.094 L 56.35 82.144 Z  M 61.261 62.918 L 76.802 62.918 L 76.802 78.458 L 61.261 78.458 L 61.261 62.918 L 61.261 62.918 Z  M 62.557 64.214 L 63.782 64.214 L 63.782 77.163 L 62.557 77.163 L 62.557 64.214 Z  M 64.862 64.214 L 66.137 64.214 L 66.137 77.163 L 64.863 77.163 L 64.863 64.214 L 64.862 64.214 Z  M 67.216 64.214 L 68.491 64.214 L 68.491 77.163 L 67.216 77.163 L 67.216 64.214 Z  M 69.571 64.214 L 70.846 64.214 L 70.846 77.163 L 69.571 77.163 L 69.571 64.214 Z  M 71.926 64.214 L 73.201 64.214 L 73.201 77.163 L 71.926 77.163 L 71.926 64.214 Z  M 74.28 64.214 L 75.508 64.214 L 75.508 77.163 L 74.28 77.163 L 74.28 64.214 Z " fill-rule="evenodd" fill="rgb(35,163,194)"/><path d=" M 61.261 80.848 L 76.802 80.848 L 76.802 96.388 L 61.261 96.388 L 61.261 80.848 L 61.261 80.848 Z  M 62.557 82.144 L 63.782 82.144 L 63.782 95.094 L 62.557 95.094 L 62.557 82.144 Z  M 64.862 82.144 L 66.137 82.144 L 66.137 95.094 L 64.863 95.094 L 64.863 82.144 L 64.862 82.144 Z  M 67.216 82.144 L 68.491 82.144 L 68.491 95.094 L 67.216 95.094 L 67.216 82.144 Z  M 69.571 82.144 L 70.846 82.144 L 70.846 95.094 L 69.571 95.094 L 69.571 82.144 Z  M 71.926 82.144 L 73.201 82.144 L 73.201 95.094 L 71.926 95.094 L 71.926 82.144 Z  M 74.28 82.144 L 75.508 82.144 L 75.508 95.094 L 74.28 95.094 L 74.28 82.144 Z " fill-rule="evenodd" fill="rgb(52,187,222)"/><path d=" M 79.192 80.848 L 94.732 80.848 L 94.732 96.388 L 79.192 96.388 L 79.192 80.848 Z  M 80.487 82.144 L 81.712 82.144 L 81.712 95.094 L 80.487 95.094 L 80.487 82.144 Z  M 82.792 82.144 L 84.067 82.144 L 84.067 95.094 L 82.792 95.094 L 82.792 82.144 Z  M 85.147 82.144 L 86.422 82.144 L 86.422 95.094 L 85.147 95.094 L 85.147 82.144 Z  M 87.502 82.144 L 88.777 82.144 L 88.777 95.094 L 87.502 95.094 L 87.502 82.144 Z  M 89.856 82.144 L 91.132 82.144 L 91.132 95.094 L 89.856 95.094 L 89.856 82.144 Z  M 92.21 82.144 L 93.437 82.144 L 93.437 95.094 L 92.21 95.094 L 92.21 82.144 L 92.21 82.144 Z " fill-rule="evenodd" fill="rgb(35,163,194)"/><path d=" M 79.192 62.918 L 94.732 62.918 L 94.732 78.458 L 79.192 78.458 L 79.192 62.918 Z  M 80.487 64.214 L 81.712 64.214 L 81.712 77.163 L 80.487 77.163 L 80.487 64.214 Z  M 82.792 64.214 L 84.067 64.214 L 84.067 77.163 L 82.792 77.163 L 82.792 64.214 Z  M 85.147 64.214 L 86.422 64.214 L 86.422 77.163 L 85.147 77.163 L 85.147 64.214 Z  M 87.502 64.214 L 88.777 64.214 L 88.777 77.163 L 87.502 77.163 L 87.502 64.214 Z  M 89.856 64.214 L 91.132 64.214 L 91.132 77.163 L 89.856 77.163 L 89.856 64.214 Z  M 92.21 64.214 L 93.437 64.214 L 93.437 77.163 L 92.21 77.163 L 92.21 64.214 L 92.21 64.214 Z  M 97.122 80.848 L 112.662 80.848 L 112.662 96.388 L 97.122 96.388 L 97.122 80.848 Z  M 98.418 82.144 L 99.643 82.144 L 99.643 95.094 L 98.418 95.094 L 98.418 82.144 Z  M 100.723 82.144 L 101.998 82.144 L 101.998 95.094 L 100.723 95.094 L 100.723 82.144 Z  M 103.077 82.144 L 104.352 82.144 L 104.352 95.094 L 103.077 95.094 L 103.077 82.144 Z  M 105.432 82.144 L 106.707 82.144 L 106.707 95.094 L 105.432 95.094 L 105.432 82.144 Z  M 107.786 82.144 L 109.062 82.144 L 109.062 95.094 L 107.786 95.094 L 107.786 82.144 Z  M 110.141 82.144 L 111.368 82.144 L 111.368 95.094 L 110.141 95.094 L 110.141 82.144 Z " fill-rule="evenodd" fill="rgb(52,187,222)"/><path d=" M 97.122 62.918 L 112.662 62.918 L 112.662 78.458 L 97.122 78.458 L 97.122 62.918 Z  M 98.418 64.214 L 99.643 64.214 L 99.643 77.163 L 98.418 77.163 L 98.418 64.214 Z  M 100.723 64.214 L 101.998 64.214 L 101.998 77.163 L 100.723 77.163 L 100.723 64.214 Z  M 103.077 64.214 L 104.352 64.214 L 104.352 77.163 L 103.077 77.163 L 103.077 64.214 Z  M 105.432 64.214 L 106.707 64.214 L 106.707 77.163 L 105.432 77.163 L 105.432 64.214 Z  M 107.786 64.214 L 109.062 64.214 L 109.062 77.163 L 107.786 77.163 L 107.786 64.214 Z  M 110.141 64.214 L 111.368 64.214 L 111.368 77.163 L 110.141 77.163 L 110.141 64.214 Z " fill-rule="evenodd" fill="rgb(35,163,194)"/><path d=" M 97.122 44.988 L 112.662 44.988 L 112.662 60.529 L 97.122 60.529 L 97.122 44.988 Z  M 98.418 46.282 L 99.643 46.282 L 99.643 59.233 L 98.418 59.233 L 98.418 46.281 L 98.418 46.282 Z  M 100.723 46.282 L 101.998 46.282 L 101.998 59.233 L 100.723 59.233 L 100.723 46.281 L 100.723 46.282 Z  M 103.077 46.282 L 104.352 46.282 L 104.352 59.233 L 103.077 59.233 L 103.077 46.281 L 103.077 46.282 Z  M 105.432 46.282 L 106.707 46.282 L 106.707 59.233 L 105.432 59.233 L 105.432 46.281 L 105.432 46.282 Z  M 107.786 46.282 L 109.062 46.282 L 109.062 59.233 L 107.786 59.233 L 107.786 46.281 L 107.786 46.282 Z  M 110.141 46.282 L 111.368 46.282 L 111.368 59.233 L 110.141 59.233 L 110.141 46.281 L 110.141 46.282 Z " fill-rule="evenodd" fill="rgb(52,187,222)"/><path d=" M 115.052 80.848 L 130.592 80.848 L 130.592 96.388 L 115.052 96.388 L 115.052 80.848 Z  M 116.346 82.144 L 117.573 82.144 L 117.573 95.094 L 116.347 95.094 L 116.347 82.144 L 116.346 82.144 Z  M 118.651 82.144 L 119.927 82.144 L 119.927 95.094 L 118.652 95.094 L 118.652 82.144 L 118.651 82.144 Z  M 121.007 82.144 L 122.283 82.144 L 122.283 95.094 L 121.007 95.094 L 121.007 82.144 Z  M 123.361 82.144 L 124.637 82.144 L 124.637 95.094 L 123.361 95.094 L 123.361 82.144 Z  M 125.717 82.144 L 126.992 82.144 L 126.992 95.094 L 125.717 95.094 L 125.717 82.144 Z  M 128.07 82.144 L 129.297 82.144 L 129.297 95.094 L 128.07 95.094 L 128.07 82.144 Z " fill-rule="evenodd" fill="rgb(35,163,194)"/><path d=" M 75.829 121.583 C 77.375 121.563 78.812 122.376 79.59 123.711 C 80.369 125.046 80.368 126.697 79.589 128.032 C 78.81 129.367 77.373 130.179 75.827 130.158 C 73.482 130.126 71.598 128.215 71.599 125.87 C 71.599 123.525 73.484 121.615 75.829 121.583 Z " fill-rule="evenodd" fill="rgb(211,236,236)"/><path d=" M 75.829 122.8 C 76.221 122.8 76.595 122.873 76.94 123.007 C 76.451 123.292 76.212 123.869 76.359 124.415 C 76.505 124.962 77 125.343 77.566 125.344 C 78.04 125.344 78.452 125.081 78.665 124.693 C 79.184 125.942 78.824 127.383 77.779 128.241 C 76.734 129.1 75.251 129.174 74.126 128.423 C 73.001 127.672 72.5 126.274 72.892 124.98 C 73.284 123.685 74.477 122.8 75.829 122.8 M 0 112.699 L 199.427 112.699 C 195.085 111.598 185.689 110.11 187.238 104.419 C 179.342 113.555 160.301 110.829 155.495 106.324 C 150.144 114.086 118.99 111.135 116.817 105.088 C 110.108 112.962 89.32 112.962 82.611 105.088 C 80.437 111.135 49.284 114.086 43.932 106.323 C 39.127 110.829 20.086 113.555 12.19 104.42 C 13.74 110.11 4.343 111.598 0 112.7" fill-rule="evenodd" fill="rgb(54,69,72)"/><path d=" M 87.225 152.477 C 76.608 147.439 70.781 140.589 67.538 133.113 C 63.594 134.239 58.854 134.958 53.346 135.267 C 51.271 135.383 49.088 135.443 46.798 135.443 C 44.157 135.443 41.374 135.365 38.452 135.21 C 48.189 144.941 60.167 152.433 82.345 152.569 C 83.982 152.569 85.607 152.538 87.225 152.477" fill-rule="evenodd" fill="rgb(189,217,215)"/><path d=" M 71.482 140.012 C 70.013 138.018 68.588 135.512 67.541 133.112 C 63.597 134.239 58.855 134.958 53.346 135.268 C 57.13 137.322 62.541 139.225 71.483 140.012" fill-rule="evenodd" fill="rgb(211,236,236)"/></g></g></svg>