<?xml version="1.0" standalone="no"?><!-- Generator: Gravit.io --><svg xmlns="http://www.w3.org/2000/svg" xmlns:xlink="http://www.w3.org/1999/xlink" style="isolation:isolate" viewBox="0 0 200 200" width="200" height="200"><defs><clipPath id="_clipPath_Aho3shrZiZFSunehgboVFziyuvFe7LWY"><rect width="200" height="200"/></clipPath></defs><g clip-path="url(#_clipPath_Aho3shrZiZFSunehgboVFziyuvFe7LWY)"><g id="Group"><path d=" M 72.873 43.135 C 46.752 38.312 26.122 43.403 17.816 57.602 C 11.654 68.185 13.396 82.384 22.103 97.388 C 22.773 98.727 24.514 99.129 25.72 98.326 C 27.06 97.656 27.461 95.914 26.658 94.709 C 18.888 81.179 17.415 68.989 22.371 60.281 C 29.203 48.493 47.689 43.938 71.802 48.359 C 73.275 48.627 74.615 47.689 74.883 46.216 C 75.151 44.742 74.347 43.403 72.873 43.135 Z  M 35.767 115.74 C 46.35 127.395 60.013 138.245 75.687 147.22 C 113.597 169.056 153.918 174.95 173.878 161.42 C 175.084 160.616 175.352 158.875 174.548 157.669 C 173.744 156.463 172.003 156.196 170.797 156.999 C 152.981 169.19 114.668 163.563 78.366 142.666 C 63.228 133.958 49.833 123.376 39.652 112.123 C 38.714 111.052 36.973 110.918 35.901 111.989 C 34.829 112.927 34.695 114.668 35.767 115.74 Z " fill="rgb(71,132,143)"/><path d=" M 167.448 112.525 C 184.595 92.297 190.489 71.936 182.317 57.736 C 176.289 47.287 163.429 41.795 146.551 41.527 C 145.077 41.527 143.871 42.733 143.871 44.206 C 143.871 45.68 145.077 46.885 146.551 46.885 C 161.822 47.019 172.806 51.842 177.763 60.415 C 184.595 72.204 179.236 90.422 163.429 109.042 C 162.492 110.114 162.626 111.855 163.697 112.793 C 164.769 113.731 166.51 113.597 167.448 112.525 L 167.448 112.525 Z  M 123.51 43.938 C 108.104 47.287 91.628 53.717 75.82 62.827 C 36.571 85.466 11.119 118.821 14.601 142.934 C 14.869 144.407 16.209 145.345 17.683 145.211 C 19.156 144.943 20.094 143.603 19.96 142.13 C 16.745 120.697 40.991 89.216 78.5 67.515 C 93.905 58.674 109.846 52.378 124.715 49.163 C 126.189 48.895 127.127 47.421 126.725 45.948 C 126.323 44.608 124.983 43.67 123.51 43.938 Z " fill="rgb(71,132,143)"/><path d=" M 60.147 159.678 C 69.123 184.595 83.724 200 100.201 200 C 112.257 200 123.242 191.829 131.949 177.361 C 132.753 176.155 132.351 174.414 131.011 173.744 C 129.806 172.94 128.064 173.342 127.395 174.682 C 119.625 187.676 110.114 194.642 100.201 194.642 C 86.537 194.642 73.543 180.978 65.238 157.803 C 64.702 156.463 63.228 155.66 61.755 156.196 C 60.281 156.731 59.612 158.339 60.147 159.678 L 60.147 159.678 Z  M 141.862 154.856 C 146.551 140.121 148.962 122.974 148.962 105.157 C 148.962 60.817 133.423 22.505 111.319 12.726 C 109.98 12.19 108.372 12.726 107.837 14.066 C 107.301 15.405 107.837 17.013 109.176 17.549 C 128.868 26.256 143.603 62.559 143.603 105.157 C 143.603 122.438 141.192 138.915 136.772 153.248 C 136.37 154.722 137.173 156.196 138.513 156.597 C 139.853 156.999 141.326 156.196 141.862 154.856 L 141.862 154.856 Z  M 192.23 152.177 C 192.23 145.077 186.47 139.317 179.37 139.317 C 172.271 139.317 166.51 145.077 166.51 152.177 C 166.51 159.277 172.271 165.037 179.37 165.037 C 186.604 165.037 192.23 159.277 192.23 152.177 Z  M 186.872 152.177 C 186.872 156.33 183.523 159.678 179.37 159.678 C 175.218 159.678 171.869 156.33 171.869 152.177 C 171.869 148.024 175.218 144.675 179.37 144.675 C 183.523 144.675 186.872 148.024 186.872 152.177 Z  M 20.63 165.037 C 27.729 165.037 33.49 159.277 33.49 152.177 C 33.49 145.077 27.729 139.317 20.63 139.317 C 13.53 139.317 7.77 145.077 7.77 152.177 C 7.77 159.277 13.53 165.037 20.63 165.037 Z  M 20.63 159.678 C 16.477 159.678 13.128 156.33 13.128 152.177 C 13.128 148.024 16.477 144.675 20.63 144.675 C 24.782 144.675 28.131 148.024 28.131 152.177 C 28.131 156.33 24.782 159.678 20.63 159.678 Z " fill="rgb(71,132,143)"/><path d=" M 100.201 25.72 C 107.301 25.72 113.061 19.96 113.061 12.86 C 113.061 5.76 107.301 0 100.201 0 C 93.101 0 87.341 5.76 87.341 12.86 C 87.341 19.96 93.101 25.72 100.201 25.72 Z  M 100.201 20.362 C 96.048 20.362 92.699 17.013 92.699 12.86 C 92.699 8.707 96.048 5.358 100.201 5.358 C 104.354 5.358 107.703 8.707 107.703 12.86 C 107.703 17.013 104.22 20.362 100.201 20.362 Z  M 102.076 114.267 C 97.12 115.338 92.163 112.123 91.092 107.167 C 90.02 102.21 93.235 97.254 98.192 96.182 C 103.148 95.111 108.104 98.326 109.176 103.282 C 110.248 108.238 107.167 113.195 102.076 114.267 Z " fill="rgb(71,132,143)"/></g></g></svg>