<?xml version="1.0" standalone="no"?><!-- Generator: Gravit.io --><svg xmlns="http://www.w3.org/2000/svg" xmlns:xlink="http://www.w3.org/1999/xlink" style="isolation:isolate" viewBox="0 0 200 200" width="200" height="200"><defs><clipPath id="_clipPath_ddNXY0vjpQu29D5vekd2ftvGDgS07vNg"><rect width="200" height="200"/></clipPath></defs><g clip-path="url(#_clipPath_ddNXY0vjpQu29D5vekd2ftvGDgS07vNg)"><path d=" M 0 100 C 0 44.808 44.808 0 100 0 C 155.192 0 200 44.808 200 100 C 200 155.192 155.192 200 100 200 C 44.808 200 0 155.192 0 100 Z " fill="rgb(229,81,81)"/><path d=" M 162.001 101.453 C 162.441 98.24 162.674 94.95 162.674 91.598 C 162.674 74.662 156.74 59.128 145.966 47.859 C 144.76 46.598 143.496 45.413 142.197 44.278 L 142.197 22.969 L 124.098 33.608 C 116.955 30.994 109.111 29.637 100.713 29.637 C 92.132 29.637 84.173 30.967 76.981 33.533 L 58.223 22.969 L 58.223 44.626 C 57.064 45.668 55.933 46.746 54.859 47.892 C 44.473 58.968 38.753 74.489 38.753 91.598 C 38.753 93.872 38.862 96.117 39.063 98.329 C 33.294 111.98 38.203 141.611 53.465 151.565 C 56.422 148.052 58.653 144.188 60.16 140.167 C 65.228 144.324 71.004 147.548 77.384 149.786 L 77.384 163.383 C 77.384 166.852 80.196 169.665 83.666 169.665 L 88.234 169.665 C 90.445 169.665 92.864 167.873 92.864 165.662 L 92.864 177.394 C 92.864 180.822 95.643 183.602 99.071 183.602 L 102.714 183.602 C 106.143 183.602 108.922 180.822 108.922 177.394 L 108.922 165.662 C 108.922 167.873 111.341 169.665 113.552 169.665 L 118.12 169.665 C 121.589 169.665 124.402 166.852 124.402 163.383 L 124.402 149.604 C 130.163 147.52 135.438 144.626 140.14 140.951 C 141.639 144.69 143.772 148.28 146.537 151.565 C 160.72 142.315 165.96 116.074 162.001 101.453 Z  M 100.713 148.929 C 84.354 148.929 71.185 143.802 61.607 135.319 C 64.798 121.046 59.065 105.752 43.608 97.216 C 43.461 95.367 43.382 93.494 43.382 91.598 C 43.382 59.935 63.881 34.267 100.713 34.267 C 136.024 34.267 158.044 59.935 158.044 91.598 C 158.044 93.229 157.974 94.84 157.863 96.437 C 140.957 104.969 134.857 121.256 138.614 136.228 C 129.106 144.167 116.323 148.929 100.713 148.929 Z  M 143.342 77.622 C 142.86 56.5 112.672 44.637 99.844 70.678 C 87.692 44.926 56.829 56.018 56.25 77.815 C 56.733 95.561 70.042 102.891 92.804 100.19 L 99.844 108.582 L 106.981 100.19 C 131.961 101.541 142.6 95.907 143.342 77.622 Z " fill="rgb(255,255,255)"/></g></svg>