<?xml version="1.0" standalone="no"?><!-- Generator: Gravit.io --><svg xmlns="http://www.w3.org/2000/svg" xmlns:xlink="http://www.w3.org/1999/xlink" style="isolation:isolate" viewBox="0 0 200 200" width="200" height="200"><defs><clipPath id="_clipPath_wcvQxUlkOcjGnVI67UxoIDPceVjyKKH8"><rect width="200" height="200"/></clipPath></defs><g clip-path="url(#_clipPath_wcvQxUlkOcjGnVI67UxoIDPceVjyKKH8)"><g id="Group"><path d=" M 60.478 75.408 L 98.463 53.477 C 99.414 52.928 100.585 52.928 101.536 53.477 L 139.522 75.408 C 140.472 75.957 141.059 76.971 141.059 78.069 L 141.059 121.93 C 141.059 123.028 140.472 124.043 139.522 124.592 L 101.536 146.523 C 100.585 147.072 99.414 147.072 98.463 146.523 L 60.478 124.592 C 59.527 124.043 58.941 123.028 58.941 121.93 L 58.941 78.069 C 58.942 76.971 59.528 75.957 60.478 75.408 Z " fill="rgb(128,128,242)"/><path d=" M 198.763 96.076 L 153.377 17.118 C 151.729 14.263 148.683 12.157 145.387 12.157 L 54.614 12.157 C 51.317 12.157 48.271 14.263 46.622 17.118 L 1.236 95.902 C -0.412 98.758 -0.412 102.362 1.236 105.217 L 46.622 183.528 C 48.271 186.383 51.317 187.843 54.614 187.843 L 145.386 187.843 C 148.683 187.843 151.729 186.427 153.377 183.571 L 198.762 105.133 C 200.412 102.278 200.412 98.931 198.763 96.076 Z  M 161.181 134.044 C 161.181 135.205 160.483 136.279 159.476 136.86 L 101.665 170.214 C 100.659 170.795 99.4 170.795 98.394 170.214 L 40.538 136.86 C 39.533 136.279 38.829 135.206 38.829 134.044 L 38.829 67.335 C 38.829 66.174 39.522 65.101 40.529 64.519 L 98.338 31.165 C 99.343 30.584 100.601 30.584 101.607 31.165 L 159.467 64.519 C 160.473 65.101 161.181 66.174 161.181 67.335 L 161.181 134.044 L 161.181 134.044 Z " fill="rgb(75,50,195)"/></g></g></svg>