<?xml version="1.0" standalone="no"?><!-- Generator: Gravit.io --><svg xmlns="http://www.w3.org/2000/svg" xmlns:xlink="http://www.w3.org/1999/xlink" style="isolation:isolate" viewBox="0 0 200 200" width="200" height="200"><defs><clipPath id="_clipPath_OaFP3sLXpTJz5cVpBNDCeYwxkKme0cjV"><rect width="200" height="200"/></clipPath></defs><g clip-path="url(#_clipPath_OaFP3sLXpTJz5cVpBNDCeYwxkKme0cjV)"><g id="g3014"><g id="g3016"><g id="g3022"><path d=" M 124.453 193.971 C 124.453 197.301 113.47 200 99.924 200 C 86.376 200 75.395 197.301 75.395 193.971 L 73.294 162.91 L 67.356 153.043 C 67.356 153.043 79.232 157.885 99.421 157.885 C 119.611 157.885 131.67 152.952 131.67 152.952 L 126.371 161.997 L 124.453 193.971 Z " fill="rgb(227,78,72)"/></g><g id="g3026"><path d=" M 55.285 54.01 L 65.138 148.981 C 65.138 148.981 73.629 155.689 99.206 155.689 C 124.783 155.689 133.588 149.085 133.588 149.085 L 144.175 53.906 C 144.175 53.906 138.095 58.937 99.415 58.937 C 60.735 58.937 55.285 54.01 55.285 54.01 Z " fill="rgb(227,78,72)"/></g><g id="g3030"><path d=" M 145.03 50.435 C 145.03 53.93 124.869 56.764 100 56.764 C 75.131 56.764 54.97 53.93 54.97 50.435 C 54.97 46.939 75.131 44.105 100 44.105 C 124.869 44.105 145.03 46.939 145.03 50.435 Z " fill="rgb(227,78,72)"/></g><g id="g3034"><path d=" M 116.057 53.571 C 116.815 53.468 117.984 53.329 117.989 52.41 C 117.99 51.87 117.536 51.558 117.015 51.396 L 116.628 52.001 C 116.948 52.078 117.131 52.175 117.131 52.278 C 117.129 52.618 114.702 52.783 112.694 52.808 C 110.685 52.833 108.059 52.597 108.061 52.252 C 108.061 52.179 108.158 52.11 108.327 52.051 L 107.938 51.442 C 107.527 51.609 107.205 51.877 107.203 52.331 C 107.202 52.57 107.308 52.922 107.503 53.1 C 108.229 53.761 110.052 53.788 112.618 53.778 C 115.184 53.767 116.057 53.571 116.057 53.571 Z " fill="rgb(255,255,255)"/></g><g id="g3038"><path d=" M 144.688 5.313 C 144.126 5.961 142.365 5.355 140.754 3.959 C 139.143 2.564 138.292 0.907 138.853 0.26 C 139.415 -0.388 141.175 0.218 142.787 1.613 C 144.397 3.009 145.248 4.665 144.688 5.313 Z " fill="rgb(227,78,72)"/></g><g id="g3042"><path d=" M 138.853 0.26 L 115.239 25.26 L 110.542 44.364 L 118.386 44.711 L 122.427 28.736 L 144.731 5.267 L 138.853 0.26 Z " fill="rgb(227,78,72)"/></g><g id="g3046"><path d=" M 61.912 118.177 C 68.078 121.231 72.897 115.118 75.511 112.706 C 75.674 114.345 71.152 123.696 73.928 124.574 C 76.704 125.453 77.869 117.812 80.083 110.568 C 82.055 104.117 85.012 96.82 82.292 96.079 C 79.573 95.337 78.732 102.407 77.489 104.794 C 75.723 108.181 65.287 119.592 64.038 111.123 C 63.058 104.481 70.478 91.159 73.928 87.782 C 75.658 86.089 78.336 84.526 80.258 85.013 C 82.923 85.688 83.151 90.284 85.401 90.156 C 90.717 89.852 84.511 80.901 79.863 80.661 C 69.578 80.131 63.077 96.03 60.377 103.738 C 60.188 106.113 61.912 118.177 61.912 118.177 Z " fill-rule="evenodd" fill="rgb(255,255,255)"/></g><g id="g3050"><path d=" M 137.645 113.337 C 134.501 116.48 124.043 122.254 123.38 115.871 C 122.851 110.785 134.504 103.419 131.513 103.183 C 125.076 103.551 121.872 110.728 118.632 118.244 C 117.445 120.999 113.384 132.746 110.72 131.3 C 108.057 129.854 114.172 120.195 115.887 114.458 C 113.909 115.909 106.655 121.544 104.786 116.266 C 101.78 118.819 95.358 120.202 96.083 113.497 C 94.484 116.329 90.895 120.283 86.588 118.64 C 80.931 116.483 89.866 98.464 92.087 99.373 C 94.309 100.282 91.639 104.386 90.94 105.98 C 89.402 109.488 87.625 113.898 88.812 114.801 C 90.845 116.347 96.379 108.95 96.502 108.788 C 97.537 107.42 100.485 98.475 102.861 99.502 C 105.238 100.529 96.934 112.34 100.039 114.684 C 100.665 115.157 103.227 114.392 104.786 112.706 C 105.794 111.615 105.447 109.199 108.809 101.183 C 112.17 93.167 115.166 83.184 117.471 83.944 C 119.777 84.705 117.877 89.828 117.05 91.738 C 113.169 100.703 106.458 115.513 109.623 114.392 C 112.787 113.271 114.436 113.205 117.535 109.579 C 120.634 105.952 120.491 99.978 122.557 100.105 C 124.623 100.232 124.276 102.148 123.775 103.607 C 125.808 101.28 133.412 96.38 135.248 101.233 C 137.423 106.978 124.369 115.277 127.623 114.854 C 130.878 114.431 136.212 111.015 138.305 107.996 C 138.309 107.99 137.645 113.337 137.645 113.337 Z " fill-rule="evenodd" fill="rgb(255,255,255)"/></g></g></g></g></svg>