<?xml version="1.0" standalone="no"?><!-- Generator: Gravit.io --><svg xmlns="http://www.w3.org/2000/svg" xmlns:xlink="http://www.w3.org/1999/xlink" style="isolation:isolate" viewBox="0 0 200 200" width="200" height="200"><defs><clipPath id="_clipPath_YW6wA2aH8g2zGNBYBweCozICFi6esnUR"><rect width="200" height="200"/></clipPath></defs><g clip-path="url(#_clipPath_YW6wA2aH8g2zGNBYBweCozICFi6esnUR)"><path d=" M 92.774 82.813 L 108.352 82.813 L 112.222 77.515 L 112.222 36.018 L 88.906 36.018 L 88.906 77.519 L 92.774 82.813 Z " fill="rgb(138,65,130)"/><path d=" M 82.733 101.321 L 87.545 86.591 L 83.674 81.294 L 43.983 68.471 L 36.779 90.519 L 76.475 103.344 L 82.733 101.321 Z " fill="rgb(138,65,130)"/><path d=" M 97.332 116.538 L 84.731 107.432 L 78.467 109.457 L 53.938 143.029 L 72.8 156.655 L 97.332 123.082 L 97.332 116.538 Z " fill="rgb(138,65,130)"/><path d=" M 116.398 107.431 L 103.793 116.535 L 103.796 123.083 L 128.326 156.655 L 147.189 143.029 L 122.655 109.454 L 116.398 107.431 Z " fill="rgb(138,65,130)"/><path d=" M 113.577 86.588 L 118.392 101.32 L 124.655 103.342 L 164.347 90.519 L 157.141 68.47 L 117.448 81.295 L 113.577 86.588 Z " fill="rgb(138,65,130)"/><path d=" M 100.568 0 C 45.115 0 0 44.853 0 99.984 C 0 155.135 45.115 200 100.568 200 C 156.015 200 201.125 155.135 201.125 99.984 C 201.125 44.853 156.015 0 100.568 0 L 100.568 0 L 100.568 0 Z  M 100.568 20.245 C 144.851 20.245 180.762 55.941 180.762 99.984 C 180.762 144.041 144.851 179.752 100.568 179.752 C 56.269 179.752 20.363 144.041 20.363 99.984 C 20.363 55.941 56.269 20.245 100.568 20.245 L 100.568 20.245 Z " fill="rgb(138,65,130)"/><path d=" M 161.477 122.208 L 131.305 112.459 L 133.299 106.348 L 163.471 116.097 L 161.477 122.208 Z " fill="rgb(138,65,130)"/><path d=" M 122.996 74.043 L 117.767 70.267 L 136.413 44.746 L 141.641 48.522 L 122.996 74.043 Z " fill="rgb(138,65,130)"/><path d=" M 78.454 73.811 L 59.81 48.289 L 65.039 44.513 L 83.683 70.034 L 78.454 73.811 Z " fill="rgb(138,65,130)"/><path d=" M 39.526 121.827 L 37.53 115.716 L 67.699 105.971 L 69.695 112.082 L 39.526 121.827 Z " fill="rgb(138,65,130)"/><path d=" M 97.134 163.736 L 103.595 163.736 L 103.595 132.189 L 97.134 132.189 L 97.134 163.736 L 97.134 163.736 Z " fill="rgb(138,65,130)"/></g></svg>