<?xml version="1.0" standalone="no"?><!-- Generator: Gravit.io --><svg xmlns="http://www.w3.org/2000/svg" xmlns:xlink="http://www.w3.org/1999/xlink" style="isolation:isolate" viewBox="0 0 200 200" width="200" height="200"><defs><clipPath id="_clipPath_V7Up89f9qHWnY1qeRqw90ZtAzfDsjVB5"><rect width="200" height="200"/></clipPath></defs><g clip-path="url(#_clipPath_V7Up89f9qHWnY1qeRqw90ZtAzfDsjVB5)"><rect x="0" y="0" width="200" height="200" transform="matrix(1,0,0,1,0,0)" fill="rgb(247,223,30)"/><path d=" M 134.349 156.251 C 138.378 162.829 143.619 167.663 152.889 167.663 C 160.676 167.663 165.651 163.771 165.651 158.394 C 165.651 151.949 160.54 149.667 151.968 145.917 L 147.27 143.902 C 133.708 138.124 124.698 130.886 124.698 115.584 C 124.698 101.489 135.438 90.759 152.222 90.759 C 164.171 90.759 172.762 94.917 178.952 105.806 L 164.317 115.203 C 161.095 109.425 157.619 107.149 152.222 107.149 C 146.717 107.149 143.229 110.641 143.229 115.203 C 143.229 120.841 146.721 123.124 154.784 126.616 L 159.483 128.629 C 175.451 135.476 184.467 142.457 184.467 158.152 C 184.467 175.073 171.175 184.343 153.324 184.343 C 135.87 184.343 124.594 176.025 119.076 165.124 L 134.349 156.251 Z  M 67.959 157.879 C 70.911 163.117 73.597 167.546 80.054 167.546 C 86.229 167.546 90.124 165.13 90.124 155.737 L 90.124 91.832 L 108.917 91.832 L 108.917 155.99 C 108.917 175.451 97.508 184.308 80.854 184.308 C 65.806 184.308 57.092 176.521 52.66 167.141 L 67.959 157.879 Z " fill="rgb(0,0,0)"/></g></svg>