<?xml version="1.0" standalone="no"?><!-- Generator: Gravit.io --><svg xmlns="http://www.w3.org/2000/svg" xmlns:xlink="http://www.w3.org/1999/xlink" style="isolation:isolate" viewBox="0 0 200 200" width="200" height="200"><defs><clipPath id="_clipPath_ReEKtTTjSvBG1xOQVsGnMKoTiS1GvM1U"><rect width="200" height="200"/></clipPath></defs><g clip-path="url(#_clipPath_ReEKtTTjSvBG1xOQVsGnMKoTiS1GvM1U)"><g id="Group"><path d=" M 129.259 55.356 L 117.273 79.56 C 121.211 83.208 123.99 88.014 125.09 93.457 L 134.123 93.457 C 135.166 88.303 137.713 83.671 141.361 80.081 L 129.259 55.356 Z " fill="none"/><path d=" M 107.198 73.712 L 129.259 29.126 L 151.263 74.001 C 152.131 73.712 153 73.48 153.869 73.248 L 174.772 11.581 L 83.689 11.581 L 104.535 73.075 C 105.403 73.248 106.33 73.48 107.198 73.712 Z " fill="none"/><path d=" M 99.613 113.144 C 107.661 113.144 114.204 106.601 114.204 98.552 C 114.204 95.599 113.336 92.878 111.83 90.562 C 111.367 89.809 110.788 89.114 110.209 88.477 C 110.209 88.477 110.151 88.419 110.151 88.419 C 109.572 87.782 108.877 87.203 108.182 86.74 C 108.182 86.74 108.125 86.682 108.125 86.682 C 107.951 86.566 107.719 86.393 107.488 86.277 C 107.43 86.277 107.43 86.219 107.372 86.219 C 107.14 86.103 106.909 85.929 106.677 85.814 C 106.677 85.814 106.677 85.814 106.619 85.814 C 106.387 85.698 106.098 85.524 105.866 85.408 C 105.866 85.408 105.808 85.408 105.808 85.408 C 105.577 85.292 105.345 85.177 105.114 85.119 C 105.056 85.119 104.998 85.061 104.94 85.061 C 104.766 85.003 104.535 84.887 104.361 84.829 C 104.303 84.829 104.245 84.771 104.129 84.771 C 103.898 84.713 103.666 84.598 103.434 84.54 C 103.376 84.54 103.376 84.54 103.376 84.54 C 103.087 84.482 102.855 84.424 102.566 84.366 C 102.508 84.366 102.45 84.366 102.334 84.308 C 102.103 84.25 101.929 84.25 101.697 84.192 C 101.581 84.192 101.524 84.192 101.408 84.134 C 101.234 84.134 101.002 84.076 100.829 84.076 C 100.713 84.076 100.655 84.076 100.539 84.076 C 100.25 84.076 99.96 84.076 99.671 84.076 C 99.381 84.076 99.092 84.076 98.802 84.076 C 98.744 84.076 98.628 84.076 98.57 84.076 C 98.339 84.076 98.165 84.134 97.933 84.134 C 97.876 84.134 97.818 84.134 97.702 84.134 C 97.47 84.192 97.239 84.192 97.007 84.25 C 96.949 84.25 96.891 84.25 96.833 84.25 C 96.544 84.308 96.312 84.366 96.023 84.424 C 89.653 85.987 84.905 91.778 84.905 98.61 C 85.021 106.543 91.564 113.144 99.613 113.144 Z " fill="none"/><path d=" M 160.991 83.961 C 160.933 83.961 160.933 83.961 160.875 83.961 C 160.643 83.961 160.47 83.903 160.238 83.903 C 160.006 83.903 159.775 83.903 159.485 83.903 C 159.196 83.903 158.906 83.903 158.559 83.961 C 158.443 83.961 158.385 83.961 158.269 83.961 C 158.038 83.961 157.806 84.019 157.574 84.019 C 157.517 84.019 157.401 84.019 157.343 84.076 C 157.053 84.134 156.764 84.192 156.474 84.25 C 156.474 84.25 156.416 84.25 156.416 84.25 C 156.127 84.308 155.895 84.366 155.606 84.424 C 155.548 84.424 155.432 84.482 155.374 84.482 C 155.142 84.54 154.911 84.598 154.679 84.713 C 154.621 84.713 154.563 84.771 154.506 84.771 C 154.216 84.887 153.927 85.003 153.695 85.119 C 153.695 85.119 153.695 85.119 153.695 85.119 C 153.405 85.235 153.174 85.35 152.884 85.466 C 152.826 85.466 152.768 85.524 152.711 85.524 C 152.479 85.64 152.247 85.756 152.016 85.929 C 152.016 85.929 151.958 85.929 151.958 85.987 C 151.437 86.277 150.916 86.624 150.452 87.03 C 150.452 87.03 150.394 87.087 150.394 87.087 C 149.642 87.666 149.005 88.303 148.368 88.998 C 148.368 88.998 148.368 88.998 148.368 88.998 C 147.731 89.693 147.21 90.504 146.746 91.314 C 145.53 93.457 144.836 95.947 144.836 98.552 C 144.836 106.601 151.379 113.144 159.427 113.144 C 167.476 113.144 174.019 106.601 174.019 98.552 C 174.019 91.488 168.924 85.524 162.265 84.192 C 161.917 84.076 161.454 84.019 160.991 83.961 Z " fill="none"/><path d=" M 39.103 113.144 C 47.152 113.144 53.695 106.601 53.695 98.552 C 53.695 90.504 47.152 83.961 39.103 83.961 C 31.054 83.961 24.511 90.504 24.511 98.552 C 24.511 106.601 31.054 113.144 39.103 113.144 Z " fill="none"/><path d=" M 159.543 124.435 C 147.499 124.435 137.366 116.155 134.471 105.038 L 124.743 105.038 C 121.848 116.155 111.715 124.435 99.671 124.435 C 98.281 124.435 96.949 124.32 95.675 124.146 C 92.317 129.299 88.321 134.047 83.631 138.448 C 75.351 146.265 65.971 152.056 55.837 155.704 L 53.463 156.572 L 51.263 155.414 C 39.103 149.16 32.85 136.479 35.05 124.204 C 33.66 123.972 32.328 123.625 31.054 123.162 C 30.823 123.567 30.649 124.03 30.418 124.493 C 26.712 132.137 22.832 140.012 21.442 148.466 C 19.937 157.499 19.3 174.001 32.039 182.803 C 37.598 186.624 43.446 188.535 49.989 188.535 C 62.554 188.535 76.104 181.818 90.464 174.696 C 101.697 169.137 113.278 163.347 125.322 160.394 C 129.896 159.294 134.529 158.599 138.987 157.962 C 147.152 156.804 154.911 155.646 161.222 151.998 C 167.939 148.118 172.514 141.633 173.788 134.221 C 174.598 129.705 174.135 125.13 172.629 120.903 C 168.808 123.104 164.349 124.435 159.543 124.435 Z " fill="none"/><path d=" M 185.426 98.495 C 185.426 86.45 177.146 76.317 166.028 73.422 L 190.927 0 L 67.534 0 L 92.491 73.654 C 81.72 76.781 73.788 86.74 73.788 98.552 C 73.788 107.238 78.13 114.939 84.731 119.687 C 82.126 123.393 79.115 126.809 75.698 130.052 C 69.271 136.074 62.149 140.706 54.448 143.775 C 47.499 139.085 44.488 130.805 47.21 123.393 C 57.806 120.151 65.507 110.249 65.507 98.61 C 65.507 84.308 53.869 72.727 39.624 72.727 C 25.322 72.727 13.683 84.366 13.683 98.668 C 13.683 105.732 16.579 112.218 21.211 116.85 C 20.805 117.661 20.4 118.471 19.995 119.34 C 16.115 127.331 11.715 136.364 10.035 146.497 C 6.677 166.763 12.178 183.034 25.438 192.241 C 32.907 197.394 41.13 200 49.989 200 C 65.218 200 80.678 192.357 95.617 184.945 C 106.272 179.676 117.273 174.175 128.101 171.511 C 132.097 170.527 136.266 169.948 140.667 169.311 C 149.584 168.037 158.79 166.705 167.071 161.899 C 176.741 156.283 183.342 146.902 185.253 136.132 C 186.7 127.852 185.253 119.514 181.547 112.218 C 184.037 108.222 185.426 103.532 185.426 98.495 Z  M 174.135 98.495 C 174.135 106.543 167.592 113.086 159.543 113.086 C 151.495 113.086 144.951 106.543 144.951 98.495 C 144.951 95.889 145.646 93.399 146.862 91.257 C 147.325 90.446 147.905 89.635 148.484 88.94 C 148.484 88.94 148.484 88.94 148.484 88.94 C 149.063 88.246 149.757 87.609 150.51 87.03 C 150.51 87.03 150.568 86.972 150.568 86.972 C 151.031 86.624 151.552 86.277 152.074 85.929 C 152.074 85.929 152.131 85.929 152.131 85.871 C 152.363 85.756 152.595 85.582 152.826 85.466 C 152.884 85.466 152.942 85.408 153 85.408 C 153.232 85.292 153.521 85.177 153.811 85.061 C 153.811 85.061 153.811 85.061 153.811 85.061 C 154.1 84.945 154.39 84.829 154.621 84.713 C 154.679 84.713 154.737 84.655 154.795 84.655 C 155.027 84.598 155.258 84.482 155.49 84.424 C 155.548 84.424 155.664 84.366 155.722 84.366 C 156.011 84.308 156.243 84.25 156.532 84.192 C 156.532 84.192 156.59 84.192 156.59 84.192 C 156.88 84.134 157.169 84.076 157.459 84.019 C 157.517 84.019 157.632 84.019 157.69 83.961 C 157.922 83.961 158.153 83.903 158.385 83.903 C 158.501 83.903 158.559 83.903 158.675 83.903 C 158.964 83.903 159.254 83.845 159.601 83.845 C 159.833 83.845 160.064 83.845 160.354 83.845 C 160.585 83.845 160.759 83.845 160.991 83.903 C 161.049 83.903 161.049 83.903 161.107 83.903 C 161.57 83.961 162.033 84.019 162.496 84.134 C 169.097 85.524 174.135 91.43 174.135 98.495 Z  M 83.689 11.581 L 174.772 11.581 L 153.869 73.248 C 153 73.422 152.131 73.712 151.263 74.001 L 129.259 29.126 L 107.198 73.712 C 106.33 73.422 105.403 73.248 104.477 73.075 L 83.689 11.581 Z  M 125.09 93.457 C 123.99 88.014 121.211 83.15 117.273 79.56 L 129.259 55.356 L 141.361 80.081 C 137.771 83.671 135.166 88.246 134.123 93.457 L 125.09 93.457 Z  M 96.081 84.308 C 96.37 84.25 96.602 84.192 96.891 84.134 C 96.949 84.134 97.007 84.134 97.065 84.134 C 97.297 84.076 97.528 84.076 97.76 84.019 C 97.818 84.019 97.876 84.019 97.991 84.019 C 98.223 84.019 98.397 83.961 98.628 83.961 C 98.686 83.961 98.802 83.961 98.86 83.961 C 99.149 83.961 99.439 83.961 99.728 83.961 C 100.018 83.961 100.308 83.961 100.597 83.961 C 100.713 83.961 100.771 83.961 100.887 83.961 C 101.118 83.961 101.292 84.019 101.466 84.019 C 101.581 84.019 101.639 84.019 101.755 84.076 C 101.987 84.134 102.16 84.134 102.392 84.192 C 102.45 84.192 102.508 84.192 102.624 84.25 C 102.913 84.308 103.203 84.366 103.434 84.424 C 103.492 84.424 103.492 84.424 103.492 84.424 C 103.724 84.482 103.955 84.54 104.187 84.655 C 104.245 84.655 104.303 84.713 104.419 84.713 C 104.592 84.771 104.824 84.829 104.998 84.945 C 105.056 84.945 105.114 85.003 105.171 85.003 C 105.403 85.119 105.635 85.177 105.866 85.292 C 105.866 85.292 105.924 85.292 105.924 85.292 C 106.214 85.408 106.445 85.524 106.677 85.698 C 106.677 85.698 106.677 85.698 106.735 85.698 C 106.966 85.814 107.198 85.987 107.43 86.103 C 107.488 86.103 107.488 86.161 107.546 86.161 C 107.777 86.277 107.951 86.45 108.182 86.566 C 108.182 86.566 108.24 86.624 108.24 86.624 C 108.935 87.145 109.572 87.724 110.209 88.303 C 110.209 88.303 110.267 88.361 110.267 88.361 C 110.846 88.998 111.425 89.693 111.888 90.446 C 113.394 92.762 114.262 95.483 114.262 98.437 C 114.262 106.485 107.719 113.028 99.671 113.028 C 91.622 113.028 85.079 106.485 85.079 98.437 C 85.021 91.662 89.711 85.929 96.081 84.308 Z  M 39.103 83.903 C 47.152 83.903 53.695 90.446 53.695 98.495 C 53.695 106.543 47.152 113.086 39.103 113.086 C 31.054 113.086 24.511 106.543 24.511 98.495 C 24.511 90.446 31.054 83.903 39.103 83.903 Z  M 173.788 134.105 C 172.514 141.517 167.939 148.002 161.222 151.882 C 154.911 155.53 147.152 156.688 138.987 157.846 C 134.529 158.483 129.839 159.178 125.322 160.278 C 113.278 163.231 101.697 169.021 90.464 174.58 C 76.104 181.702 62.554 188.419 49.989 188.419 C 43.446 188.419 37.598 186.566 32.039 182.687 C 19.3 173.885 19.937 157.383 21.442 148.35 C 22.832 139.896 26.712 131.963 30.418 124.378 C 30.649 123.914 30.823 123.509 31.054 123.046 C 32.328 123.509 33.66 123.856 35.05 124.088 C 32.85 136.364 39.103 149.045 51.263 155.298 L 53.463 156.456 L 55.837 155.588 C 65.971 151.998 75.351 146.149 83.631 138.332 C 88.321 133.932 92.317 129.184 95.675 124.03 C 97.007 124.262 98.339 124.32 99.671 124.32 C 111.715 124.32 121.848 116.039 124.743 104.922 L 134.471 104.922 C 137.366 116.097 147.499 124.32 159.543 124.32 C 164.349 124.32 168.808 122.988 172.629 120.73 C 174.135 125.072 174.598 129.589 173.788 134.105 Z " fill="rgb(153,66,79)"/></g></g></svg>