<?xml version="1.0" standalone="no"?><!-- Generator: Gravit.io --><svg xmlns="http://www.w3.org/2000/svg" xmlns:xlink="http://www.w3.org/1999/xlink" style="isolation:isolate" viewBox="0 0 200 200" width="200" height="200"><defs><clipPath id="_clipPath_cmDqq9EhqAmF5HcU5S9VdqoVWeSP3hfR"><rect width="200" height="200"/></clipPath></defs><g clip-path="url(#_clipPath_cmDqq9EhqAmF5HcU5S9VdqoVWeSP3hfR)"><linearGradient id="_lgradient_10" x1="50%" y1="-0.000004719117985274579%" x2="49.999999999999986%" y2="99.99999999999996%"><stop offset="14.97%" stop-opacity="1" style="stop-color:rgb(42,79,132)"/><stop offset="38.839999%" stop-opacity="1" style="stop-color:rgb(41,78,130)"/><stop offset="100%" stop-opacity="1" style="stop-color:rgb(23,46,78)"/></linearGradient><path d=" M 189.707 127.258 C 189.707 136.664 182.011 144.36 172.605 144.36 L 28.858 144.36 C 19.452 144.36 11.756 136.664 11.756 127.258 L 11.756 72.792 C 11.756 63.386 19.452 55.69 28.858 55.69 L 172.605 55.69 C 182.011 55.69 189.707 63.386 189.707 72.792 L 189.707 127.258 L 189.707 127.258 Z " fill="url(#_lgradient_10)"/><path d=" M 159.637 98.861 C 167.15 101.49 170.904 105.993 170.904 112.365 C 170.904 116.559 169.347 119.888 166.24 122.35 C 163.135 124.814 158.707 126.343 152.942 126.343 C 147.178 126.343 141.845 124.673 136.934 121.931 C 136.988 120.477 137.372 118.882 138.077 117.15 C 138.783 115.418 139.618 114.042 140.575 113.037 C 145.088 115.383 149.016 116.558 152.35 116.558 C 153.926 116.558 155.145 116.293 155.993 115.761 C 156.843 115.23 157.266 114.518 157.266 113.623 C 157.266 111.941 155.963 110.683 153.367 109.845 L 148.702 108.083 C 141.645 105.511 138.116 101.321 138.116 95.499 C 138.116 91.249 139.598 87.88 142.563 85.388 C 145.528 82.899 149.524 80.756 154.548 80.756 C 157.033 80.756 159.77 81.105 162.764 81.804 C 165.756 82.505 168.213 84.23 170.133 85.178 C 170.246 86.745 169.932 88.465 169.201 90.338 C 168.466 92.213 167.564 93.541 166.488 94.325 C 161.742 92.198 157.792 91.135 154.628 91.135 C 153.495 91.135 152.642 91.387 152.043 91.892 C 151.45 92.397 151.159 93.038 151.159 93.822 C 151.159 95.165 152.23 96.226 154.378 97.01 L 159.637 98.861 L 159.637 98.861 Z " fill="rgb(246,246,246)"/><path d=" M 122.111 98.861 C 129.624 101.49 133.378 105.993 133.378 112.365 C 133.378 116.559 131.82 119.888 128.718 122.35 C 125.61 124.814 121.18 126.343 115.417 126.343 C 109.658 126.343 104.319 124.673 99.409 121.931 C 99.463 120.477 99.847 118.882 100.554 117.15 C 101.259 115.418 102.091 114.042 103.051 113.037 C 107.57 115.383 111.496 116.558 114.828 116.558 C 116.405 116.558 117.625 116.293 118.47 115.761 C 119.317 115.23 119.743 114.518 119.743 113.623 C 119.743 111.941 118.44 110.683 115.843 109.845 L 111.181 108.083 C 104.123 105.511 100.592 101.321 100.592 95.499 C 100.592 91.249 102.075 87.88 105.043 85.388 C 108.006 82.899 112 80.756 117.024 80.756 C 119.508 80.756 122.251 81.105 125.239 81.804 C 128.234 82.505 130.688 84.23 132.609 85.178 C 132.722 86.745 132.408 88.465 131.678 90.338 C 130.944 92.213 130.041 93.541 128.966 94.325 C 124.218 92.198 120.268 91.135 117.103 91.135 C 115.971 91.135 115.115 91.387 114.519 91.892 C 113.928 92.397 113.634 93.038 113.634 93.822 C 113.634 95.165 114.707 96.226 116.855 97.01 L 122.111 98.861 L 122.111 98.861 Z " fill="rgb(246,246,246)"/><path d=" M 94.746 99.453 C 94.746 96.881 94.337 94.504 93.518 92.321 C 92.702 90.139 91.529 88.267 90.005 86.7 C 88.479 85.133 86.631 83.903 84.458 83.008 C 82.282 82.115 79.84 80.767 77.13 80.767 C 73.91 80.767 71.101 82.225 68.702 83.344 C 66.303 84.462 64.326 85.999 62.774 87.957 C 61.218 89.917 60.061 92.223 59.299 94.88 C 58.537 97.537 58.156 100.431 58.156 103.562 C 58.156 106.803 58.465 109.801 59.087 112.541 C 59.708 115.278 60.767 117.653 62.263 119.67 C 63.76 121.683 65.708 123.248 68.109 124.365 C 70.51 125.483 73.489 126.341 77.046 126.341 C 83.596 126.341 89.129 124.444 93.648 121.259 C 93.2 118.018 92.046 115.441 90.191 113.539 C 87.883 114.406 85.842 115.026 84.072 115.407 C 82.3 115.784 80.738 115.973 79.389 115.973 C 76.689 115.973 74.745 115.286 73.566 113.899 C 72.388 112.516 71.742 110.881 71.627 108.397 L 93.651 108.397 C 94.379 106.045 94.746 102.866 94.746 99.453 L 94.746 99.453 Z  M 71.543 100.034 C 71.711 97.179 72.232 94.125 73.099 92.867 C 73.967 91.608 75.297 90.979 77.091 90.979 C 78.94 90.979 80.327 91.648 81.251 92.991 C 82.176 94.333 82.638 97.038 82.638 99.108 L 82.64 100.034 L 71.543 100.034 L 71.543 100.034 L 71.543 100.034 Z " fill="rgb(246,246,246)"/><path d=" M 194.141 105.616 C 191.747 107.707 190.358 110.716 190.358 114.651 L 190.358 129.304 C 190.358 134.175 188.86 137.88 185.478 140.427 C 182.099 142.971 178.16 144.23 173.663 144.352 L 170.998 144.332 L 170.998 137.03 C 173.347 136.345 174.312 135.548 175.247 134.643 C 176.94 133.112 178.238 130.622 178.238 127.163 L 178.238 115.333 C 178.301 111.312 178.611 108.161 180.074 105.885 C 181.544 103.609 184.403 101.619 188.654 99.901 C 183.959 97.752 180.806 94.945 179.199 91.483 C 178.254 89.427 178.236 86.652 178.236 83.161 L 178.236 72.313 C 178.236 68.729 177.063 66.219 175.621 64.786 C 174.683 63.851 173.591 63.104 170.994 62.54 L 170.994 55.686 C 174.17 55.719 175.774 55.683 177.624 55.686 C 180.472 55.663 182.858 57.22 184.934 58.842 C 187.195 60.62 188.802 63.025 189.743 66.051 C 190.279 67.799 190.356 69.469 190.356 71.06 L 190.356 83.607 C 190.356 88.039 191.665 91.333 193.903 93.484 C 195.164 94.732 196.944 95.873 200 96.903 L 200 102.571 C 197.292 103.32 195.591 104.335 194.141 105.616 Z " fill="rgb(246,246,246)" vector-effect="non-scaling-stroke" stroke-width="1.078" stroke="rgb(64,64,64)" stroke-linejoin="miter" stroke-linecap="butt" stroke-miterlimit="10"/><path d=" M 25.675 55.69 L 25.675 55.7 C 24.765 55.695 23.941 55.691 23.283 55.693 C 20.433 55.668 18.047 57.225 15.973 58.849 C 13.708 60.627 11.77 62.948 11.163 66.057 C 10.817 67.881 10.89 69.475 10.89 71.067 L 10.89 83.614 C 10.89 88.044 9.242 91.337 7.006 93.491 C 5.746 94.739 3.058 95.878 0 96.908 L 0 102.576 C 2.71 103.323 5.319 104.334 6.766 105.619 C 9.162 107.712 10.888 110.723 10.888 114.657 L 10.888 129.311 C 10.888 134.179 12.05 137.887 15.429 140.43 C 18.807 142.972 22.745 144.237 27.242 144.36 L 30.252 144.34 L 30.252 137.033 C 27.904 136.346 26.6 135.549 25.66 134.647 C 23.968 133.115 23.01 130.626 23.01 127.169 L 23.01 115.337 C 22.945 111.313 22.296 108.165 20.83 105.888 C 19.365 103.615 16.505 101.622 12.249 99.905 C 16.946 97.754 20.097 94.949 21.704 91.489 C 22.651 89.431 23.01 86.656 23.01 83.166 L 23.01 72.317 C 23.01 68.734 23.842 66.223 25.282 64.789 C 26.064 64.011 27.455 63.37 29.387 62.851 L 32.441 62.873 C 32.441 60.244 32.441 58.598 32.441 55.689 L 25.675 55.689 L 25.675 55.69 L 25.675 55.69 L 25.675 55.69 Z " fill="rgb(246,246,246)" vector-effect="non-scaling-stroke" stroke-width="1.078" stroke="rgb(64,64,64)" stroke-linejoin="miter" stroke-linecap="butt" stroke-miterlimit="10"/><path d=" M 53.836 115.138 L 51.548 115.138 C 49.061 115.138 48.124 113.831 48.124 111.204 L 48.124 62.927 C 48.124 60.024 47.286 57.986 46.213 56.811 C 45.14 55.64 43.276 55.652 40.623 55.652 L 35.457 55.652 L 34.848 55.64 L 34.848 55.69 L 34.843 62.875 L 34.843 113.54 C 34.843 117.569 35.748 120.517 37.359 122.394 C 38.971 124.267 41.694 125.202 45.534 125.202 C 48.189 125.202 51.21 124.922 54.597 124.362 C 54.767 123.796 54.852 122.585 54.852 120.727 C 54.852 118.863 54.513 117.005 53.836 115.138 Z " fill="rgb(246,246,246)"/></g></svg>