<?xml version="1.0" standalone="no"?><!-- Generator: Gravit.io --><svg xmlns="http://www.w3.org/2000/svg" xmlns:xlink="http://www.w3.org/1999/xlink" style="isolation:isolate" viewBox="0 0 100 100" width="100" height="100"><defs><clipPath id="_clipPath_l520JhE31y2AAU31zVlFtuRI8hJsf9VJ"><rect width="100" height="100"/></clipPath></defs><g clip-path="url(#_clipPath_l520JhE31y2AAU31zVlFtuRI8hJsf9VJ)"><g id="Monogram"><rect x="0" y="0" width="100" height="100" transform="matrix(1,0,0,1,0,0)" fill="rgb(18,16,14)"/><path d=" M 23.864 33.444 C 23.947 32.619 23.633 31.804 23.017 31.249 L 16.744 23.693 L 16.744 22.564 L 36.221 22.564 L 51.275 55.58 L 64.51 22.564 L 83.077 22.564 L 83.077 23.693 L 77.714 28.835 C 77.252 29.187 77.022 29.767 77.118 30.34 L 77.118 68.122 C 77.022 68.695 77.252 69.274 77.714 69.627 L 82.951 74.769 L 82.951 75.897 L 56.607 75.897 L 56.607 74.769 L 62.032 69.501 C 62.566 68.968 62.566 68.811 62.566 67.996 L 62.566 37.457 L 47.48 75.772 L 45.441 75.772 L 27.878 37.457 L 27.878 63.136 C 27.732 64.216 28.09 65.303 28.85 66.084 L 35.907 74.643 L 35.907 75.772 L 15.897 75.772 L 15.897 74.643 L 22.954 66.084 C 23.709 65.302 24.046 64.207 23.864 63.136 L 23.864 33.444 Z " fill="rgb(255,255,255)"/></g></g></svg>