<?xml version="1.0" standalone="no"?><!-- Generator: Gravit.io --><svg xmlns="http://www.w3.org/2000/svg" xmlns:xlink="http://www.w3.org/1999/xlink" style="isolation:isolate" viewBox="0 0 200 200" width="200" height="200"><defs><clipPath id="_clipPath_ky1b77lSPGqkOCvEpNA6sc8l6nbKDXPh"><rect width="200" height="200"/></clipPath></defs><g clip-path="url(#_clipPath_ky1b77lSPGqkOCvEpNA6sc8l6nbKDXPh)"><g id="Group"><path d=" M 182.662 153.892 L 105.368 198.551 C 102.04 200.483 97.96 200.483 94.632 198.551 L 17.338 153.892 C 14.01 151.959 11.97 148.417 11.97 144.659 L 11.97 55.341 C 11.97 51.476 14.01 48.041 17.338 46.108 L 94.632 1.449 C 97.96 -0.483 102.04 -0.483 105.368 1.449 L 182.662 46.108 C 185.99 48.041 188.03 51.583 188.03 55.341 L 188.03 144.659 C 187.923 148.417 185.883 151.959 182.662 153.892 L 182.662 153.892 Z " fill-rule="evenodd" fill="rgb(141,103,72)"/><path d=" M 99.893 16.801 L 99.893 16.801 C 100.966 16.801 101.932 17.123 102.899 17.66 L 169.673 56.2 C 171.498 57.273 172.678 59.313 172.678 61.46 L 172.678 138.54 C 172.678 140.687 171.498 142.727 169.673 143.8 L 102.899 182.34 C 101.932 182.877 100.966 183.199 99.893 183.199 C 98.819 183.199 97.746 182.877 96.887 182.34 L 30.113 143.8 C 28.288 142.727 27.107 140.687 27.107 138.54 L 27.107 61.46 C 27.107 59.313 28.288 57.273 30.113 56.2 L 96.887 17.66 C 97.853 17.123 98.926 16.801 99.893 16.801 Z  M 99.893 13.58 C 98.282 13.58 96.672 14.01 95.276 14.868 L 28.502 53.408 C 25.604 55.019 23.886 58.132 23.886 61.353 L 23.886 138.433 C 23.886 141.761 25.604 144.766 28.502 146.377 L 95.276 184.917 C 96.672 185.776 98.282 186.205 99.893 186.205 C 101.503 186.205 103.113 185.776 104.509 184.917 L 171.283 146.377 C 174.181 144.766 175.899 141.653 175.899 138.433 L 175.899 61.353 C 175.899 58.025 174.181 55.019 171.283 53.408 L 104.509 14.868 C 103.113 14.01 101.503 13.58 99.893 13.58 L 99.893 13.58 Z " fill="rgb(255,255,255)"/><g id="XMLID_228_"><g id="XMLID_223_"><g id="XMLID_295_"><path d=" M 109.393 61.353 C 109.393 60.816 108.964 60.279 108.32 60.279 L 98.229 60.279 L 88.137 60.279 C 87.601 60.279 87.064 60.709 87.064 61.353 C 87.064 65.003 87.601 77.563 92.968 83.682 C 93.183 83.897 93.398 84.004 93.72 84.004 L 102.738 84.004 C 103.06 84.004 103.274 83.897 103.489 83.682 C 108.857 77.67 109.393 65.11 109.393 61.353 Z  M 101.449 80.891 L 95.115 80.891 C 94.793 80.891 94.579 80.784 94.364 80.569 C 90.714 76.275 90.284 67.687 90.177 64.681 C 90.177 64.144 90.607 63.607 91.251 63.607 L 98.336 63.607 L 105.421 63.607 C 105.958 63.607 106.495 64.036 106.495 64.681 C 106.495 67.687 105.958 76.167 102.308 80.569 C 101.986 80.784 101.771 80.891 101.449 80.891 L 101.449 80.891 Z " fill="rgb(255,255,255)"/></g></g><path d=" M 100.268 58.132 C 100.268 58.132 104.133 55.878 101.771 51.798 C 100.376 49.651 99.732 47.826 100.268 47.075 C 98.873 48.792 96.511 50.617 99.087 54.482 C 99.946 55.448 100.376 57.488 100.268 58.132 Z " fill="rgb(255,255,255)"/><path d=" M 95.974 58.454 C 95.974 58.454 98.551 56.951 96.94 54.16 C 95.974 52.764 95.545 51.476 95.974 51.047 C 95.008 52.228 93.505 53.408 95.223 56.092 C 95.76 56.629 95.974 58.025 95.974 58.454 Z " fill="rgb(255,255,255)"/><path d=" M 104.777 70.907 C 104.348 73.806 103.489 77.134 101.664 79.281 C 101.449 79.495 101.235 79.603 101.02 79.603 L 95.652 79.603 C 95.437 79.603 95.115 79.495 95.008 79.281 C 93.72 77.67 92.861 75.523 92.324 73.269 C 92.324 73.269 98.551 74.128 102.093 72.84 C 104.67 71.873 104.777 70.907 104.777 70.907 Z " fill="rgb(255,255,255)"/></g><g id="g13"><path d=" M 34.246 88.298 L 38.218 88.298 L 44.767 98.39 L 51.315 88.298 L 55.287 88.298 L 55.287 109.769 L 51.53 109.769 L 51.53 94.418 L 44.767 104.509 L 44.659 104.509 L 38.003 94.525 L 38.003 109.877 L 34.246 109.877 L 34.246 88.298 L 34.246 88.298 Z " fill="rgb(255,255,255)"/><path d=" M 74.718 110.091 C 73.108 110.091 71.605 109.769 70.209 109.232 C 68.814 108.696 67.633 107.837 66.667 106.871 C 65.7 105.904 64.949 104.724 64.412 103.328 C 63.875 102.04 63.553 100.537 63.553 99.034 L 63.553 98.926 C 63.553 97.424 63.875 96.028 64.412 94.632 C 64.949 93.344 65.7 92.163 66.774 91.09 C 67.74 90.123 68.921 89.265 70.317 88.728 C 71.712 88.084 73.215 87.869 74.826 87.869 C 76.436 87.869 77.939 88.191 79.334 88.728 C 80.73 89.265 81.911 90.123 82.877 91.09 C 83.843 92.056 84.595 93.237 85.132 94.632 C 85.668 95.921 85.99 97.424 85.99 98.926 L 85.99 99.034 C 85.99 100.537 85.668 101.932 85.132 103.328 C 84.595 104.616 83.843 105.797 82.77 106.871 C 81.804 107.837 80.623 108.696 79.227 109.232 C 77.831 109.877 76.329 110.091 74.718 110.091 Z  M 74.718 106.656 C 75.792 106.656 76.758 106.441 77.617 106.012 C 78.476 105.582 79.227 105.046 79.871 104.401 C 80.515 103.757 80.945 102.899 81.374 102.04 C 81.696 101.074 81.911 100.107 81.911 99.141 L 81.911 99.034 C 81.911 97.96 81.696 96.994 81.374 96.028 C 81.052 95.062 80.515 94.31 79.871 93.559 C 79.227 92.915 78.476 92.378 77.617 91.948 C 76.758 91.519 75.792 91.304 74.718 91.304 C 73.645 91.304 72.678 91.519 71.82 91.948 C 70.961 92.378 70.209 92.915 69.565 93.559 C 68.921 94.203 68.492 95.062 68.062 95.921 C 67.74 96.887 67.525 97.853 67.525 98.819 L 67.525 98.926 C 67.525 100 67.74 100.966 68.062 101.932 C 68.384 102.899 68.921 103.65 69.565 104.401 C 70.209 105.046 70.961 105.582 71.82 106.012 C 72.678 106.441 73.752 106.656 74.718 106.656 Z " fill="rgb(255,255,255)"/><path d=" M 104.133 110.091 C 102.523 110.091 101.127 109.769 99.839 109.232 C 98.551 108.696 97.37 107.837 96.404 106.871 C 95.437 105.904 94.686 104.724 94.149 103.328 C 93.612 101.932 93.29 100.537 93.29 99.034 L 93.29 98.926 C 93.29 97.424 93.612 95.921 94.149 94.632 C 94.686 93.344 95.437 92.163 96.404 91.09 C 97.37 90.123 98.551 89.265 99.946 88.728 C 101.342 88.191 102.738 87.869 104.455 87.869 C 105.421 87.869 106.28 87.976 107.139 88.084 C 107.998 88.298 108.642 88.513 109.393 88.728 C 110.038 89.05 110.682 89.372 111.218 89.801 C 111.755 90.231 112.292 90.66 112.829 91.197 L 110.36 93.988 C 109.501 93.237 108.642 92.593 107.676 92.056 C 106.71 91.519 105.636 91.304 104.348 91.304 C 103.274 91.304 102.415 91.519 101.557 91.948 C 100.698 92.378 99.946 92.915 99.302 93.559 C 98.658 94.203 98.229 95.062 97.799 95.921 C 97.477 96.887 97.262 97.853 97.262 98.819 L 97.262 98.926 C 97.262 100 97.477 100.966 97.799 101.932 C 98.121 102.899 98.658 103.65 99.302 104.401 C 99.946 105.046 100.698 105.69 101.557 106.012 C 102.415 106.334 103.382 106.656 104.348 106.656 C 105.636 106.656 106.817 106.441 107.676 105.904 C 108.535 105.368 109.501 104.724 110.467 103.865 L 112.936 106.334 C 112.399 106.978 111.863 107.407 111.218 107.944 C 110.574 108.481 109.93 108.803 109.286 109.125 C 108.642 109.447 107.783 109.769 107.032 109.877 C 106.065 110.091 105.099 110.091 104.133 110.091 L 104.133 110.091 Z " fill="rgb(255,255,255)"/><path d=" M 120.451 88.298 L 124.208 88.298 L 124.208 97.209 L 134.514 97.209 L 134.514 88.298 L 138.272 88.298 L 138.272 109.769 L 134.514 109.769 L 134.514 100.751 L 124.208 100.751 L 124.208 109.769 L 120.451 109.769 L 120.451 88.298 Z " fill="rgb(255,255,255)"/><path d=" M 154.911 88.191 L 158.347 88.191 L 167.794 109.769 L 163.822 109.769 L 161.675 104.616 L 151.583 104.616 L 149.329 109.769 L 145.464 109.769 L 154.911 88.191 L 154.911 88.191 Z  M 160.279 101.288 L 156.629 92.7 L 152.979 101.288 L 160.279 101.288 Z " fill="rgb(255,255,255)"/></g><rect x="31.562" y="116.532" width="136.876" height="1.181" transform="matrix(1,0,0,1,0,0)" fill="rgb(255,255,255)"/><path d=" M 168.438 76.167 L 110.252 76.167 C 110.252 76.597 110.145 76.919 110.145 77.348 L 168.438 77.348 L 168.438 76.167 L 168.438 76.167 Z " fill="rgb(255,255,255)"/><path d=" M 31.562 76.167 L 31.562 77.348 L 86.42 77.348 C 86.42 76.919 86.312 76.597 86.312 76.167 L 31.562 76.167 L 31.562 76.167 Z " fill="rgb(255,255,255)"/></g></g></svg>