<?xml version="1.0" standalone="no"?><!-- Generator: Gravit.io --><svg xmlns="http://www.w3.org/2000/svg" xmlns:xlink="http://www.w3.org/1999/xlink" style="isolation:isolate" viewBox="0 0 200 200" width="200" height="200"><defs><clipPath id="_clipPath_FaSWbsPDPXzHuWHouatBRG94bgTuYDs1"><rect width="200" height="200"/></clipPath></defs><g clip-path="url(#_clipPath_FaSWbsPDPXzHuWHouatBRG94bgTuYDs1)"><g id="Group"><path d=" M 0 61.111 L 200 61.111 L 200 127.778 L 100 127.778 L 100 138.889 L 55.556 138.889 L 55.556 127.778 L 0 127.778 L 0 61.111 Z  M 11.111 116.667 L 33.333 116.667 L 33.333 83.333 L 44.444 83.333 L 44.444 116.667 L 55.556 116.667 L 55.556 72.222 L 11.111 72.222 L 11.111 116.667 Z  M 66.667 72.222 L 66.667 127.778 L 88.889 127.778 L 88.889 116.667 L 111.111 116.667 L 111.111 72.222 L 66.667 72.222 Z  M 88.889 83.333 L 100 83.333 L 100 105.556 L 88.889 105.556 L 88.889 83.333 Z  M 122.222 72.222 L 122.222 116.667 L 144.444 116.667 L 144.444 83.333 L 155.556 83.333 L 155.556 116.667 L 166.667 116.667 L 166.667 83.333 L 177.778 83.333 L 177.778 116.667 L 188.889 116.667 L 188.889 72.222 L 122.222 72.222 Z " fill="rgb(203,56,55)"/><path d=" M 11.111 116.667 L 33.333 116.667 L 33.333 83.333 L 44.444 83.333 L 44.444 116.667 L 55.556 116.667 L 55.556 72.222 L 11.111 72.222 L 11.111 116.667 Z " fill="rgb(255,255,255)"/><path d=" M 66.667 72.222 L 66.667 127.778 L 88.889 127.778 L 88.889 116.667 L 111.111 116.667 L 111.111 72.222 L 66.667 72.222 Z  M 100 105.556 L 88.889 105.556 L 88.889 83.333 L 100 83.333 L 100 105.556 Z " fill="rgb(255,255,255)"/><path d=" M 122.222 72.222 L 122.222 116.667 L 144.444 116.667 L 144.444 83.333 L 155.556 83.333 L 155.556 116.667 L 166.667 116.667 L 166.667 83.333 L 177.778 83.333 L 177.778 116.667 L 188.889 116.667 L 188.889 72.222 L 122.222 72.222 Z " fill="rgb(255,255,255)"/></g></g></svg>