<?xml version="1.0" standalone="no"?><!-- Generator: Gravit.io --><svg xmlns="http://www.w3.org/2000/svg" xmlns:xlink="http://www.w3.org/1999/xlink" style="isolation:isolate" viewBox="0 0 200 200" width="200" height="200"><defs><clipPath id="_clipPath_NF4ciUYj8wb3FmxzeGowDRm8XDr3fzkJ"><rect width="200" height="200"/></clipPath></defs><g clip-path="url(#_clipPath_NF4ciUYj8wb3FmxzeGowDRm8XDr3fzkJ)"><g id="Group"><path d=" M 137.721 79.993 L 77.161 140.553 Q 63.904 153.81 51.401 153.056 Q 38.897 152.303 28.051 141.457 Q 17.204 130.61 16.451 118.107 Q 15.698 105.603 28.955 92.346 L 89.514 31.787 L 77.613 19.886 L 17.054 80.445 Q -0.723 98.221 0.031 117.052 Q 0.784 135.883 17.28 152.379 Q 33.775 168.874 52.531 169.552 Q 71.286 170.23 89.062 152.454 L 149.622 91.894 L 137.721 79.993 L 137.721 79.993 Z " fill="rgb(51,153,51)"/><path d=" M 110.416 168.213 L 170.976 107.654 Q 184.233 94.397 183.479 81.893 Q 182.726 69.39 171.88 58.544 Q 161.033 47.697 148.53 46.944 Q 136.026 46.19 122.769 59.447 L 62.21 120.007 L 50.309 108.106 L 110.868 47.546 Q 128.645 29.77 147.475 30.523 Q 166.306 31.277 182.802 47.772 Q 199.297 64.268 199.975 83.023 Q 200.653 101.779 182.877 119.555 L 122.317 180.114 L 110.416 168.213 L 110.416 168.213 Z " fill="rgb(51,153,51)"/><rect x="116.102" y="69.048" width="15.075" height="15.075" transform="matrix(0.707,0.707,-0.707,0.707,90.367,-64.995)" fill="rgb(51,153,51)"/><rect x="85.393" y="38.848" width="15.075" height="15.075" transform="matrix(0.707,0.707,-0.707,0.707,60.018,-52.125)" fill="rgb(51,153,51)"/><rect x="68.789" y="116.371" width="15.075" height="15.075" transform="matrix(0.707,0.707,-0.707,0.707,109.972,-17.679)" fill="rgb(51,153,51)"/><rect x="98.996" y="146.068" width="15.075" height="15.075" transform="matrix(0.707,0.707,-0.707,0.707,139.818,-30.34)" fill="rgb(51,153,51)"/></g></g></svg>