<?xml version="1.0" standalone="no"?><!-- Generator: Gravit.io --><svg xmlns="http://www.w3.org/2000/svg" xmlns:xlink="http://www.w3.org/1999/xlink" style="isolation:isolate" viewBox="0 0 200 200" width="200" height="200"><defs><clipPath id="_clipPath_ozJupt46990GxauP0TOjABQCy5EwuJZb"><rect width="200" height="200"/></clipPath></defs><g clip-path="url(#_clipPath_ozJupt46990GxauP0TOjABQCy5EwuJZb)"><g id="Group"><path d=" M 119.998 169.28 L 40.001 30.72 L 80.002 30.72 L 159.999 169.28 L 119.998 169.28 Z " fill="rgb(255,64,129)"/><path d=" M 119.998 169.28 L 139.995 134.64 L 159.999 169.28 L 119.998 169.28 Z " fill="rgb(255,255,255)" fill-opacity="0.2"/><path d=" M 100 134.64 L 119.998 169.28 L 139.995 134.64 L 100 134.64 Z " fill="rgb(255,255,255)" fill-opacity="0.1"/><path d=" M 80.002 100 L 100 134.64 L 119.998 100 L 80.002 100 L 80.002 100 Z " fill="rgb(0,0,0)" fill-opacity="0.1"/><path d=" M 80.002 100 L 100 65.36 L 119.998 100 L 80.002 100 L 80.002 100 Z " fill="rgb(0,0,0)" fill-opacity="0.2"/><path d=" M 60.004 65.36 L 80.002 100 L 100 65.36 L 60.005 65.36 L 60.004 65.36 Z " fill="rgb(0,0,0)" fill-opacity="0.3"/><path d=" M 60.004 65.36 L 80.002 30.72 L 100 65.36 L 60.005 65.36 L 60.004 65.36 Z " fill="rgb(0,0,0)" fill-opacity="0.4"/><path d=" M 40.001 30.72 L 60.004 65.36 L 80.002 30.72 L 40.002 30.72 L 40.001 30.72 Z " fill="rgb(0,0,0)" fill-opacity="0.5"/><g id="Group"><path d=" M 40.001 169.28 L 0 100 L 20.003 65.36 L 80.002 169.28 L 40 169.28 L 40.001 169.28 Z " fill="rgb(83,109,254)"/><path d=" M 40.001 169.28 L 60.004 134.64 L 80.002 169.28 L 40.002 169.28 L 40.001 169.28 Z " fill="rgb(255,255,255)" fill-opacity="0.2"/><path d=" M 20.003 134.64 L 40 169.28 L 60.004 134.64 L 20.003 134.64 Z " fill="rgb(255,255,255)" fill-opacity="0.1"/><path d=" M 20.003 134.64 L 40 100 L 60.004 134.64 L 20.003 134.64 Z " fill="none"/><path d=" M 0 100 L 20.003 134.64 L 40 100 L 0.001 100 L 0 100 Z " fill="rgb(0,0,0)" fill-opacity="0.1"/><path d=" M 0 100 L 20.003 65.36 L 40 100 L 0.001 100 L 0 100 Z " fill="rgb(0,0,0)" fill-opacity="0.2"/></g><g id="Group"><path d=" M 40.001 100 L 20.003 65.36 L 40 30.72 L 60.004 65.36 L 40.001 100 Z " fill="rgb(48,63,159)"/><path d=" M 60.004 65.36 L 40.001 30.72 L 20.003 65.36 L 60.004 65.36 Z " fill="rgb(0,0,0)" fill-opacity="0.2"/></g><g id="Group"><path d=" M 159.998 169.28 L 139.995 134.64 L 159.998 100 L 179.996 134.64 L 159.998 169.28 L 159.998 169.28 Z " fill="rgb(63,81,181)"/><path d=" M 179.997 134.64 L 159.999 169.28 L 139.995 134.64 L 179.997 134.64 Z " fill="rgb(0,0,0)" fill-opacity="0.2"/></g><g id="Group"><path d=" M 179.997 134.64 L 119.998 30.72 L 159.999 30.72 L 200 100 L 179.997 134.64 L 179.997 134.64 Z " fill="rgb(121,134,203)"/><path d=" M 159.998 100 L 179.996 134.64 L 199.999 100 L 159.998 100 L 159.998 100 Z " fill="rgb(255,255,255)" fill-opacity="0.2"/><path d=" M 159.998 100 L 179.996 65.36 L 199.999 100 L 159.998 100 L 159.998 100 Z " fill="rgb(255,255,255)" fill-opacity="0.1"/><path d=" M 139.995 65.36 L 159.998 30.72 L 179.996 65.36 L 139.995 65.36 Z " fill="rgb(0,0,0)" fill-opacity="0.1"/><path d=" M 119.998 30.72 L 139.995 65.36 L 160 30.72 L 119.998 30.72 Z " fill="rgb(0,0,0)" fill-opacity="0.2"/></g></g></g></svg>