<?xml version="1.0" standalone="no"?><!-- Generator: Gravit.io --><svg xmlns="http://www.w3.org/2000/svg" xmlns:xlink="http://www.w3.org/1999/xlink" style="isolation:isolate" viewBox="0 0 200 200" width="200" height="200"><defs><clipPath id="_clipPath_8LorwgG4V3cWq7TbEABMlH9kIRZBU5ie"><rect width="200" height="200"/></clipPath></defs><g clip-path="url(#_clipPath_8LorwgG4V3cWq7TbEABMlH9kIRZBU5ie)"><path d=" M 37.281 83.543 C 37.554 83.749 38.026 83.882 37.554 84.288 C 37.215 84.76 36.809 85.165 36.54 85.707 C 36.27 86.182 36.067 86.315 35.662 85.979 C 36.201 85.099 36.74 84.285 37.279 83.541 L 37.281 83.543 Z  M 173.045 154.427 C 173.045 154.627 173.112 154.76 173.112 154.966 C 173.248 154.696 173.248 154.56 173.317 154.427 L 173.045 154.427 Z  M 173.045 155.032 L 173.045 154.966 L 173.045 155.032 Z  M 159.267 181.41 L 147.512 116.212 C 147.311 116.148 147.042 116.014 146.567 115.878 C 146.703 116.148 146.772 116.35 146.839 116.553 C 147.173 116.486 147.311 116.486 147.445 116.42 C 147.445 116.353 147.445 116.286 147.514 116.214 L 159.27 181.418 L 159.267 181.41 Z  M 147.109 101.536 C 147.042 101.736 147.042 101.941 147.042 102.144 C 147.042 101.939 147.042 101.733 147.114 101.533 L 147.109 101.536 Z  M 147.175 102.886 C 147.109 102.886 147.109 102.886 147.042 102.814 L 147.042 102.88 C 147.114 102.947 147.114 102.947 147.181 102.88 L 147.175 102.886 Z  M 147.042 103.425 L 147.042 102.95 C 146.844 103.017 146.642 103.017 146.37 103.086 C 146.708 103.214 147.047 103.286 147.047 103.419 L 147.042 103.425 Z " fill-rule="evenodd" fill="rgb(221,55,53)"/><path d=" M 199.656 86.993 C 199.522 84.354 199.456 81.716 199.184 79.08 C 198.711 75.494 198.239 71.842 197.428 68.326 C 196.82 65.418 195.811 62.643 194.795 59.871 C 193.511 56.624 192.228 53.311 190.606 50.2 C 187.972 45.195 184.528 40.729 181.353 36.063 C 179.254 33.085 176.553 30.652 174.526 27.608 C 173.378 25.85 171.69 24.364 170.001 23.014 C 167.298 20.845 164.462 18.881 161.626 16.99 C 159.485 15.489 157.276 14.089 155.004 12.796 C 153.181 11.777 151.223 10.966 149.331 10.086 C 147.17 9.072 145.076 7.853 142.645 7.38 C 142.034 7.252 141.495 7.047 140.887 6.841 C 139.334 6.302 137.848 5.694 136.293 5.219 C 133.931 4.475 131.634 3.597 129.201 2.986 C 126.845 2.378 124.412 1.975 121.979 1.634 C 119.278 1.236 116.512 1.095 113.806 0.83 C 112.08 0.607 110.345 0.45 108.606 0.358 C 106.04 0.222 103.406 0.222 100.84 0.155 C 99.556 0.086 98.206 -0.05 96.923 0.019 C 94.965 0.086 93.006 0.289 91.045 0.558 C 89.156 0.763 87.265 1.097 85.442 1.372 C 83.217 1.641 80.989 1.777 78.759 2.049 C 76.664 2.321 74.503 2.727 72.411 3.066 C 71.667 3.202 70.923 3.471 70.178 3.605 C 68.561 3.944 66.872 4.08 65.25 4.621 C 62.35 5.504 59.442 6.52 56.606 7.598 C 53.97 8.682 51.403 9.831 48.906 11.184 C 46.339 12.601 43.906 14.29 41.475 15.917 C 39.141 17.479 36.863 19.126 34.648 20.853 C 32.492 22.547 30.464 24.438 28.503 26.333 C 27.425 27.411 26.545 28.699 25.531 29.916 C 23.845 31.879 22.156 33.771 20.534 35.801 C 19.189 37.495 17.967 39.25 16.684 41.011 C 14.392 44.117 12.434 47.433 10.611 50.749 C 9.867 52.102 9.192 53.454 8.517 54.804 C 7.503 56.832 6.423 58.796 5.478 60.893 C 4.8 62.314 4.261 63.87 3.856 65.425 C 2.914 68.741 1.967 72.124 1.089 75.435 C 0.278 78.413 0.075 81.523 0.011 84.567 C -0.058 87.273 0.211 89.911 0.481 92.616 C 0.55 93.294 0.147 94.105 0.953 94.644 C 0.683 95.388 0.886 95.799 1.287 95.927 C 0.82 96.672 1.492 97.149 1.225 97.827 C 1.156 97.96 1.43 98.23 1.559 98.432 C 1.559 98.638 1.495 98.907 1.559 99.11 C 1.631 99.718 1.9 100.327 1.9 101.004 C 1.9 101.477 2.303 102.018 2.439 102.493 C 2.506 102.693 2.439 103.032 2.303 103.168 C 1.898 103.64 1.964 104.046 2.573 104.318 C 2.914 105.196 2.778 105.601 2.711 106.012 C 2.845 106.618 2.642 106.82 2.711 106.956 C 3.25 108.039 3.455 109.256 3.52 110.473 C 3.52 110.745 3.656 111.017 3.792 111.353 C 3.858 111.353 3.792 112.636 3.792 112.636 C 4.125 112.436 4.4 112.369 4.736 112.233 C 4.942 113.111 5.142 113.927 5.411 114.672 C 5.75 115.211 5.75 115.478 5.617 115.544 C 5.886 116.761 6.02 117.911 6.489 119.061 C 6.489 117.777 6.361 116.494 6.156 115.275 C 7.1 115.614 7.911 115.95 8.453 115.95 C 8.522 115.745 8.589 115.478 8.658 115.342 C 8.253 114.939 7.914 114.33 7.508 113.925 C 7.644 114.464 7.508 114.669 7.508 114.874 C 7.239 114.736 6.9 114.6 6.564 114.464 C 6.833 114.13 7.103 113.789 7.508 113.386 C 7.508 112.775 7.175 112.231 6.225 112.3 C 6.63 112.167 7.036 111.966 7.508 111.828 C 8.253 111.425 7.441 110.681 7.441 109.733 C 7.508 108.586 6.833 107.436 6.63 106.217 C 6.292 104.326 6.361 101.484 6.158 99.59 C 5.753 99.251 5.414 100.129 5.347 100.198 C 5.552 101.82 5.753 103.443 5.886 105.067 C 5.483 103.715 5.211 102.226 4.875 100.601 C 4.806 101.076 4.739 101.279 4.739 101.551 C 4.405 101.885 4.672 102.295 4.875 102.768 C 4.403 102.562 3.861 102.634 3.861 102.634 L 3.861 104.528 C 3.189 103.851 2.988 103.312 2.647 102.834 C 2.514 102.295 2.442 101.756 2.313 101.217 C 2.442 100.876 2.313 100.673 2.313 100.473 C 2.234 99.932 2.166 99.389 2.108 98.846 C 2.175 98.779 2.041 97.768 2.041 97.768 C 2.58 97.832 2.922 97.896 3.258 97.896 C 2.583 97.023 3.053 96.479 3.327 95.938 C 3.463 95.666 3.935 95.604 4.071 95.327 C 4.61 94.313 5.491 93.504 5.491 92.216 C 5.491 91.608 5.696 90.933 5.76 90.322 C 5.896 89.172 6.03 88.022 6.094 86.872 C 6.233 85.384 6.094 83.895 6.435 82.476 C 6.979 80.114 7.655 77.745 8.396 75.376 C 8.935 73.682 9.546 72.065 10.219 70.371 C 11.232 67.733 12.18 65.094 13.463 62.594 C 15.285 58.939 17.38 55.423 19.407 51.84 C 20.691 49.607 22.041 47.51 23.463 45.346 C 24.81 43.249 26.158 41.086 27.716 39.122 C 29.854 36.353 32.252 33.793 34.876 31.479 C 37.579 29.045 40.146 26.543 43.049 24.31 C 46.827 21.397 50.85 18.816 55.074 16.597 C 58.521 14.775 62.098 13.348 65.679 11.995 C 67.976 11.117 70.473 10.712 72.84 9.967 C 75.54 9.087 78.243 8.684 81.079 8.615 C 82.901 8.546 84.659 8.343 86.482 8.14 C 88.104 8.012 89.723 7.873 91.482 7.67 C 91.276 7.94 91.209 8.076 91.143 8.209 C 90.404 9.292 89.592 10.376 88.848 11.456 C 88.24 12.337 87.565 13.284 86.957 14.161 C 85.873 15.586 84.724 17.005 83.712 18.494 C 82.159 20.727 80.74 23.027 79.118 25.257 C 77.501 27.421 75.743 29.451 74.054 31.545 C 71.826 34.456 69.732 37.431 67.504 40.339 C 65.476 43.111 63.32 45.754 61.359 48.526 C 59.604 50.957 58.048 53.531 56.359 56.029 C 53.862 59.75 51.362 63.4 48.865 67.122 C 46.904 69.955 44.923 72.773 42.92 75.576 C 42.784 75.782 42.582 75.843 42.381 75.979 C 41.842 76.857 41.842 77.332 41.637 77.738 C 41.098 78.751 40.559 79.765 39.948 80.715 C 39.609 81.254 39.137 81.726 38.732 82.268 C 38.665 81.457 39.81 81.051 39.271 80.035 C 38.937 80.579 38.596 81.051 38.259 81.593 L 37.448 83.21 C 37.718 83.415 38.193 83.551 37.718 83.954 C 37.512 84.295 37.312 84.698 37.109 85.04 C 37.402 84.868 37.655 84.637 37.854 84.362 C 37.854 85.106 37.448 85.712 37.109 86.32 C 36.84 86.859 36.165 87.27 35.693 87.673 C 35.759 87.742 36.232 87.945 36.301 88.012 C 36.909 87.807 37.112 87.473 37.181 87.673 C 37.387 87.404 37.587 87.201 37.654 86.998 C 37.921 86.32 38.326 85.781 39.001 85.509 C 39.273 85.373 39.473 85.171 39.676 84.97 C 41.704 82.871 43.798 80.843 45.621 78.61 C 48.459 75.158 51.026 71.578 53.731 68.061 C 54.876 66.573 56.229 65.084 57.443 63.662 C 57.643 65.217 57.509 66.703 57.443 68.128 C 57.237 70.628 57.104 73.133 56.904 75.7 C 56.834 76.713 56.904 77.727 56.834 78.744 C 56.834 79.013 56.629 79.216 56.629 79.488 C 56.629 80.163 56.834 80.907 56.834 81.585 C 56.629 84.087 56.357 86.521 56.154 89.023 C 56.085 89.562 56.354 90.106 56.488 90.581 C 56.154 94.231 56.898 98.089 56.288 101.944 C 56.76 101.199 56.896 100.727 56.896 100.255 C 56.96 99.849 56.896 99.444 56.896 98.971 L 56.896 98.294 C 56.96 97.075 57.23 95.791 57.096 94.572 C 56.96 93.22 56.96 91.936 57.232 90.65 C 57.368 90.111 57.165 89.434 57.504 88.756 L 57.504 89.77 C 57.437 93.62 57.573 97.478 57.034 101.333 C 56.965 101.672 57.24 102.282 56.495 102.213 C 55.885 103.43 56.629 104.31 55.956 104.985 C 55.818 105.121 56.085 105.729 56.154 106.135 C 55.882 106.949 55.882 106.949 56.288 107.015 C 56.354 108.504 56.493 109.854 56.557 111.276 C 57.635 108.709 57.096 106.066 57.573 103.427 C 57.64 104.51 57.709 105.593 57.64 106.738 C 57.64 108.501 57.573 110.19 57.507 111.948 C 57.507 112.287 57.437 112.626 57.371 112.965 C 57.165 113.915 57.101 114.859 56.762 115.737 C 56.493 116.414 56.629 117.431 56.629 118.239 L 56.629 120.814 C 56.898 121.964 56.56 122.572 56.762 123.247 C 56.557 123.927 56.493 124.13 56.557 124.333 L 56.762 125.346 C 58.115 125.21 57.507 126.227 58.046 126.766 C 57.64 127.31 57.776 127.51 57.776 127.785 C 57.776 128.393 57.712 128.935 57.643 129.543 C 57.643 131.098 57.576 132.654 57.576 134.142 C 57.576 134.348 57.643 134.545 57.643 134.748 C 57.643 134.887 57.576 136.647 57.576 136.647 C 57.712 136.848 57.576 137.05 57.371 137.253 C 57.307 137.253 57.104 128.663 57.104 128.663 L 56.09 128.663 C 55.956 132.718 56.295 136.37 55.551 140.161 C 54.74 140.225 54.473 140.361 53.59 140.361 C 51.496 140.361 49.401 140.361 47.307 140.428 C 44.807 140.428 42.379 140.495 39.876 140.495 C 38.665 140.495 37.382 140.633 36.165 140.633 C 34.543 140.633 32.854 140.428 31.237 140.428 C 28.734 140.428 26.304 140.633 23.804 140.7 C 21.982 140.767 20.159 140.767 18.337 140.836 C 17.118 140.9 15.899 140.965 14.687 141.103 C 14.148 141.17 13.673 141.373 12.998 141.575 C 12.793 141.575 12.323 141.509 11.92 141.575 C 11.24 141.711 10.637 142.114 9.957 142.253 C 8.943 142.458 8.673 142.725 8.807 143.742 L 8.807 144.417 C 8.74 144.55 10.296 144.211 10.296 144.211 C 10.157 144.211 10.09 144.617 9.885 144.956 C 10.429 144.75 10.765 144.617 11.104 144.483 C 12.118 144.958 12.996 144.689 13.804 144.894 C 16.438 145.567 19.138 145.844 21.838 146.108 C 23.596 146.244 25.285 146.313 27.04 146.378 C 29.538 146.514 32.038 146.65 34.535 146.65 C 36.63 146.65 38.657 146.444 40.746 146.444 C 43.647 146.444 46.557 146.578 49.46 146.65 C 50.069 146.65 50.744 146.578 51.419 146.578 L 56.347 146.578 C 60.741 146.444 65.13 146.372 69.521 146.244 C 72.024 146.172 74.59 146.039 77.088 145.97 L 84.788 145.764 C 87.76 145.697 90.732 145.697 93.638 145.636 C 95.865 145.636 98.027 145.559 100.26 145.495 C 102.754 145.428 105.321 145.225 107.821 145.092 C 109.174 145.022 110.526 144.886 111.876 144.753 C 113.498 144.619 115.187 144.419 116.804 144.35 C 119.237 144.211 121.737 144.145 124.17 144.009 C 127.209 143.808 130.248 143.539 133.354 143.47 C 136.193 143.336 139.096 143.403 141.934 143.336 C 144.434 143.267 146.934 143.131 149.501 143.064 L 153.761 142.859 C 153.761 142.859 156.595 142.792 158.014 142.653 C 160.445 142.52 162.876 142.25 165.309 142.184 C 166.859 142.114 168.415 142.184 169.967 142.114 C 172.465 142.048 175.031 141.909 177.531 141.909 C 178.473 141.909 179.487 142.048 180.704 142.114 C 180.165 142.589 179.826 142.859 179.42 143.198 C 179.69 143.264 179.959 143.403 180.231 143.536 C 179.916 143.759 179.539 143.876 179.153 143.87 C 179.015 144.211 178.879 144.347 178.743 145.025 L 179.959 145.025 C 179.487 145.025 179.082 145.633 178.609 146.039 C 178.07 145.9 177.595 146.039 177.326 146.783 C 177.798 147.05 177.731 147.253 177.665 147.527 C 176.854 147.794 176.245 148.066 176.587 148.944 C 176.312 149.078 175.976 149.214 175.637 149.417 C 175.303 149.956 174.693 150.092 174.826 150.836 C 175.098 150.9 175.365 151.041 175.57 151.103 C 175.232 151.239 174.895 151.442 174.557 151.575 C 173.343 152.319 173.884 152.658 174.154 152.997 C 173.948 153.133 173.748 153.267 173.545 153.336 C 173.679 153.944 173.879 154.08 173.948 154.08 C 173.603 154.341 173.265 154.612 172.934 154.891 C 172.729 155.5 172.46 155.769 172.19 156.175 C 171.921 156.58 171.785 157.124 171.446 157.527 C 170.029 159.085 169.015 160.915 167.193 162.129 C 166.515 162.604 165.909 163.212 165.301 163.823 C 164.085 164.97 163.004 166.256 161.721 167.34 C 160.024 168.745 158.267 170.076 156.454 171.328 C 154.242 172.884 152.014 174.418 149.77 175.928 C 148.554 176.736 147.204 177.344 145.92 178.089 C 144.637 178.833 143.42 179.511 142.137 180.252 C 141.326 180.791 140.582 181.536 139.704 181.946 C 137.476 182.896 135.11 183.705 132.815 184.585 C 130.582 185.535 128.965 186.343 127.276 186.951 C 125.723 187.49 124.101 187.901 122.482 188.235 C 121.943 188.373 121.332 188.235 120.723 188.304 C 119.574 188.509 118.426 188.781 117.276 188.915 C 114.304 189.32 111.332 189.592 108.362 189.998 C 106.604 190.203 104.915 190.537 103.16 190.742 C 101.946 190.809 100.662 190.676 99.446 190.676 C 98.568 190.676 97.624 190.881 96.743 190.745 C 95.326 190.54 93.907 190.206 92.488 189.934 C 92.154 189.867 91.677 189.728 91.41 189.867 C 90.871 190.139 90.393 189.734 89.852 189.867 C 89.518 189.936 89.179 189.662 88.84 189.662 C 88.568 189.598 88.23 189.734 87.891 189.662 C 87.146 189.462 86.474 189.192 85.658 189.259 C 84.854 189.325 84.041 188.92 83.168 188.72 C 81.949 188.448 80.807 188.181 79.585 187.906 C 79.113 187.759 78.66 187.554 78.238 187.298 C 76.479 187.298 75.33 187.231 74.249 186.823 C 73.304 186.489 72.427 186.015 71.413 186.151 C 71.146 186.217 70.943 186.084 70.669 186.084 C 70.463 185.812 70.266 185.27 70.065 185.27 C 68.715 185.339 67.904 184.192 66.754 183.851 C 66.149 183.645 65.676 182.97 65.068 182.768 C 63.579 182.159 62.368 180.876 60.679 180.673 C 60.14 180.604 59.601 180.335 58.99 180.134 C 59.196 180.401 59.324 180.604 59.529 180.807 C 57.571 179.857 55.749 178.779 53.924 177.763 C 53.657 177.696 53.454 177.429 53.251 177.29 L 51.429 176.074 C 50.415 176.279 50.01 175.869 49.735 175.735 C 47.913 174.452 45.821 173.638 44.063 172.219 C 43.318 171.608 42.446 171.202 41.907 170.458 C 40.957 169.308 39.81 168.497 38.526 167.822 C 37.515 167.283 36.57 166.672 35.626 166.064 C 35.151 165.725 34.676 165.32 34.676 164.575 C 34.676 164.1 34.476 163.626 33.868 163.898 C 33.598 163.492 33.329 163.02 32.99 162.884 C 32.179 162.55 31.64 161.934 31.032 161.395 C 30.423 160.856 29.954 160.112 29.209 159.842 C 27.857 159.303 27.046 158.153 26.237 157.206 C 24.343 154.973 22.654 152.535 20.898 150.174 C 20.762 149.968 20.493 149.832 20.29 149.63 C 20.56 150.374 20.898 150.982 21.235 151.657 C 20.562 151.388 20.09 150.913 19.684 150.441 C 19.615 150.51 24.343 158.287 24.343 158.287 C 24.754 158.895 25.087 159.506 25.493 160.114 C 24.661 160.192 23.863 159.766 23.465 159.031 C 22.859 157.953 22.182 157.276 20.832 157.414 C 20.688 156.926 20.577 156.429 20.498 155.926 C 20.223 155.926 20.023 155.926 19.548 155.856 C 20.498 157.345 21.307 158.628 22.184 160.117 C 21.843 159.912 21.645 159.778 21.504 159.711 C 22.718 160.995 23.596 162.619 25.149 163.433 C 25.488 164.986 27.243 165.73 27.649 167.219 C 27.315 167.15 27.038 167.083 26.699 167.014 C 26.16 166.339 25.552 165.663 24.946 164.919 C 25.08 165.391 25.28 165.797 25.552 166.136 C 26.363 167.15 27.107 168.163 28.052 169.044 C 28.391 169.388 28.863 169.524 28.863 170.132 C 29.402 170.402 29.607 170.466 29.807 170.466 C 29.946 170.876 29.743 171.485 30.552 171.349 C 31.091 172.362 31.63 172.362 32.374 172.026 C 33.254 172.907 33.729 172.976 34.335 172.437 C 34.335 172.771 34.402 173.109 34.402 173.381 C 34.671 173.245 34.607 173.043 34.607 172.704 C 34.941 172.973 35.146 173.109 35.279 173.243 C 35.954 174.192 36.563 175.07 37.507 175.815 C 38.791 176.898 39.941 178.048 41.152 179.061 C 43.518 181.025 46.157 182.65 48.788 184.136 C 52.032 185.963 55.14 187.924 58.449 189.68 C 62.432 191.779 66.688 193.201 71.077 194.215 C 72.699 194.554 74.252 194.89 75.876 195.293 C 77.288 195.704 78.71 196.312 80.129 196.648 C 82.29 197.123 84.518 197.529 86.679 197.932 C 87.149 198.001 87.629 198.07 88.168 198.137 C 88.771 198.273 89.513 198.001 89.649 198.206 C 89.988 198.745 90.257 198.473 90.663 198.406 C 91.135 198.27 91.677 198.27 92.216 198.27 C 94.107 198.337 95.93 198.743 97.821 198.609 C 98.232 198.609 98.838 198.268 99.176 198.943 C 99.782 198.673 100.121 198.673 100.39 198.609 C 100.462 199.215 100.39 199.215 100.262 199.282 C 100.123 199.348 99.921 199.418 99.651 199.62 C 102.082 200.093 104.379 200.159 106.402 199.62 C 109.918 199.89 112.957 199.484 115.862 198.471 C 116.132 198.809 116.334 199.282 116.74 198.607 C 116.873 198.401 117.212 198.332 117.484 198.265 C 118.09 198.129 118.834 197.86 119.373 198.06 C 119.984 198.265 120.187 197.726 120.657 197.726 C 121.47 197.726 122.212 197.657 122.956 197.521 C 123.362 197.454 123.768 197.251 124.24 197.115 C 123.777 196.887 123.267 196.77 122.751 196.774 C 123.565 196.368 124.307 196.03 125.051 195.696 C 124.915 195.896 124.779 196.166 124.512 196.166 L 125.454 196.166 C 125.248 196.166 124.979 196.774 124.643 197.179 C 127.071 196.571 129.299 196.03 131.462 195.485 C 130.718 194.069 132.271 194.544 132.812 193.73 C 132.137 193.935 131.462 194.135 130.785 194.269 C 133.082 193.122 135.446 192.108 137.74 191.094 C 137.407 191.499 136.996 191.702 136.393 192.044 C 136.798 192.108 137.068 192.108 137.271 192.172 C 138.349 192.513 138.082 191.499 138.418 190.889 C 139.701 190.889 140.24 190.688 140.849 190.483 C 141.524 190.278 142.199 190.078 142.876 189.808 C 143.954 189.336 144.968 188.73 146.049 188.191 C 146.254 188.119 146.588 188.191 146.86 188.191 C 147.604 187.714 147.871 187.308 148.074 187.375 C 149.023 187.511 149.691 187.17 149.963 186.297 C 150.435 185.955 150.774 185.686 151.11 185.481 C 152.594 184.67 154.01 183.859 155.499 183.047 C 156.038 183.047 156.31 183.047 156.444 182.978 C 157.327 182.568 158.138 182.1 158.946 181.626 C 158.714 181.529 158.489 181.418 158.271 181.292 C 158.944 181.153 159.144 181.087 159.554 180.95 C 161.171 179.051 163.404 177.768 165.091 176.279 C 165.835 176.212 165.835 176.01 165.835 175.876 C 166.102 175.537 166.374 175.132 166.708 174.86 C 168.196 173.507 169.813 172.357 171.166 170.938 C 173.122 168.989 174.992 166.956 176.772 164.845 C 178.389 162.951 180.016 161.059 181.366 158.962 C 183.258 156.054 184.877 153.077 186.566 150.03 C 187.783 147.869 188.863 145.705 190.082 143.541 C 190.211 143.336 190.485 143.067 190.688 143.067 C 192.51 142.861 194.338 142.733 196.093 142.528 C 196.499 142.461 196.971 142.194 197.377 141.989 C 197.171 141.65 197.038 141.244 196.838 140.906 C 196.566 140.495 196.16 140.161 195.888 139.751 C 195.621 139.417 195.418 139.006 195.216 138.603 C 195.01 138.27 194.81 137.997 194.607 137.654 C 194.183 136.909 193.798 136.143 193.452 135.359 C 193.386 135.154 193.247 134.82 193.319 134.615 C 194.535 131.979 195.008 129.137 196.155 126.499 C 197.302 123.794 197.644 120.75 198.183 117.842 C 198.655 115.07 198.927 112.298 199.261 109.526 C 199.466 107.565 199.735 105.67 199.8 103.71 C 200.21 100.599 200.072 97.688 200.005 94.778 C 199.938 92.211 199.8 89.572 199.671 87.001 L 199.656 86.993 Z  M 30.192 170.25 C 29.72 169.711 29.315 169.1 28.842 168.561 L 29.048 168.356 C 29.784 169.17 30.529 169.981 31.27 170.861 C 30.865 170.656 30.393 170.522 30.192 170.25 Z  M 31.27 170.861 C 31.476 170.792 31.681 170.792 31.881 170.725 C 32.087 171.064 32.22 171.469 32.42 171.875 C 31.476 171.806 31.003 171.4 31.273 170.861 L 31.27 170.861 Z  M 101.52 198.794 L 101.52 198.589 C 102.803 198.455 104.017 198.319 105.3 198.186 L 105.3 198.383 C 104.017 198.589 102.803 198.717 101.52 198.789 L 101.52 198.794 Z  M 118.537 197.036 C 117.595 197.241 116.581 197.377 115.636 197.513 C 115.298 197.58 114.892 197.919 114.759 197.308 C 114.623 197.377 114.487 197.377 114.353 197.446 C 114.687 198.458 115.5 197.647 116.175 198.052 C 114.687 198.257 113.275 198.391 111.853 198.591 L 111.853 198.458 C 112.264 198.391 112.733 198.322 113.136 198.252 L 113.136 198.052 C 112.463 197.972 111.787 197.927 111.109 197.916 C 110.911 197.916 110.639 198.188 110.436 198.255 C 110.167 198.322 109.897 198.391 109.559 198.391 C 108.411 198.458 107.264 198.458 106.181 198.524 C 106.111 198.524 105.975 198.458 105.909 198.458 L 105.909 198.252 C 110.434 197.647 114.892 197.038 119.417 196.43 C 119.486 196.563 119.486 196.7 119.553 196.833 C 119.148 196.833 118.878 196.974 118.539 197.038 L 118.537 197.036 Z  M 119.553 196.363 C 121.108 196.158 122.53 196.024 124.014 195.824 C 120.908 196.702 119.894 196.836 119.556 196.363 L 119.553 196.363 Z  M 60.723 59.804 C 62.879 56.827 65.112 53.85 67.273 50.808 C 67.948 49.923 68.487 48.976 69.162 48.098 C 69.367 47.826 69.637 47.692 69.973 47.42 L 69.906 47.292 C 70.176 46.95 70.445 46.676 70.581 46.409 C 70.925 45.87 71.128 45.259 71.397 44.651 C 71.464 44.522 71.667 44.386 71.667 44.386 C 72.617 44.859 72.617 43.847 72.95 43.506 C 73.559 42.828 74.167 42.087 74.706 41.409 C 75.111 40.87 75.517 40.395 75.856 39.787 C 75.922 39.582 75.72 39.248 75.65 38.973 L 75.45 38.973 C 75.656 38.84 75.856 38.64 76.059 38.501 C 76.125 38.501 76.125 38.501 76.192 38.434 C 76.598 37.823 77.003 37.215 77.409 36.674 C 78.217 35.596 79.095 34.512 80.039 33.568 C 79.906 33.902 79.77 34.243 79.634 34.512 C 79.703 34.512 79.703 34.582 79.77 34.582 C 80.581 33.499 81.459 32.485 82.27 31.399 C 82.201 31.335 82.134 31.266 82.064 31.266 C 81.731 31.604 81.459 31.943 81.12 32.282 C 81.053 32.213 80.986 32.146 80.915 32.146 C 81.595 31.266 82.27 30.388 82.942 29.374 C 83.078 29.579 83.214 29.846 83.481 30.388 C 83.756 29.713 84.025 29.241 84.226 28.766 C 84.025 28.971 83.756 29.171 83.553 29.377 L 83.348 29.171 L 84.564 27.349 C 85.848 25.521 87.131 23.627 88.414 21.8 C 88.889 21.125 89.492 20.583 89.903 19.906 C 91.186 17.339 93.214 15.306 94.764 12.94 C 95.103 12.467 95.575 12.062 95.981 11.656 C 96.315 11.246 96.589 11.384 96.859 11.723 C 98.681 14.023 100.503 16.389 102.326 18.689 C 103.681 20.383 105.031 22 106.314 23.761 C 107.867 25.927 109.353 28.091 110.909 30.254 C 112.664 32.757 114.42 35.259 116.109 37.826 C 118.675 41.617 121.106 45.405 123.673 49.191 C 125.564 51.963 127.456 54.671 129.278 57.443 L 125.829 57.443 C 122.656 57.379 119.412 57.109 116.24 57.243 C 111.917 57.448 107.528 57.92 103.206 58.259 C 97.734 58.734 92.195 58.798 86.728 58.798 C 84.765 58.798 82.806 59.073 80.85 59.209 C 78.484 59.342 76.187 59.478 73.823 59.542 C 71.051 59.681 68.356 59.748 65.584 59.817 C 64.029 59.884 62.409 59.817 60.72 59.817 L 60.723 59.804 Z  M 138.192 90.912 L 138.192 91.523 C 138.125 91.523 138.059 91.592 137.923 91.592 C 137.653 90.643 137.384 89.626 137.045 88.679 C 136.37 86.716 135.625 84.752 134.409 82.997 C 133.054 81.105 131.842 79.147 130.487 77.183 C 130.153 76.708 129.676 76.303 129.27 75.9 C 127.851 74.342 126.432 72.717 124.609 71.57 C 121.924 69.886 119.099 68.436 116.165 67.237 C 115.35 66.888 114.561 66.481 113.804 66.021 L 115.421 66.021 L 126.971 65.815 C 129.471 65.751 131.904 65.751 134.401 65.615 C 135.007 65.615 135.346 65.821 135.685 66.36 C 136.29 67.373 136.899 68.387 137.574 69.404 C 137.643 69.537 137.779 69.737 137.779 69.943 C 137.779 71.431 137.779 72.987 137.846 74.475 C 137.91 76.031 138.051 77.519 138.113 79.075 C 138.113 80.63 137.977 82.252 138.046 83.874 C 138.115 86.177 138.182 88.546 138.182 90.907 L 138.192 90.912 Z  M 65.515 68.264 C 68.69 68.128 71.726 67.925 74.837 67.789 C 77.262 67.653 79.765 67.584 82.193 67.45 C 83.207 67.386 84.154 67.322 85.165 67.45 C 84.087 67.994 83.004 68.536 82.059 69.211 C 80.843 70.022 79.698 71.103 78.479 71.983 C 77.26 72.861 76.179 73.944 75.168 75.094 C 73.885 76.647 72.465 77.999 71.113 79.488 C 70.163 80.571 69.085 81.585 68.276 82.735 C 67.129 84.223 66.115 85.84 65.035 87.534 C 65.374 81.108 65.779 74.752 65.507 68.259 L 65.515 68.264 Z  M 109.623 133.329 C 107.459 133.868 105.234 134.479 103.001 134.748 C 101.112 135.02 99.151 134.953 97.192 134.953 C 95.432 134.953 93.743 134.887 91.987 134.748 C 90.029 134.548 88.07 134.345 86.179 133.465 C 84.554 132.72 82.868 132.045 81.251 131.232 C 79.624 130.421 78.004 129.476 76.785 127.988 C 75.912 126.902 74.693 126.024 73.612 125.077 C 73.818 125.888 74.288 126.566 75.032 127.038 C 74.693 127.443 74.221 127.243 73.543 126.158 C 73.343 126.294 73.14 126.363 73.004 126.43 C 73.21 125.955 73.41 125.48 73.612 125.077 C 73.343 124.538 73.004 123.927 72.735 123.383 C 72.196 122.505 71.657 121.561 71.182 120.68 C 71.046 120.475 71.046 120.275 70.912 120.072 C 70.575 119.682 70.258 119.275 69.963 118.853 C 69.424 118.044 68.951 117.167 68.276 116.353 C 68.276 116.558 68.346 116.758 68.346 117.03 C 68.276 117.03 68.21 117.097 68.21 117.097 L 66.788 113.648 C 66.721 113.648 66.721 113.648 66.654 113.714 L 67.868 118.18 C 67.802 118.18 67.735 118.245 67.663 118.245 C 67.465 117.978 67.263 117.705 67.124 117.372 C 66.991 116.828 66.585 116.828 66.251 117.03 C 66.046 117.167 65.91 117.639 65.979 117.842 C 66.454 118.991 66.993 120.141 67.535 121.291 C 67.668 121.697 67.804 122.035 68.007 122.441 C 68.076 122.577 68.279 122.71 68.279 122.913 C 68.551 123.452 68.754 123.991 69.09 124.469 C 69.698 125.28 70.373 126.091 70.982 126.902 C 71.585 127.713 72.124 128.596 72.665 129.404 C 72.732 129.54 72.935 129.54 72.999 129.61 C 73.34 130.623 74.488 131.365 75.299 130.96 C 75.504 132.515 77.19 133.057 77.865 134.545 C 77.203 134.275 76.549 133.981 75.907 133.665 C 75.838 133.732 75.838 133.798 75.768 133.934 C 76.58 134.34 77.391 134.746 78.13 135.218 C 78.81 135.628 79.485 136.031 80.093 136.501 C 80.904 137.245 81.851 137.656 82.994 137.923 C 82.932 137.718 82.865 137.648 82.865 137.648 C 84.754 138.529 86.715 139.476 88.199 140.215 C 81.174 140.354 73.677 140.49 65.907 140.626 C 65.907 139.342 65.841 138.123 65.841 136.837 C 65.841 136.298 65.974 135.824 65.905 135.282 C 65.699 132.176 65.699 129.06 65.297 126.016 C 64.894 122.772 64.894 119.592 64.963 116.34 C 65.027 114.587 64.894 112.762 64.824 111.001 C 64.824 108.635 64.824 106.33 64.896 103.969 C 64.896 103.63 65.032 103.36 65.168 103.019 L 65.374 103.019 C 65.438 103.158 65.374 103.36 65.502 103.43 C 65.707 103.635 66.046 103.969 66.182 103.902 C 66.585 103.63 67.193 103.363 67.329 102.952 C 67.663 102.144 67.802 101.263 67.802 100.452 C 67.802 99.847 68.074 99.441 68.341 99.033 C 68.479 98.828 68.546 98.628 68.682 98.358 C 68.412 98.153 68.143 98.019 67.804 97.75 C 68.076 97.005 68.009 96.125 69.023 95.722 C 69.157 95.653 69.157 95.311 69.229 95.111 C 69.293 94.565 69.357 93.956 69.429 93.417 C 69.562 93.623 69.634 93.687 69.762 93.82 C 69.801 93.747 69.847 93.678 69.901 93.615 C 69.901 93.348 69.834 92.806 69.901 92.806 C 70.712 92.67 70.373 91.793 70.779 91.387 C 70.843 91.315 70.71 91.112 70.71 90.976 C 70.71 90.843 70.71 90.643 70.776 90.643 C 71.718 90.437 71.585 89.424 72.193 88.949 C 72.398 88.813 72.463 88.615 72.732 88.274 C 73.271 89.218 72.327 89.693 72.26 90.368 C 73.405 89.693 73.743 88.071 73.068 87.596 C 73.338 87.391 73.607 87.124 73.813 86.852 C 74.557 86.041 75.363 85.296 76.041 84.485 C 76.515 83.88 76.785 83.135 77.257 82.527 C 77.529 82.188 78.068 81.919 78.474 81.713 C 79.69 81.041 80.835 80.296 81.579 79.147 C 81.715 79.011 81.918 78.877 82.118 78.741 C 82.324 78.605 82.729 78.605 82.796 78.402 C 82.865 78.269 82.663 77.93 82.526 77.727 C 82.793 77.591 83.065 77.322 83.604 77.05 C 83.399 77.455 83.335 77.727 83.199 77.999 L 83.533 78.333 C 84.143 77.861 85.088 77.322 85.696 76.916 C 85.696 76.852 85.358 76.583 85.358 76.583 C 84.955 76.788 84.346 77.122 83.741 77.394 C 83.869 77.188 83.869 77.055 83.946 76.988 C 84.888 76.38 85.832 75.771 86.846 75.294 C 89.207 74.216 91.574 73.133 93.938 72.119 C 94.343 71.914 94.888 72.052 95.357 72.052 C 95.557 72.052 95.691 72.052 95.896 71.986 C 96.974 71.647 98.057 71.308 99.138 71.036 C 99.608 70.903 100.147 70.836 100.627 70.836 C 102.647 70.9 104.674 70.9 106.699 71.036 C 107.577 71.103 108.388 71.305 109.199 71.575 C 110.239 71.936 111.254 72.365 112.238 72.858 C 113.385 73.474 114.466 74.147 115.549 74.891 C 117.507 76.174 119.33 77.596 121.288 78.746 C 123.18 79.896 124.666 81.451 125.882 83.212 C 127.371 85.307 129.057 87.201 129.732 89.77 L 130.744 94.236 C 130.949 95.047 131.421 95.858 131.219 96.803 C 130.877 98.497 130.608 100.255 130.338 101.946 C 130.205 102.626 130.069 103.307 130.138 103.974 C 130.266 106.079 129.458 107.901 128.649 109.795 C 128.377 110.403 127.972 111.014 127.635 111.689 C 127.801 111.806 127.982 111.898 128.174 111.961 L 128.783 110.745 C 128.852 110.745 128.852 110.745 128.919 110.814 C 128.58 111.759 128.311 112.775 127.969 113.722 C 127.163 115.819 126.352 117.983 125.338 120.01 C 124.799 121.16 123.85 122.107 123.177 123.193 C 122.505 124.138 121.963 125.151 121.288 126.032 C 120.68 126.776 120.074 127.52 119.26 128.059 C 117.438 129.412 115.547 130.765 113.588 131.848 C 112.374 132.592 110.955 132.998 109.605 133.336 L 109.623 133.329 Z  M 73.62 129.735 L 73.553 129.805 C 73.412 129.738 73.21 129.671 73.076 129.535 L 71.454 127.097 C 71.32 126.897 71.249 126.694 71.32 126.424 C 72.065 127.574 72.809 128.657 73.618 129.735 L 73.62 129.735 Z  M 115.636 139.001 C 118.673 137.718 121.173 135.895 123.465 133.796 C 123.806 133.457 124.142 133.121 124.548 132.846 C 127.387 131.091 129.476 128.655 131.37 125.95 C 133.531 122.839 134.95 119.322 136.709 116.009 C 136.828 115.753 136.962 115.504 137.112 115.265 C 136.976 122.975 137.856 130.549 138.867 138.193 C 131.237 138.462 123.467 138.732 115.634 139.004 L 115.636 139.001 Z  M 184.122 136.973 C 184.056 137.109 183.917 137.245 183.853 137.384 C 183.784 137.245 183.784 137.043 183.717 136.768 C 183.311 137.854 182.434 137.312 181.825 137.312 C 178.181 137.381 174.464 137.381 170.814 137.381 C 167.303 137.381 163.725 137.381 160.214 137.443 C 159.064 137.443 157.848 137.713 156.698 137.782 C 153.931 137.915 151.161 137.987 148.392 138.051 C 148.187 138.051 147.987 137.718 147.648 137.446 C 147.529 137.659 147.393 137.862 147.242 138.054 C 147.17 137.92 147.037 137.787 146.901 137.584 C 146.834 137.79 146.765 137.99 146.695 138.123 L 146.5 138.123 C 146.364 137.179 146.095 136.301 146.095 135.351 C 146.095 133.324 146.3 131.296 146.364 129.263 C 146.434 128.319 146.364 127.441 146.364 126.558 C 146.636 126.763 146.839 126.899 147.109 127.097 C 147.242 126.833 147.378 126.63 147.514 126.43 C 147.514 126.43 147.378 126.358 147.242 126.224 C 147.371 126.155 147.509 126.019 147.509 125.952 C 147.576 125.747 147.714 125.547 147.714 125.413 C 147.714 124.938 147.576 124.533 147.509 124.13 C 147.576 124.13 147.643 124.13 147.714 124.058 L 148.117 126.086 L 148.323 126.086 C 148.051 125.616 148.928 125.208 148.187 124.669 C 148.12 124.6 148.253 124.194 148.253 123.991 C 148.048 123.588 147.92 123.183 147.714 122.641 C 147.781 122.574 147.984 122.505 148.187 122.436 C 147.917 122.302 147.714 122.169 147.512 122.102 C 148.187 121.491 148.187 121.153 147.578 120.477 C 147.717 120.413 147.85 120.413 147.85 120.349 C 147.85 119.738 147.85 119.13 147.717 118.527 C 147.581 117.844 147.922 117.038 146.906 116.628 C 146.968 116.82 147.059 117.001 147.175 117.167 C 147.175 117.167 146.97 117.236 146.77 117.372 C 145.892 116.558 146.436 115.473 146.231 114.258 C 146.703 114.395 147.042 114.531 147.378 114.669 C 147.242 114.192 146.906 113.65 146.703 113.042 L 146.429 113.042 L 146.429 108.576 C 146.429 108.645 146.901 108.645 147.173 108.715 C 147.173 108.645 147.237 108.578 147.237 108.509 C 147.032 108.24 146.762 107.97 146.493 107.631 L 146.629 107.495 C 146.09 106.823 146.359 105.878 146.359 105.673 L 146.359 100.938 C 147.037 101.615 146.026 102.493 147.037 102.898 L 147.037 102.223 L 146.968 102.223 C 146.901 101.21 146.901 100.196 146.834 99.179 L 146.701 99.179 C 146.631 99.318 146.631 99.385 146.562 99.521 L 146.429 99.521 L 146.834 83.356 C 147.509 84.234 148.251 85.05 148.723 85.923 C 150.279 88.766 152.304 91.202 154.195 93.771 C 155.817 96.004 157.301 98.438 158.79 100.737 C 160.612 103.509 162.367 106.281 164.192 109.053 C 165.55 111.154 166.944 113.23 168.376 115.28 C 169.659 117.102 171.015 118.863 172.365 120.624 C 173.509 122.179 174.726 123.735 175.873 125.29 C 177.226 127.184 178.576 129.076 179.929 130.903 C 180.601 131.848 181.345 132.795 182.085 133.742 C 182.495 134.281 183.101 134.692 183.506 135.025 C 183.442 135.025 183.373 135.025 183.24 134.959 C 183.445 135.228 183.573 135.431 183.712 135.567 C 184.456 135.972 184.523 136.378 184.117 136.989 L 184.122 136.973 Z  M 187.567 120.069 L 187.567 119.595 C 187.567 119.728 187.634 119.928 187.567 120.067 L 187.567 120.069 Z  M 189.864 90.245 C 189.795 90.245 189.392 89.834 189.325 89.767 C 189.256 89.973 189.325 90.173 189.189 90.445 C 189.12 90.245 188.65 90.312 188.65 90.111 C 188.581 91.056 189.053 92.003 188.984 92.95 C 189.189 92.814 189.998 92.745 190.2 92.545 C 190.27 92.611 190.406 92.678 190.472 92.678 C 189.12 93.694 189.459 94.706 190.067 95.861 C 190.2 96.128 190.606 96.669 190.2 97.211 C 190.067 97.347 190.27 97.75 190.336 98.091 L 190.534 98.091 L 190.534 98.219 L 189.926 98.425 C 189.792 98.219 188.984 97.819 188.984 97.475 L 188.984 100.93 C 189.659 101.135 189.659 102.08 189.928 102.555 C 190.047 102.39 190.14 102.208 190.203 102.016 L 190.272 102.077 C 190.203 102.483 190.136 102.888 190 103.296 C 189.867 103.902 189.731 104.444 189.666 105.052 C 189.666 105.119 189.795 105.257 189.795 105.321 C 189.056 107.015 189.461 108.904 189.192 110.66 C 188.986 111.943 189.192 113.304 189.056 114.654 C 188.917 115.804 188.645 117.02 188.378 118.17 C 188.309 118.375 188.173 118.44 187.839 118.576 C 187.972 117.765 187.906 117.223 187.77 116.479 C 187.698 116.479 186.82 116.006 186.751 116.006 C 186.751 116.956 187.29 118.239 187.495 119.317 C 187.29 119.251 186.481 118.778 186.417 118.778 C 186.278 119.589 186.278 120.673 186.212 121.55 C 186.142 122.228 185.537 122.834 185.467 123.578 C 185.467 123.989 185.94 124.256 185.873 124.933 L 186.412 124.933 C 186.412 123.583 187.023 122.367 187.023 120.945 L 187.223 120.945 C 187.292 121.081 187.495 121.217 187.428 121.283 C 187.292 122.028 187.018 122.839 187.09 123.583 C 187.09 123.989 187.423 124.394 187.295 124.866 C 187.156 125.277 187.09 125.68 187.02 126.288 C 186.951 125.95 186.884 125.816 186.884 125.613 C 186.817 125.613 186.209 125.544 186.14 125.544 C 186.073 125.95 186.615 126.355 186.545 126.694 C 186.479 126.761 186.412 126.761 186.276 126.83 L 184.048 123.581 C 182.287 121.014 180.532 118.44 178.776 115.804 C 178.321 115.158 177.913 114.481 177.557 113.776 C 175.467 110.177 173.144 106.719 170.601 103.425 C 168.646 100.925 167.085 98.214 165.263 95.583 C 163.579 93.081 161.89 90.645 160.201 88.14 C 159.593 87.332 158.851 86.587 158.31 85.707 C 156.557 82.935 154.999 80.094 153.248 77.322 C 151.759 75.019 150.142 72.786 148.587 70.556 C 148.048 69.812 147.509 68.998 146.965 68.187 C 146.881 68.045 146.835 67.885 146.832 67.72 C 146.695 66.231 146.559 64.743 146.493 63.323 C 146.493 61.971 146.629 60.618 146.629 59.196 L 146.629 57.979 C 146.629 57.641 146.693 57.371 146.693 57.03 C 146.757 56.966 146.826 56.83 146.893 56.763 C 144.935 56.763 142.907 56.691 140.949 56.763 C 139.665 56.827 138.99 56.285 138.113 55.338 C 135.546 52.43 133.654 49.117 131.426 46.006 C 129.326 43.046 127.187 40.114 125.01 37.21 C 123.252 34.844 121.493 32.544 119.74 30.177 C 117.78 27.472 115.89 24.767 113.863 22.062 C 111.43 18.817 108.93 15.568 106.432 12.324 C 105.277 10.835 103.994 9.416 102.711 7.858 C 103.591 7.996 104.405 8.13 105.213 8.199 L 108.457 8.404 C 110.888 8.602 113.319 8.738 115.747 9.072 C 117.774 9.346 119.802 9.752 121.896 10.088 C 126.357 10.832 130.746 12.052 135.002 13.471 C 137.502 14.282 139.93 15.365 142.368 16.379 C 147.835 18.612 153.038 21.317 158.171 24.156 C 159.788 25.036 160.738 26.456 161.949 27.742 C 163.707 29.569 165.465 31.394 167.152 33.286 C 169.108 35.519 170.93 37.818 172.824 40.118 C 174.51 42.146 176.263 44.173 177.957 46.206 C 178.496 46.814 178.907 47.559 179.374 48.234 C 180.452 49.858 181.671 51.416 182.616 53.172 C 183.288 54.461 183.694 55.949 184.166 57.369 C 184.839 59.465 185.516 61.493 186.194 63.59 C 186.663 65.145 187.066 66.773 187.405 68.39 C 187.677 69.475 187.611 70.623 187.944 71.701 C 188.355 73.128 187.944 74.678 188.355 76.103 C 188.419 76.239 188.483 76.441 188.555 76.577 C 188.825 76.844 189.027 77.116 188.622 77.522 C 188.558 77.589 188.558 77.856 188.622 78.061 C 188.76 77.927 188.827 77.791 188.963 77.589 C 188.963 77.725 189.027 77.794 189.027 77.858 C 189.027 78.125 188.958 78.397 189.027 78.667 C 189.027 78.8 189.161 79 189.228 79.139 C 189.364 79 189.497 78.934 189.767 78.728 C 190.375 81.031 190.444 83.33 190.444 85.697 C 190.444 87.93 190.847 90.163 189.905 92.326 C 190.105 91.582 189.633 90.902 189.836 90.227 L 189.864 90.245 Z " fill-rule="evenodd" fill="rgb(221,58,10)"/><path d=" M 146.706 116.548 C 146.77 116.548 146.839 116.617 146.839 116.617 L 146.77 116.54 C 146.77 116.476 146.77 116.476 146.703 116.54 L 146.706 116.548 Z  M 157.375 183.373 C 156.631 183.912 155.887 184.387 154.942 184.59 C 154.87 184.523 154.87 184.454 154.804 184.385 C 155.548 183.912 156.356 183.44 157.101 182.965 C 157.17 183.094 157.306 183.232 157.373 183.368 L 157.375 183.373 Z  M 30.731 91.723 C 31.476 90.781 32.22 89.834 33.026 88.887 C 33.09 88.954 33.629 89.092 33.698 89.157 C 32.954 90.106 31.94 91.39 31.198 92.403 C 31.06 92.267 30.857 91.795 30.724 91.726 L 30.731 91.723 Z  M 11.546 124.872 C 11.007 123.722 10.468 122.503 9.929 121.355 C 10.117 121.236 10.32 121.145 10.534 121.083 C 11.279 122.161 11.612 123.445 12.156 124.6 C 12.156 124.6 11.617 124.869 11.548 124.869 L 11.546 124.872 Z  M 28.773 92.403 C 28.367 93.014 27.962 93.692 27.556 94.303 C 27.49 94.231 26.745 94.57 26.679 94.503 C 27.084 93.895 28.095 92.809 28.501 92.203 C 28.57 92.27 28.637 92.339 28.773 92.409 L 28.773 92.403 Z  M 150.15 186.151 C 150.214 186.151 150.214 186.084 150.284 186.084 C 150.756 186.151 151.295 186.217 151.836 186.217 C 150.954 186.826 150.412 186.756 150.142 186.151 L 150.15 186.151 Z  M 28.901 95.245 C 28.973 95.039 29.107 94.839 29.243 94.636 C 29.376 94.636 29.576 94.567 29.576 94.567 C 29.851 94.095 29.851 93.756 30.12 93.35 C 30.054 93.284 29.984 93.284 29.915 93.214 C 29.512 93.492 29.107 93.83 28.701 94.1 C 28.837 94.233 28.837 94.305 28.837 94.439 C 28.298 94.369 28.093 94.644 27.823 95.383 C 27.757 95.589 27.418 95.655 27.079 95.922 C 27.012 96.061 26.946 96.4 26.809 96.736 L 26.879 96.808 C 26.743 96.944 26.54 97.013 26.54 97.013 C 26.134 97.416 25.662 97.757 25.257 98.16 C 25.19 98.366 25.123 98.566 25.123 98.769 C 25.598 98.296 26.407 97.416 27.015 96.875 L 27.084 96.944 C 27.354 96.538 27.556 96.133 27.828 95.727 C 27.893 95.794 27.893 95.861 27.962 95.933 C 27.757 96.472 27.556 97.077 27.354 97.619 C 27.212 97.686 27.01 97.824 27.01 97.755 C 26.74 97.96 26.537 98.227 26.265 98.43 L 25.051 99.241 C 24.376 99.849 23.701 100.388 22.957 100.999 C 22.485 101.743 22.012 102.418 21.468 103.299 C 22.282 103.094 22.485 103.435 22.418 104.112 C 23.362 104.246 23.432 103.504 23.701 102.963 C 23.768 102.824 23.837 102.552 23.971 102.485 C 24.579 101.946 25.254 101.474 25.929 100.932 C 26.065 100.796 26.065 100.522 26.065 100.322 C 26.065 100.255 25.724 100.255 25.521 100.185 C 26.129 99.508 27.01 98.363 27.615 97.619 C 27.954 97.414 28.29 97.141 28.29 96.939 C 28.224 96.194 28.696 95.994 29.24 95.722 C 28.968 95.517 28.899 95.319 28.899 95.252 L 28.901 95.245 Z " fill-rule="evenodd" fill="rgb(221,55,53)"/><path d=" M 30.257 94.5 C 29.987 94.973 29.718 95.378 29.448 95.853 L 29.042 95.648 C 28.773 97.2 27.826 98.553 26.881 98.823 C 27.151 98.959 27.42 99.095 27.626 99.028 C 27.826 98.959 27.959 98.617 28.095 98.417 L 29.918 95.779 L 30.529 94.762 L 30.259 94.493 L 30.257 94.5 Z  M 7.767 124.191 C 8.106 124.191 8.445 124.258 8.845 124.258 C 8.845 123.989 9.187 124.053 9.187 123.786 L 9.392 123.786 C 9.392 124.125 9.459 124.394 9.459 124.736 L 8.042 124.736 C 7.973 124.666 7.703 124.258 7.77 124.191 L 7.767 124.191 Z  M 7.228 121.081 C 7.023 120.875 6.689 120.675 6.689 120.472 C 6.62 120.205 6.823 119.869 7.023 119.53 C 7.162 120.003 7.228 120.408 7.362 120.883 C 7.293 120.947 7.226 121.016 7.226 121.083 L 7.228 121.081 Z  M 8.917 116.751 C 9.187 117.433 9.456 118.178 9.728 118.855 C 9.536 118.918 9.355 119.009 9.189 119.125 C 8.92 118.447 8.581 117.703 8.312 117.028 C 8.494 116.897 8.701 116.805 8.92 116.756 L 8.917 116.751 Z  M 159.272 181.415 C 159.606 181.282 160.011 181.21 160.555 181.081 C 159.945 181.551 159.472 181.89 159.067 182.295 C 158.997 182.229 158.931 182.159 158.861 182.159 C 158.997 181.89 159.134 181.687 159.272 181.415 Z  M 76.251 38.501 C 76.654 38.229 76.995 38.026 77.398 37.757 L 77.532 37.89 C 77.121 38.429 76.787 38.968 76.313 39.648 C 76.246 39.179 76.246 38.904 76.177 38.57 C 76.11 38.57 76.177 38.57 76.246 38.504 L 76.251 38.501 Z  M 96.04 72.722 C 96.648 72.45 97.257 72.183 97.998 71.842 C 97.932 72.247 97.932 72.519 97.932 72.792 C 97.714 72.713 97.485 72.666 97.254 72.653 C 96.848 72.722 96.104 73.264 95.765 73.331 C 95.701 73.331 96.037 72.792 96.037 72.722 L 96.04 72.722 Z  M 146.706 130.077 C 146.839 130.752 148.123 131.091 146.839 131.766 C 147.045 131.907 147.242 131.971 147.445 132.11 C 147.429 132.212 147.382 132.306 147.311 132.382 C 147.175 132.446 146.906 132.582 146.772 132.51 C 146.703 132.51 146.567 132.243 146.567 132.107 C 146.567 131.499 146.636 130.89 146.703 130.079 L 146.706 130.077 Z " fill-rule="evenodd" fill="rgb(221,55,53)"/></g></svg>