<?xml version="1.0" standalone="no"?><!-- Generator: Gravit.io --><svg xmlns="http://www.w3.org/2000/svg" xmlns:xlink="http://www.w3.org/1999/xlink" style="isolation:isolate" viewBox="0 0 200 200" width="200" height="200"><defs><clipPath id="_clipPath_E1HOaKTM8Iq11gxAR18R5w2gu2iOfrhN"><rect width="200" height="200"/></clipPath></defs><g clip-path="url(#_clipPath_E1HOaKTM8Iq11gxAR18R5w2gu2iOfrhN)"><path d=" M 101.604 0 L 188.207 50 L 188.207 150 L 101.604 200 L 15 150 L 15 50 L 101.604 0 Z " fill="rgb(103,58,184)"/><path d=" M 38.892 148.995 C 50.406 163.732 86.995 152.503 121.538 125.515 C 156.081 98.527 175.828 65.741 164.315 51.005 C 152.801 36.268 116.213 47.497 81.669 74.485 C 47.126 101.473 27.379 134.259 38.892 148.995 Z  M 43.811 145.153 C 39.993 140.265 41.661 130.672 48.935 118.594 C 56.595 105.876 69.599 91.836 85.512 79.404 C 101.425 66.971 118.193 57.75 132.387 53.394 C 145.866 49.258 155.578 49.96 159.396 54.847 C 163.215 59.735 161.546 69.328 154.272 81.406 C 146.612 94.124 133.608 108.164 117.695 120.596 C 101.782 133.029 85.014 142.25 70.821 146.606 C 57.342 150.742 47.629 150.04 43.811 145.153 Z " fill="rgb(255,255,255)"/><path d=" M 164.315 148.995 C 175.828 134.259 156.081 101.473 121.538 74.485 C 86.995 47.497 50.406 36.268 38.892 51.005 C 27.379 65.741 47.126 98.527 81.669 125.515 C 116.213 152.503 152.801 163.732 164.315 148.995 Z  M 159.396 145.153 C 155.578 150.04 145.866 150.742 132.387 146.606 C 118.193 142.25 101.425 133.029 85.512 120.596 C 69.599 108.164 56.595 94.124 48.935 81.406 C 41.661 69.328 39.993 59.735 43.811 54.847 C 47.629 49.96 57.342 49.258 70.821 53.394 C 85.014 57.75 101.782 66.971 117.695 79.404 C 133.608 91.836 146.612 105.876 154.272 118.594 C 161.546 130.672 163.215 140.265 159.396 145.153 Z " fill="rgb(255,255,255)"/><path d=" M 101.604 113.264 C 108.929 113.264 114.867 107.325 114.867 100 C 114.867 92.675 108.929 86.736 101.604 86.736 C 94.278 86.736 88.34 92.675 88.34 100 C 88.34 107.325 94.278 113.264 101.604 113.264 L 101.604 113.264 Z " fill="rgb(255,255,255)"/></g></svg>