<?xml version="1.0" standalone="no"?><!-- Generator: Gravit.io --><svg xmlns="http://www.w3.org/2000/svg" xmlns:xlink="http://www.w3.org/1999/xlink" style="isolation:isolate" viewBox="0 0 200 200" width="200" height="200"><defs><clipPath id="_clipPath_9g2QlIKAuDrPTze5w7Var1GcAtxkAUsv"><rect width="200" height="200"/></clipPath></defs><g clip-path="url(#_clipPath_9g2QlIKAuDrPTze5w7Var1GcAtxkAUsv)"><path d=" M 0 99.834 C 0 44.734 44.734 0 99.834 0 C 154.933 0 199.667 44.734 199.667 99.834 C 199.667 154.933 154.933 199.667 99.834 199.667 C 44.734 199.667 0 154.933 0 99.834 Z " fill="rgb(225,52,57)"/><path d=" M 199.667 98.502 C 197.671 96.839 196.007 94.842 195.341 94.176 C 186.356 85.191 166.057 64.559 163.727 64.559 C 170.383 75.208 174.709 86.855 176.04 99.501 C 176.705 104.16 175.042 105.491 170.715 104.825 C 169.052 104.493 167.055 104.825 165.058 104.825 C 163.727 104.825 162.396 105.158 162.396 106.822 C 162.396 108.819 163.727 108.819 165.058 108.819 C 165.391 108.819 165.391 108.819 165.724 108.819 C 176.373 109.817 176.373 109.817 176.373 120.799 C 176.373 122.795 176.04 124.459 176.04 126.456 C 126.123 126.456 76.206 126.456 26.29 126.456 L 26.29 126.456 C 26.29 126.456 26.29 126.456 26.29 126.456 C 27.621 127.787 30.283 130.782 31.614 132.446 C 52.246 153.078 72.879 173.71 93.511 194.676 C 94.176 195.341 96.506 197.671 98.835 200 C 99.168 200 99.501 200 99.834 200 C 155.075 200 199.667 155.408 199.667 100.166 C 199.667 99.501 199.667 98.835 199.667 98.502 Z " fill="rgb(181,47,50)"/><path d=" M 163.727 64.559 C 170.383 75.208 174.709 86.855 176.04 99.501 C 176.705 104.16 175.042 105.491 170.715 104.825 C 169.052 104.493 167.055 104.825 165.058 104.825 C 163.727 104.825 162.396 105.158 162.396 106.822 C 162.396 108.819 163.727 108.819 165.058 108.819 C 165.391 108.819 165.391 108.819 165.724 108.819 C 176.373 109.817 176.373 109.817 176.373 120.799 C 176.373 122.795 176.04 124.459 176.04 126.456 C 126.123 126.456 76.206 126.456 26.29 126.456 C 24.293 121.464 25.624 116.14 25.291 110.815 C 25.291 108.819 27.288 109.151 28.619 108.819 C 31.281 108.819 33.943 109.151 36.938 109.151 C 38.27 109.151 39.601 108.819 39.601 107.155 C 39.601 105.491 38.27 105.158 36.938 105.158 C 33.611 105.158 29.95 105.491 26.622 105.491 C 23.96 98.502 26.955 91.847 28.619 85.191 C 31.281 75.541 36.273 66.889 42.596 58.902 C 44.925 55.907 46.589 55.241 49.251 58.569 C 50.915 60.566 52.912 62.23 54.576 64.226 C 55.574 65.225 56.572 65.89 57.903 64.559 C 59.235 63.228 58.569 62.23 57.571 61.231 C 55.907 59.235 53.91 57.238 51.913 55.907 C 48.918 53.577 49.251 51.913 52.246 49.584 C 65.89 38.27 81.531 32.612 99.168 31.947 C 99.168 35.607 99.168 39.268 99.501 42.928 C 99.501 44.26 98.835 46.256 101.165 46.256 C 103.494 46.256 102.829 44.26 102.829 42.928 C 102.829 40.932 102.829 39.268 102.829 37.271 C 102.496 32.612 104.493 31.614 109.151 32.28 C 123.461 34.276 136.772 39.268 148.087 48.253 C 149.75 49.584 152.08 50.582 152.413 52.912 C 150.083 55.241 147.754 57.571 145.757 60.233 C 144.759 61.564 141.431 62.562 144.093 64.892 C 146.423 67.221 147.421 63.894 148.752 62.895 C 151.414 60.898 153.411 57.571 156.406 55.907 C 158.735 58.236 161.065 61.564 163.727 64.559 Z  M 100.499 106.822 C 115.141 106.822 129.784 106.822 144.093 106.822 C 148.087 106.822 150.083 105.491 149.085 101.498 C 146.755 88.852 141.764 78.203 131.78 69.551 C 122.463 61.564 111.148 57.903 99.168 58.569 C 89.517 58.902 79.867 61.231 71.88 67.554 C 60.566 76.539 52.579 87.521 52.246 102.829 C 52.246 106.489 53.577 106.822 56.905 106.822 C 71.547 106.822 86.19 106.822 100.499 106.822 Z " fill="rgb(239,235,236)"/><path d=" M 100.499 106.822 C 86.19 106.822 71.88 106.822 57.238 106.822 C 54.243 106.822 52.579 106.489 52.579 102.829 C 52.912 87.521 60.566 76.539 72.213 67.554 C 80.2 61.231 89.85 58.902 99.501 58.569 C 111.481 58.236 122.795 61.564 132.113 69.551 C 141.764 77.87 147.088 88.852 149.418 101.498 C 150.083 105.824 148.419 107.155 144.426 106.822 C 129.451 106.822 115.141 106.822 100.499 106.822 Z " fill="rgb(181,47,50)"/></g></svg>