<?xml version="1.0" standalone="no"?><!-- Generator: Gravit.io --><svg xmlns="http://www.w3.org/2000/svg" xmlns:xlink="http://www.w3.org/1999/xlink" style="isolation:isolate" viewBox="0 0 200 200" width="200" height="200"><defs><clipPath id="_clipPath_vsTaLBpHSnRpKfGNlegDwwMhz5Kos3fE"><rect width="200" height="200"/></clipPath></defs><g clip-path="url(#_clipPath_vsTaLBpHSnRpKfGNlegDwwMhz5Kos3fE)"><g id="Group"><path d=" M 200 100.02 C 200 86.771 183.408 74.215 157.97 66.429 C 163.84 40.501 161.231 19.874 149.735 13.269 C 147.085 11.72 143.987 10.987 140.603 10.987 L 140.603 20.077 C 142.479 20.077 143.987 20.444 145.251 21.137 C 150.795 24.317 153.2 36.425 151.325 51.998 C 150.876 55.83 150.143 59.865 149.246 63.983 C 141.256 62.026 132.532 60.518 123.359 59.539 C 117.856 51.998 112.148 45.149 106.4 39.156 C 119.69 26.804 132.165 20.037 140.644 20.037 L 140.644 10.946 C 140.644 10.946 140.644 10.946 140.644 10.946 C 129.433 10.946 114.757 18.936 99.918 32.797 C 85.079 19.018 70.404 11.109 59.193 11.109 L 59.193 20.2 C 67.631 20.2 80.147 26.926 93.437 39.197 C 87.729 45.19 82.022 51.998 76.6 59.539 C 67.387 60.518 58.663 62.026 50.673 64.024 C 49.735 59.947 49.042 55.993 48.553 52.201 C 46.637 36.629 49.001 24.521 54.505 21.3 C 55.728 20.567 57.318 20.241 59.193 20.241 L 59.193 11.15 C 59.193 11.15 59.193 11.15 59.193 11.15 C 55.768 11.15 52.67 11.883 49.98 13.433 C 38.524 20.037 35.956 40.624 41.867 66.47 C 16.51 74.297 0 86.812 0 100.02 C 0 113.269 16.592 125.826 42.03 133.612 C 36.16 159.539 38.769 180.167 50.265 186.771 C 52.915 188.32 56.013 189.054 59.437 189.054 C 70.648 189.054 85.324 181.064 100.163 167.203 C 115.002 180.982 129.678 188.891 140.889 188.891 C 144.313 188.891 147.411 188.157 150.102 186.608 C 161.557 180.004 164.126 159.417 158.214 133.571 C 183.49 125.785 200 113.229 200 100.02 Z  M 146.922 72.829 C 145.414 78.088 143.539 83.51 141.419 88.932 C 139.747 85.671 137.994 82.409 136.078 79.148 C 134.203 75.887 132.205 72.707 130.208 69.609 C 135.997 70.465 141.582 71.525 146.922 72.829 Z  M 128.251 116.245 C 125.071 121.749 121.81 126.967 118.426 131.818 C 112.352 132.348 106.197 132.634 100 132.634 C 93.844 132.634 87.689 132.348 81.655 131.859 C 78.272 127.008 74.969 121.83 71.79 116.368 C 68.691 111.027 65.879 105.605 63.31 100.143 C 65.838 94.68 68.691 89.217 71.749 83.877 C 74.929 78.373 78.19 73.155 81.574 68.304 C 87.648 67.774 93.804 67.489 100 67.489 C 106.156 67.489 112.311 67.774 118.345 68.263 C 121.728 73.115 125.031 78.292 128.21 83.755 C 131.309 89.095 134.121 94.517 136.69 99.98 C 134.121 105.442 131.309 110.905 128.251 116.245 Z  M 141.419 110.946 C 143.62 116.408 145.495 121.871 147.044 127.171 C 141.704 128.475 136.078 129.576 130.249 130.432 C 132.246 127.293 134.244 124.073 136.119 120.77 C 137.994 117.509 139.747 114.207 141.419 110.946 Z  M 100.082 154.444 C 96.29 150.53 92.499 146.168 88.748 141.398 C 92.417 141.561 96.168 141.684 99.959 141.684 C 103.791 141.684 107.583 141.602 111.292 141.398 C 107.623 146.168 103.832 150.53 100.082 154.444 Z  M 69.751 130.432 C 63.962 129.576 58.377 128.516 53.037 127.212 C 54.545 121.953 56.421 116.531 58.541 111.109 C 60.212 114.37 61.965 117.631 63.881 120.893 C 65.797 124.154 67.754 127.334 69.751 130.432 Z  M 99.878 45.597 C 103.669 49.511 107.46 53.873 111.211 58.642 C 107.542 58.479 103.791 58.357 100 58.357 C 96.168 58.357 92.377 58.439 88.667 58.642 C 92.336 53.873 96.127 49.511 99.878 45.597 Z  M 69.711 69.609 C 67.713 72.748 65.715 75.968 63.84 79.27 C 61.965 82.532 60.212 85.793 58.541 89.054 C 56.339 83.592 54.464 78.129 52.915 72.829 C 58.255 71.565 63.881 70.465 69.711 69.609 Z  M 32.817 120.648 C 18.386 114.492 9.05 106.421 9.05 100.02 C 9.05 93.62 18.386 85.508 32.817 79.393 C 36.323 77.884 40.155 76.539 44.109 75.275 C 46.433 83.265 49.49 91.582 53.282 100.102 C 49.531 108.581 46.514 116.857 44.232 124.806 C 40.196 123.543 36.364 122.157 32.817 120.648 Z  M 54.749 178.903 C 49.205 175.724 46.8 163.616 48.675 148.043 C 49.124 144.211 49.857 140.175 50.754 136.058 C 58.744 138.015 67.468 139.523 76.641 140.501 C 82.144 148.043 87.852 154.892 93.6 160.885 C 80.31 173.237 67.835 180.004 59.356 180.004 C 57.521 179.963 55.972 179.596 54.749 178.903 Z  M 151.447 147.839 C 153.363 163.412 150.999 175.52 145.495 178.74 C 144.272 179.474 142.682 179.8 140.807 179.8 C 132.369 179.8 119.853 173.074 106.563 160.803 C 112.271 154.81 117.978 148.002 123.4 140.461 C 132.613 139.482 141.337 137.974 149.327 135.976 C 150.265 140.094 150.999 144.048 151.447 147.839 Z  M 167.142 120.648 C 163.636 122.157 159.804 123.502 155.85 124.766 C 153.526 116.775 150.469 108.459 146.678 99.939 C 150.428 91.459 153.445 83.184 155.728 75.234 C 159.764 76.498 163.596 77.884 167.183 79.393 C 181.614 85.548 190.95 93.62 190.95 100.02 C 190.909 106.421 181.574 114.533 167.142 120.648 Z " fill="rgb(97,218,251)"/><path d=" M 59.152 11.109 L 59.152 11.109 L 59.152 11.109 L 59.152 11.109 Z " fill="rgb(97,218,251)"/><path d=" M 81.329 100.02 C 81.329 89.738 89.677 81.39 99.959 81.39 C 110.242 81.39 118.589 89.738 118.589 100.02 C 118.589 110.303 110.242 118.651 99.959 118.651 C 89.677 118.651 81.329 110.303 81.329 100.02 Z " fill="rgb(97,218,251)"/><path d=" M 140.563 10.987 L 140.563 10.987 L 140.563 10.987 L 140.563 10.987 Z " fill="rgb(97,218,251)"/></g></g></svg>