<?xml version="1.0" standalone="no"?><!-- Generator: Gravit.io --><svg xmlns="http://www.w3.org/2000/svg" xmlns:xlink="http://www.w3.org/1999/xlink" style="isolation:isolate" viewBox="0 0 200 200" width="200" height="200"><defs><clipPath id="_clipPath_Wjcr5O24g3xYmJRoNnN2FZGPAQ86PC2a"><rect width="200" height="200"/></clipPath></defs><g clip-path="url(#_clipPath_Wjcr5O24g3xYmJRoNnN2FZGPAQ86PC2a)"><path d=" M 0 100 C 0 44.808 44.808 0 100 0 C 155.192 0 200 44.808 200 100 C 200 155.192 155.192 200 100 200 C 44.808 200 0 155.192 0 100 Z " fill="rgb(67,165,235)"/><path d=" M 33.345 100 C 33.345 63.212 63.212 33.345 100 33.345 C 136.788 33.345 166.655 63.212 166.655 100 C 166.655 136.788 136.788 166.655 100 166.655 C 63.212 166.655 33.345 136.788 33.345 100 Z " fill="rgb(243,75,65)"/><path d=" M 66.216 100 C 66.216 81.354 81.354 66.216 100 66.216 C 118.646 66.216 133.784 81.354 133.784 100 C 133.784 118.646 118.646 133.784 100 133.784 C 81.354 133.784 66.216 118.646 66.216 100 Z " fill="rgb(254,251,31)"/></g></svg>