<?xml version="1.0" standalone="no"?><!-- Generator: Gravit.io --><svg xmlns="http://www.w3.org/2000/svg" xmlns:xlink="http://www.w3.org/1999/xlink" style="isolation:isolate" viewBox="0 0 200 200" width="200" height="200"><defs><clipPath id="_clipPath_yHFw7S1c7LKdi966lucy3c6mlPYauF76"><rect width="200" height="200"/></clipPath></defs><g clip-path="url(#_clipPath_yHFw7S1c7LKdi966lucy3c6mlPYauF76)"><path d=" M 172.216 111.228 C 165.238 111.265 159.174 112.945 154.096 115.429 C 152.233 111.74 150.37 108.452 150.041 106.041 C 149.676 103.228 149.238 101.511 149.676 98.15 C 150.115 94.789 152.087 90.004 152.051 89.639 C 152.014 89.273 151.612 87.556 147.594 87.52 C 143.576 87.483 140.105 88.287 139.703 89.346 C 139.301 90.406 138.534 92.817 138.023 95.301 C 137.329 98.954 129.986 111.995 125.785 118.827 C 124.433 116.16 123.264 113.822 123.009 111.959 C 122.643 109.146 122.205 107.429 122.643 104.068 C 123.082 100.707 125.054 95.922 125.018 95.557 C 124.981 95.191 124.58 93.474 120.561 93.438 C 116.543 93.401 113.072 94.205 112.67 95.264 C 112.269 96.324 111.83 98.808 110.99 101.219 C 110.15 103.63 100.396 125.402 97.839 131.028 C 96.524 133.914 95.391 136.215 94.588 137.786 C 94.588 137.786 94.588 137.786 94.588 137.786 C 94.588 137.786 94.551 137.896 94.442 138.078 C 93.748 139.43 93.346 140.161 93.346 140.161 C 93.346 140.161 93.346 140.161 93.346 140.197 C 92.798 141.183 92.213 142.097 91.921 142.097 C 91.702 142.097 91.3 139.467 91.994 135.887 C 93.455 128.325 96.926 116.562 96.889 116.16 C 96.889 115.941 97.547 113.895 94.624 112.836 C 91.775 111.776 90.752 113.53 90.496 113.53 C 90.241 113.53 90.058 114.151 90.058 114.151 C 90.058 114.151 93.236 100.927 83.994 100.927 C 78.222 100.927 70.258 107.246 66.313 112.945 C 63.829 114.297 58.532 117.183 52.87 120.288 C 50.714 121.493 48.486 122.699 46.404 123.831 C 46.258 123.685 46.111 123.503 45.965 123.356 C 34.787 111.411 14.11 102.972 14.987 86.935 C 15.316 81.09 17.325 65.747 54.696 47.117 C 85.455 31.956 109.931 36.158 114.168 45.473 C 120.232 58.77 101.054 83.465 69.272 87.045 C 57.144 88.397 50.787 83.721 49.18 81.967 C 47.5 80.141 47.244 80.031 46.623 80.396 C 45.6 80.944 46.258 82.588 46.623 83.538 C 47.573 86.022 51.481 90.406 58.094 92.561 C 63.938 94.461 78.149 95.52 95.355 88.871 C 114.607 81.419 129.657 60.706 125.237 43.354 C 120.817 25.746 91.592 19.938 63.938 29.765 C 47.5 35.61 29.673 44.815 16.85 56.797 C 1.617 71.044 -0.794 83.428 0.192 88.616 C 3.736 107.027 29.125 119.009 39.28 127.886 C 38.769 128.179 38.294 128.434 37.892 128.653 C 32.814 131.174 13.453 141.293 8.631 151.997 C 3.151 164.125 9.508 172.819 13.709 173.988 C 26.75 177.605 40.157 171.102 47.353 160.362 C 54.55 149.622 53.673 135.667 50.349 129.274 C 50.312 129.201 50.276 129.128 50.203 129.055 C 51.518 128.288 52.87 127.484 54.185 126.717 C 56.778 125.183 59.336 123.758 61.527 122.589 C 60.285 125.987 59.372 130.042 58.934 135.887 C 58.386 142.754 61.199 151.668 64.888 155.175 C 66.532 156.709 68.468 156.746 69.71 156.746 C 74.021 156.746 75.957 153.166 78.112 148.928 C 80.743 143.741 83.117 137.713 83.117 137.713 C 83.117 137.713 80.158 154.006 88.195 154.006 C 91.117 154.006 94.076 150.207 95.391 148.27 C 95.391 148.307 95.391 148.307 95.391 148.307 C 95.391 148.307 95.464 148.197 95.611 147.942 C 95.903 147.467 96.086 147.175 96.086 147.175 C 96.086 147.175 96.086 147.138 96.086 147.101 C 97.255 145.056 99.885 140.416 103.794 132.708 C 108.835 122.772 113.693 110.352 113.693 110.352 C 113.693 110.352 114.132 113.384 115.629 118.425 C 116.506 121.384 118.333 124.635 119.794 127.777 C 118.625 129.421 117.894 130.334 117.894 130.334 C 117.894 130.334 117.894 130.334 117.931 130.37 C 116.981 131.612 115.958 132.964 114.826 134.279 C 110.844 139.028 106.095 144.471 105.437 146.042 C 104.67 147.905 104.853 149.257 106.314 150.353 C 107.374 151.156 109.273 151.266 111.209 151.156 C 114.789 150.901 117.31 150.024 118.552 149.476 C 120.488 148.782 122.753 147.722 124.872 146.152 C 128.781 143.266 131.155 139.138 130.936 133.695 C 130.826 130.699 129.84 127.704 128.634 124.891 C 129 124.379 129.329 123.868 129.694 123.356 C 135.868 114.333 140.653 104.434 140.653 104.434 C 140.653 104.434 141.091 107.466 142.589 112.507 C 143.32 115.064 144.818 117.84 146.133 120.544 C 140.324 125.256 136.744 130.736 135.466 134.316 C 133.164 140.964 134.954 143.96 138.352 144.654 C 139.886 144.983 142.078 144.252 143.685 143.558 C 145.731 142.9 148.142 141.768 150.443 140.088 C 154.352 137.202 158.115 133.183 157.896 127.74 C 157.786 125.256 157.128 122.809 156.215 120.434 C 161.147 118.388 167.503 117.256 175.613 118.206 C 193.002 120.251 196.436 131.101 195.778 135.667 C 195.12 140.234 191.467 142.718 190.262 143.485 C 189.056 144.252 188.655 144.508 188.764 145.056 C 188.91 145.859 189.495 145.823 190.518 145.677 C 191.942 145.421 199.65 141.987 199.979 133.585 C 200.527 122.845 190.298 111.119 172.216 111.228 Z  M 38.075 156.453 C 32.303 162.737 24.266 165.111 20.796 163.102 C 17.069 160.947 18.531 151.668 25.618 145.019 C 29.928 140.964 35.481 137.202 39.171 134.9 C 40.011 134.389 41.253 133.658 42.751 132.745 C 43.006 132.599 43.152 132.526 43.152 132.526 L 43.152 132.526 C 43.445 132.343 43.737 132.16 44.029 131.978 C 46.623 141.476 44.139 149.841 38.075 156.453 Z  M 80.085 127.886 C 78.076 132.781 73.875 145.311 71.318 144.617 C 69.126 144.033 67.774 134.535 70.879 125.146 C 72.45 120.434 75.774 114.808 77.711 112.616 C 80.852 109.109 84.323 107.94 85.163 109.365 C 86.222 111.228 81.327 124.818 80.085 127.886 Z  M 114.753 144.471 C 113.913 144.91 113.109 145.202 112.744 144.983 C 112.488 144.837 113.109 144.252 113.109 144.252 C 113.109 144.252 117.456 139.576 119.173 137.457 C 120.159 136.215 121.328 134.754 122.57 133.11 C 122.57 133.256 122.57 133.439 122.57 133.585 C 122.57 139.174 117.164 142.937 114.753 144.471 Z  M 141.493 138.371 C 140.872 137.932 140.982 136.471 143.064 131.905 C 143.868 130.115 145.767 127.119 149.019 124.233 C 149.384 125.402 149.64 126.535 149.603 127.594 C 149.567 134.644 144.525 137.275 141.493 138.371 Z " fill="rgb(205,103,153)"/></g></svg>