<?xml version="1.0" standalone="no"?><!-- Generator: Gravit.io --><svg xmlns="http://www.w3.org/2000/svg" xmlns:xlink="http://www.w3.org/1999/xlink" style="isolation:isolate" viewBox="0 0 200 200" width="200" height="200"><defs><clipPath id="_clipPath_vrpSfc3n8WycA2MJkt51Hsxk11kkLQo5"><rect width="200" height="200"/></clipPath></defs><g clip-path="url(#_clipPath_vrpSfc3n8WycA2MJkt51Hsxk11kkLQo5)"><path d=" M 101.36 195.35 C 123.235 117.14 122.6 116.785 138.41 61.02 L 142.21 63.22 C 144.28 64.405 145.97 63.43 145.97 61.05 L 145.97 34.45 C 150.17 19.76 153.45 8.4 154.42 5 L 171.545 5 L 200 31.35 L 181.31 47.5 L 195.445 62.785 L 102.3 195.35 C 101.85 196.1 101.215 195.93 101.36 195.35 L 101.36 195.35 Z  M 111.535 26.77 C 112.385 26.77 113.065 27.235 113.065 27.82 L 113.065 41.445 C 113.065 42.015 112.38 42.48 111.535 42.48 L 88.535 42.48 C 87.685 42.48 87 42.015 87 41.44 L 87 27.81 C 87 27.235 87.685 26.76 88.53 26.76 L 111.53 26.76 L 111.535 26.77 Z  M 139.935 11.68 L 114.625 26.29 C 114.915 26.74 115.095 27.255 115.095 27.815 L 115.095 41.45 C 115.095 42.15 114.815 42.79 114.365 43.3 L 139.93 58.06 C 141.67 59.07 143.1 58.245 143.1 56.235 L 143.1 13.51 C 143.1 11.495 141.68 10.675 139.935 11.68 Z  M 84.965 41.45 L 84.965 27.81 C 84.965 27.25 85.145 26.735 85.435 26.29 L 60.125 11.67 C 58.385 10.67 56.955 11.49 56.955 13.5 L 56.955 56.225 C 56.955 58.235 58.385 59.06 60.13 58.05 L 85.69 43.29 C 85.24 42.775 84.97 42.14 84.97 41.44 L 84.965 41.45 Z  M 97.7 195.35 L 98.64 195.35 C 76.77 117.14 77.4 116.785 61.59 61.02 L 57.79 63.22 C 55.725 64.405 54.03 63.43 54.03 61.05 L 54.03 34.45 C 49.83 19.765 46.55 8.4 45.58 5 L 28.46 5 L 0 31.35 L 18.685 47.5 L 4.55 62.79 L 97.7 195.35 Z  M 99.305 70.945 C 103.121 70.945 106.215 67.851 106.215 64.035 C 106.215 60.219 103.121 57.125 99.305 57.125 C 95.489 57.125 92.395 60.219 92.395 64.035 C 92.395 67.851 95.489 70.945 99.305 70.945 Z  M 99.305 112.02 C 103.121 112.02 106.215 108.926 106.215 105.11 C 106.215 101.294 103.121 98.2 99.305 98.2 C 95.489 98.2 92.395 101.294 92.395 105.11 C 92.395 108.926 95.489 112.02 99.305 112.02 Z  M 99.305 153.105 C 103.121 153.105 106.215 150.011 106.215 146.195 C 106.215 142.379 103.121 139.285 99.305 139.285 C 95.489 139.285 92.395 142.379 92.395 146.195 C 92.395 150.011 95.489 153.105 99.305 153.105 Z " fill="rgb(0,0,0)"/></g></svg>