<?xml version="1.0" standalone="no"?><!-- Generator: Gravit.io --><svg xmlns="http://www.w3.org/2000/svg" xmlns:xlink="http://www.w3.org/1999/xlink" style="isolation:isolate" viewBox="0 0 200 200" width="200" height="200"><defs><clipPath id="_clipPath_74DGwdeXy3Am6Gc6PO70MZ71zHZhlhpr"><rect width="200" height="200"/></clipPath></defs><g clip-path="url(#_clipPath_74DGwdeXy3Am6Gc6PO70MZ71zHZhlhpr)"><g id="Group"><path d=" M 30.824 134.112 C 36.011 127.907 36.622 121.499 32.604 109.598 C 30.061 102.071 25.84 96.274 28.942 91.595 C 32.248 86.611 39.266 91.442 33.418 98.104 L 34.587 98.918 C 41.606 99.732 45.064 90.12 39.826 87.373 C 25.992 80.152 13.888 94.036 19.228 110.107 C 21.517 116.922 24.721 124.144 22.127 129.891 C 19.889 134.824 15.566 137.723 12.667 137.825 C 6.615 138.13 10.633 124.246 17.601 120.787 C 18.211 120.482 19.075 120.075 18.262 119.058 C 9.667 118.092 4.632 122.059 1.733 127.602 C -6.71 143.724 17.753 149.675 30.824 134.112 Z " fill="rgb(51,51,51)"/><path d=" M 181.873 86.712 C 183.856 91.595 186.857 96.426 185.077 100.698 C 183.602 104.36 181.669 105.886 179.533 106.242 C 176.533 106.75 177.346 97.342 182.483 94.544 C 182.941 94.29 183.602 93.07 182.992 92.358 C 176.482 92.002 172.82 95.104 170.837 99.223 C 165.09 111.277 183.856 114.583 193.062 102.733 C 196.723 98.003 196.876 93.324 193.367 84.83 C 191.129 79.44 187.721 75.422 189.857 71.862 C 192.146 68.098 197.639 71.353 193.519 76.388 L 194.435 76.897 C 199.775 77.202 201.962 70.082 197.893 68.302 C 187.162 63.724 177.143 75.269 181.873 86.712 Z " fill="rgb(51,51,51)"/><path d=" M 113.926 73.845 C 110.213 70.895 99.788 75.829 96.838 83.152 C 93.125 92.459 87.632 106.038 82.241 111.989 C 76.545 118.244 75.986 113.413 76.545 109.802 C 77.868 101.309 86.158 81.626 90.684 76.083 C 89.006 73.591 78.02 73.947 70.391 85.797 C 67.543 90.272 61.034 105.174 53.812 116.922 C 52.235 119.465 50.252 117.685 51.777 111.735 C 53.507 104.869 58.592 86 65.153 71.15 C 82.343 67.742 100.601 65.352 114.587 65.301 C 116.469 64.792 117.74 63.114 114.587 63.012 C 102.534 62.605 84.428 64.029 67.493 66.166 C 70.747 59.656 74.257 54.468 77.817 52.281 C 73.952 49.84 66.119 50.806 61.644 57.418 C 59.66 60.368 57.677 63.928 55.795 67.793 C 43.386 69.726 32.756 71.912 27.365 73.947 C 21.771 76.083 22.381 82.847 25.789 81.576 C 32.858 78.931 42.419 76.185 53.049 73.743 C 46.285 89.001 40.995 107.005 39.724 114.328 C 36.571 132.129 47.607 132.027 52.998 125.009 C 58.847 117.329 71.053 90.323 72.934 87.475 C 73.494 86.509 74.257 87.017 73.85 87.882 C 60.22 115.091 61.39 125.619 72.426 123.279 C 77.41 122.211 86.005 113.667 88.243 109.242 C 88.7 108.174 89.667 108.276 89.463 108.734 C 80.817 131.162 69.832 149.319 62.458 155.015 C 55.744 160.152 50.76 149.014 74.511 133.044 C 78.02 130.654 76.393 127.399 72.426 128.518 C 72.426 128.518 72.426 128.518 72.426 128.518 C 60.169 130.45 25.077 141.588 9.667 152.269 C 8.497 153.082 7.429 153.743 7.48 155.422 C 7.531 156.388 9.209 156.032 10.023 155.523 C 29.959 143.572 46.285 138.893 65 134.977 C 65.255 135.078 65.56 135.129 65.814 135.028 C 66.679 134.824 66.628 135.282 66.069 135.638 C 64.797 136.35 63.526 137.011 63.22 137.113 C 50.608 142.046 42.979 152.93 45.674 158.473 C 47.963 163.254 60.322 161.525 66.17 158.372 C 80.512 150.59 90.938 135.333 98.058 114.277 C 104.263 95.612 112.095 74.455 113.926 73.845 Z " fill="rgb(51,51,51)"/><path d=" M 197.283 116.922 C 173.939 113.871 123.589 117.939 101.364 123.839 C 94.753 125.568 96.583 129.077 99.94 128.416 C 99.991 128.416 101.415 128.06 101.466 128.06 C 119.724 124.5 164.022 121.398 189.857 126.331 C 192.96 126.89 202.267 117.583 197.283 116.922 Z " fill="rgb(51,51,51)"/><path d=" M 120.436 114.176 C 126.946 110.921 136.609 90.781 142.966 79.745 C 143.424 78.931 144.238 79.592 143.78 80.152 C 127.709 107.818 134.524 111.022 140.881 110.616 C 149.374 110.107 157.207 97.901 158.936 95.155 C 159.648 94.087 160.055 94.951 159.648 95.714 C 159.241 96.986 157.766 99.223 156.393 102.275 C 154.46 106.598 156.494 108.276 158.173 109.039 C 160.817 110.31 168.039 109.497 169.158 105.072 C 161.936 104.919 179.228 70.844 181.008 68.759 C 176.177 65.962 168.7 69.014 165.293 75.727 C 158.02 90.12 151.917 101.715 148.103 101.919 C 140.678 102.326 156.647 69.827 159.241 68.81 C 157.664 66.522 147.543 67.488 141.898 76.235 C 139.864 79.389 127.454 101.359 124.403 104.97 C 119.012 111.379 118.605 105.886 120.131 99.478 C 120.639 97.291 121.504 94.494 122.623 91.391 C 126.183 83.356 129.997 80.813 132.337 78.219 C 148.052 60.775 157.054 46.636 153.494 41.092 C 150.341 36.159 139.813 38.346 133.049 48.518 C 120.589 67.183 109.095 92.764 107.62 104.462 C 106.196 116.159 114.689 117.024 120.436 114.176 Z  M 127.048 79.948 C 127.607 78.677 127.963 78.321 128.929 76.185 C 128.929 76.185 128.929 76.185 128.929 76.185 C 134.524 63.877 141.542 50.908 146.374 44.856 C 149.374 41.703 153.596 45.975 145.967 57.672 C 141.491 64.589 136.405 70.946 130.862 76.541 C 130.862 76.541 130.862 76.541 130.862 76.591 C 129.438 78.168 128.166 79.49 127.607 80.253 C 127.2 80.762 126.742 80.66 127.048 79.948 Z " fill="rgb(51,51,51)"/></g></g></svg>