<?xml version="1.0" standalone="no"?><!-- Generator: Gravit.io --><svg xmlns="http://www.w3.org/2000/svg" xmlns:xlink="http://www.w3.org/1999/xlink" style="isolation:isolate" viewBox="0 0 200 200" width="200" height="200"><defs><clipPath id="_clipPath_kxuE6RlaYWu1giirBVvHzY6ICywRLFyX"><rect width="200" height="200"/></clipPath></defs><g clip-path="url(#_clipPath_kxuE6RlaYWu1giirBVvHzY6ICywRLFyX)"><path d=" M 16.36 121.68 L 16.36 121.68 Q 10.76 121.68 8.08 118.44 L 8.08 118.44 L 8.08 118.44 Q 5.4 115.2 5.4 110.72 L 5.4 110.72 L 5.4 110.72 Q 5.4 107.6 6.52 106.36 L 6.52 106.36 L 6.52 106.36 Q 7.64 105.12 9.04 104.48 L 9.04 104.48 L 9.04 104.48 Q 10.44 103.84 10.68 103.6 L 10.68 103.6 L 10.68 103.6 Q 15.8 98.32 18.44 92.64 L 18.44 92.64 L 18.44 91.84 L 18.44 91.84 Q 18.44 88.88 19.44 87.44 L 19.44 87.44 L 19.44 87.44 Q 20.44 86 22.04 86 L 22.04 86 L 22.04 86 Q 23.8 86 23.96 87.6 L 23.96 87.6 L 23.96 87.6 Q 23.96 88 23.76 88.8 L 23.76 88.8 L 23.76 88.8 Q 23.56 89.6 23.56 90.48 L 23.56 90.48 L 23.56 90.48 Q 23.56 92 24.04 93.68 L 24.04 93.68 L 24.04 93.68 Q 24.52 95.36 25.56 98.24 L 25.56 98.24 L 25.56 98.24 Q 26.84 101.76 27.52 104.32 L 27.52 104.32 L 27.52 104.32 Q 28.2 106.88 28.2 109.52 L 28.2 109.52 L 28.2 109.52 Q 28.2 110.88 27.88 112.8 L 27.88 112.8 L 27.88 112.8 Q 33.32 111.44 37.32 103.76 L 37.32 103.76 L 38.28 104.48 L 38.28 104.48 Q 36.68 109.04 33.84 111.84 L 33.84 111.84 L 33.84 111.84 Q 31 114.64 27.16 115.2 L 27.16 115.2 L 27.16 115.2 Q 25.88 118.4 23 120.04 L 23 120.04 L 23 120.04 Q 20.12 121.68 16.36 121.68 L 16.36 121.68 Z  M 21.56 112.64 L 21.56 112.64 Q 21.8 111.92 21.8 110.16 L 21.8 110.16 L 21.8 110.16 Q 21.72 107.6 21.24 105.12 L 21.24 105.12 L 21.24 105.12 Q 20.76 102.64 19.8 98.72 L 19.8 98.72 L 19.08 95.84 L 19.08 95.84 Q 15.16 102.64 12.12 105.84 L 12.12 105.84 L 12.12 105.84 Q 13.48 108.16 15.96 110.04 L 15.96 110.04 L 15.96 110.04 Q 18.44 111.92 21.56 112.64 L 21.56 112.64 Z  M 15.8 118.16 L 15.8 118.16 Q 17.4 118.16 18.8 117.36 L 18.8 117.36 L 18.8 117.36 Q 20.2 116.56 20.92 115.04 L 20.92 115.04 L 20.92 115.04 Q 17.8 114.4 15.16 112.6 L 15.16 112.6 L 15.16 112.6 Q 12.52 110.8 10.92 108.72 L 10.92 108.72 L 10.92 108.72 Q 9.8 108.96 9.8 110.88 L 9.8 110.88 L 9.8 110.88 Q 9.8 113.76 11.4 115.96 L 11.4 115.96 L 11.4 115.96 Q 13 118.16 15.8 118.16 L 15.8 118.16 Z  M 42.36 121.28 L 42.36 121.28 Q 38.68 121.28 36.6 119.16 L 36.6 119.16 L 36.6 119.16 Q 34.52 117.04 34.52 112.88 L 34.52 112.88 L 34.52 112.88 Q 34.52 109.76 35.72 104.92 L 35.72 104.92 L 35.72 104.92 Q 36.92 100.08 38.92 94.64 L 38.92 94.64 L 38.92 94.64 Q 36.84 94.24 36.12 93.92 L 36.12 93.92 L 36.12 91.44 L 36.12 91.44 Q 38.04 91.68 39.96 91.84 L 39.96 91.84 L 39.96 91.84 Q 43.56 82.8 47.68 76.32 L 47.68 76.32 L 47.68 76.32 Q 51.8 69.84 54.36 69.84 L 54.36 69.84 L 54.36 69.84 Q 55.24 69.84 55.92 70.48 L 55.92 70.48 L 55.92 70.48 Q 56.6 71.12 56.6 72.16 L 56.6 72.16 L 56.6 72.16 Q 56.6 73.44 55.48 75.6 L 55.48 75.6 L 55.48 75.6 Q 54.36 77.76 51.8 82.16 L 51.8 82.16 L 51.8 82.16 Q 48.28 88.08 46.28 92.08 L 46.28 92.08 L 46.28 92.08 Q 55.48 92.08 60.92 91.52 L 60.92 91.52 L 60.92 94.16 L 60.92 94.16 Q 51.48 95.12 44.84 95.12 L 44.84 95.12 L 44.84 95.12 Q 40.68 104.96 40.68 111.2 L 40.68 111.2 L 40.68 111.2 Q 40.68 114.48 41.72 115.84 L 41.72 115.84 L 41.72 115.84 Q 42.76 117.2 45 117.2 L 45 117.2 L 45 117.2 Q 49 117.2 53.2 113.56 L 53.2 113.56 L 53.2 113.56 Q 57.4 109.92 60.52 103.68 L 60.52 103.68 L 61.64 104.48 L 61.64 104.48 Q 58.36 111.92 53.16 116.6 L 53.16 116.6 L 53.16 116.6 Q 47.96 121.28 42.36 121.28 L 42.36 121.28 Z  M 61.96 140 L 61.96 140 Q 59.72 140 58.12 138.68 L 58.12 138.68 L 58.12 138.68 Q 56.52 137.36 56.52 134.8 L 56.52 134.8 L 56.52 134.8 Q 56.52 131.68 58.88 129.12 L 58.88 129.12 L 58.88 129.12 Q 61.24 126.56 64.36 124.8 L 64.36 124.8 L 64.36 124.8 Q 67.48 123.04 72.44 120.72 L 72.44 120.72 L 72.44 120.72 Q 73.8 117.28 76.28 108.24 L 76.28 108.24 L 76.28 108.24 Q 73.4 112.32 70.64 114.64 L 70.64 114.64 L 70.64 114.64 Q 67.88 116.96 64.76 116.96 L 64.76 116.96 L 64.76 116.96 Q 62.12 116.96 60.04 115.36 L 60.04 115.36 L 60.04 115.36 Q 57.96 113.76 57.96 110.32 L 57.96 110.32 L 57.96 110.32 Q 57.96 107.6 59.24 103.4 L 59.24 103.4 L 59.24 103.4 Q 60.52 99.2 62.28 96.04 L 62.28 96.04 L 62.28 96.04 Q 64.04 92.88 65.32 92.88 L 65.32 92.88 L 65.32 92.88 Q 66.12 92.88 67.72 93.72 L 67.72 93.72 L 67.72 93.72 Q 69.32 94.56 69.64 95.52 L 69.64 95.52 L 69.64 95.52 Q 68.12 97.6 66.32 102.48 L 66.32 102.48 L 66.32 102.48 Q 64.52 107.36 64.52 110.16 L 64.52 110.16 L 64.52 110.16 Q 64.52 113.12 66.84 113.12 L 66.84 113.12 L 66.84 113.12 Q 69.24 113.12 72.04 110.32 L 72.04 110.32 L 72.04 110.32 Q 74.84 107.52 77.4 103.44 L 77.4 103.44 L 77.4 103.44 Q 77.56 102.88 77.88 100.8 L 77.88 100.8 L 77.88 100.8 Q 78.2 98.72 79.32 97.16 L 79.32 97.16 L 79.32 97.16 Q 80.44 95.6 82.52 95.6 L 82.52 95.6 L 82.52 95.6 Q 82.84 95.6 85.08 95.92 L 85.08 95.92 L 85.08 95.92 Q 85 97.92 83.2 104.64 L 83.2 104.64 L 83.2 104.64 Q 81.4 111.36 79 117.76 L 79 117.76 L 79 117.76 Q 82.92 116.16 86.4 112.88 L 86.4 112.88 L 86.4 112.88 Q 89.88 109.6 91.88 104.24 L 91.88 104.24 L 93.24 105.36 L 93.24 105.36 Q 91.56 110.88 87.44 114.64 L 87.44 114.64 L 87.44 114.64 Q 83.32 118.4 77.96 120.8 L 77.96 120.8 L 77.96 120.8 Q 74.2 129.68 70.32 134.84 L 70.32 134.84 L 70.32 134.84 Q 66.44 140 61.96 140 L 61.96 140 Z  M 61.16 137.04 L 61.16 137.04 Q 62.84 137.04 65.56 133.64 L 65.56 133.64 L 65.56 133.64 Q 68.28 130.24 70.92 124.24 L 70.92 124.24 L 70.92 124.24 Q 66.28 126.56 62.96 129.36 L 62.96 129.36 L 62.96 129.36 Q 59.64 132.16 59.64 134.8 L 59.64 134.8 L 59.64 134.8 Q 59.64 135.68 60 136.36 L 60 136.36 L 60 136.36 Q 60.36 137.04 61.16 137.04 L 61.16 137.04 Z  M 97 120 L 97 120 Q 93.48 120 91.88 117.68 L 91.88 117.68 L 91.88 117.68 Q 90.28 115.36 90.28 111.52 L 90.28 111.52 L 90.28 111.52 Q 90.28 104.16 95.28 91.84 L 95.28 91.84 L 95.28 91.84 Q 100.28 79.52 106.52 69.76 L 106.52 69.76 L 106.52 69.76 Q 112.76 60 115.72 60 L 115.72 60 L 115.72 60 Q 117.08 60 118.04 62.12 L 118.04 62.12 L 118.04 62.12 Q 119 64.24 119.08 66.4 L 119.08 66.4 L 119.08 66.4 Q 119.08 70.08 116.12 77.16 L 116.12 77.16 L 116.12 77.16 Q 113.16 84.24 108.16 91.52 L 108.16 91.52 L 108.16 91.52 Q 103.16 98.8 97.48 103.28 L 97.48 103.28 L 97.48 103.28 Q 96.6 108.24 96.6 110.8 L 96.6 110.8 L 96.6 110.8 Q 96.6 113.6 97.52 114.96 L 97.52 114.96 L 97.52 114.96 Q 98.44 116.32 100.04 116.32 L 100.04 116.32 L 100.04 116.32 Q 102.84 116.32 106 112.6 L 106 112.6 L 106 112.6 Q 109.16 108.88 111.64 103.6 L 111.64 103.6 L 113.56 104.64 L 113.56 104.64 Q 110.04 111.92 105.8 115.96 L 105.8 115.96 L 105.8 115.96 Q 101.56 120 97 120 L 97 120 Z  M 98.92 98.32 L 98.92 98.32 Q 103.24 93.68 107.04 87.44 L 107.04 87.44 L 107.04 87.44 Q 110.84 81.2 113.12 75.6 L 113.12 75.6 L 113.12 75.6 Q 115.4 70 115.4 67.28 L 115.4 67.28 L 115.4 67.28 Q 114.36 67.28 111.2 72.16 L 111.2 72.16 L 111.2 72.16 Q 108.04 77.04 104.56 84.28 L 104.56 84.28 L 104.56 84.28 Q 101.08 91.52 98.92 98.32 L 98.92 98.32 Z  M 125.56 83.92 L 125.56 83.92 Q 123.88 83.92 122.72 83.12 L 122.72 83.12 L 122.72 83.12 Q 121.56 82.32 121.56 80.8 L 121.56 80.8 L 121.56 80.8 Q 121.56 78.96 123.6 77.56 L 123.6 77.56 L 123.6 77.56 Q 125.64 76.16 127.96 76.16 L 127.96 76.16 L 127.96 76.16 Q 131.4 76.16 131.4 79.12 L 131.4 79.12 L 131.4 79.12 Q 131.4 80.8 129.56 82.36 L 129.56 82.36 L 129.56 82.36 Q 127.72 83.92 125.56 83.92 L 125.56 83.92 Z  M 116.12 120 L 116.12 120 Q 112.76 120 110.92 118 L 110.92 118 L 110.92 118 Q 109.08 116 109.08 112.88 L 109.08 112.88 L 109.08 112.88 Q 109.08 109.68 110.88 104.2 L 110.88 104.2 L 110.88 104.2 Q 112.68 98.72 115.44 94.56 L 115.44 94.56 L 115.44 94.56 Q 118.2 90.4 121 90.4 L 121 90.4 L 121 90.4 Q 122.04 90.4 122.72 91 L 122.72 91 L 122.72 91 Q 123.4 91.6 123.4 92.72 L 123.4 92.72 L 123.4 92.72 Q 123.4 93.44 122.76 94.68 L 122.76 94.68 L 122.76 94.68 Q 122.12 95.92 120.68 98.24 L 120.68 98.24 L 120.68 98.24 Q 118.12 102.48 116.64 105.72 L 116.64 105.72 L 116.64 105.72 Q 115.16 108.96 115.16 111.84 L 115.16 111.84 L 115.16 111.84 Q 115.16 114.32 116.04 115.2 L 116.04 115.2 L 116.04 115.2 Q 116.92 116.08 118.76 116.08 L 118.76 116.08 L 118.76 116.08 Q 125.08 116.08 131.32 103.84 L 131.32 103.84 L 132.52 105.12 L 132.52 105.12 Q 129.72 112.16 125.4 116.08 L 125.4 116.08 L 125.4 116.08 Q 121.08 120 116.12 120 L 116.12 120 Z  M 156.2 119.2 L 156.2 119.2 Q 153.16 119.2 151.48 117.68 L 151.48 117.68 L 151.48 117.68 Q 149.8 116.16 149.8 113.68 L 149.8 113.68 L 149.8 113.68 Q 149.8 112.64 150.16 111.28 L 150.16 111.28 L 150.16 111.28 Q 150.52 109.92 150.92 108.56 L 150.92 108.56 L 150.92 108.56 Q 152.04 104.88 152.04 103.12 L 152.04 103.12 L 152.04 103.12 Q 152.04 101.52 151.24 100.76 L 151.24 100.76 L 151.24 100.76 Q 150.44 100 149.24 100 L 149.24 100 L 149.24 100 Q 145 100 140.68 105.32 L 140.68 105.32 L 140.68 105.32 Q 136.36 110.64 131.4 118.8 L 131.4 118.8 L 131.4 118.8 Q 127.96 118.8 126.2 116.48 L 126.2 116.48 L 126.92 114.48 L 126.92 114.48 Q 131.64 103.04 131.64 97.52 L 131.64 97.52 L 131.64 97.52 Q 132.28 96.8 133.48 96.2 L 133.48 96.2 L 133.48 96.2 Q 134.68 95.6 135.8 95.6 L 135.8 95.6 L 135.8 95.6 Q 137.16 95.6 137.88 96.24 L 137.88 96.24 L 137.88 96.24 Q 138.6 96.88 138.6 98 L 138.6 98 L 138.6 98 Q 138.6 100.16 137.24 105.12 L 137.24 105.12 L 137.24 105.12 Q 140.84 100.32 144.72 97.28 L 144.72 97.28 L 144.72 97.28 Q 148.6 94.24 152.36 94.24 L 152.36 94.24 L 152.36 94.24 Q 155.56 94.24 157.32 96.44 L 157.32 96.44 L 157.32 96.44 Q 159.08 98.64 159.08 101.68 L 159.08 101.68 L 159.08 101.68 Q 159.08 103.44 158.64 105.04 L 158.64 105.04 L 158.64 105.04 Q 158.2 106.64 157.32 108.64 L 157.32 108.64 L 157.32 108.64 Q 155.96 112 155.96 113.68 L 155.96 113.68 L 155.96 113.68 Q 155.96 114.88 156.52 115.44 L 156.52 115.44 L 156.52 115.44 Q 157.08 116 157.88 116 L 157.88 116 L 157.88 116 Q 160.52 116 163.6 112.36 L 163.6 112.36 L 163.6 112.36 Q 166.68 108.72 169.16 103.76 L 169.16 103.76 L 170.52 104.88 L 170.52 104.88 Q 167.64 111.52 164.16 115.36 L 164.16 115.36 L 164.16 115.36 Q 160.68 119.2 156.2 119.2 L 156.2 119.2 Z  M 174.36 121.28 L 174.36 121.28 Q 170.68 121.28 168.6 119.16 L 168.6 119.16 L 168.6 119.16 Q 166.52 117.04 166.52 112.88 L 166.52 112.88 L 166.52 112.88 Q 166.52 109.76 167.72 104.92 L 167.72 104.92 L 167.72 104.92 Q 168.92 100.08 170.92 94.64 L 170.92 94.64 L 170.92 94.64 Q 168.84 94.24 168.12 93.92 L 168.12 93.92 L 168.12 91.44 L 168.12 91.44 Q 170.04 91.68 171.96 91.84 L 171.96 91.84 L 171.96 91.84 Q 175.56 82.8 179.68 76.32 L 179.68 76.32 L 179.68 76.32 Q 183.8 69.84 186.36 69.84 L 186.36 69.84 L 186.36 69.84 Q 187.24 69.84 187.92 70.48 L 187.92 70.48 L 187.92 70.48 Q 188.6 71.12 188.6 72.16 L 188.6 72.16 L 188.6 72.16 Q 188.6 73.44 187.48 75.6 L 187.48 75.6 L 187.48 75.6 Q 186.36 77.76 183.8 82.16 L 183.8 82.16 L 183.8 82.16 Q 180.28 88.08 178.28 92.08 L 178.28 92.08 L 178.28 92.08 Q 187.48 92.08 192.92 91.52 L 192.92 91.52 L 192.92 94.16 L 192.92 94.16 Q 183.48 95.12 176.84 95.12 L 176.84 95.12 L 176.84 95.12 Q 172.68 104.96 172.68 111.2 L 172.68 111.2 L 172.68 111.2 Q 172.68 114.48 173.72 115.84 L 173.72 115.84 L 173.72 115.84 Q 174.76 117.2 177 117.2 L 177 117.2 L 177 117.2 Q 181 117.2 185.2 113.56 L 185.2 113.56 L 185.2 113.56 Q 189.4 109.92 192.52 103.68 L 192.52 103.68 L 193.64 104.48 L 193.64 104.48 Q 190.36 111.92 185.16 116.6 L 185.16 116.6 L 185.16 116.6 Q 179.96 121.28 174.36 121.28 L 174.36 121.28 Z " fill-rule="evenodd" fill="rgb(0,0,0)"/></g></svg>