<?xml version="1.0" standalone="no"?><!-- Generator: Gravit.io --><svg xmlns="http://www.w3.org/2000/svg" xmlns:xlink="http://www.w3.org/1999/xlink" style="isolation:isolate" viewBox="0 0 200 200" width="200" height="200"><defs><clipPath id="_clipPath_KzuPYJKLwYe0NCdKSpzOFbWcmKpT3eMM"><rect width="200" height="200"/></clipPath></defs><g clip-path="url(#_clipPath_KzuPYJKLwYe0NCdKSpzOFbWcmKpT3eMM)"><rect x="0" y="0" width="200" height="200" transform="matrix(1,0,0,1,0,0)" fill="rgb(255,255,255)"/><path d=" M 0 100 L 0 200 L 100 200 L 200 200 L 200 100 L 200 0 L 100 0 L 0 0 L 0 100 Z  M 161.175 92.032 C 166.254 93.302 170.127 95.556 173.683 99.238 C 175.524 101.206 178.254 104.794 178.476 105.651 C 178.54 105.905 169.841 111.746 164.571 115.016 C 164.381 115.143 163.619 114.317 162.762 113.048 C 160.19 109.302 157.492 107.683 153.365 107.397 C 147.302 106.984 143.397 110.159 143.429 115.46 C 143.429 117.016 143.651 117.937 144.286 119.206 C 145.619 121.968 148.095 123.619 155.873 126.984 C 170.19 133.143 176.317 137.206 180.127 142.984 C 184.381 149.429 185.333 159.714 182.444 167.365 C 179.27 175.683 171.397 181.333 160.317 183.206 C 156.889 183.81 148.762 183.714 145.079 183.048 C 137.048 181.619 129.429 177.651 124.73 172.444 C 122.889 170.413 119.302 165.111 119.524 164.73 C 119.619 164.603 120.444 164.095 121.365 163.556 C 122.254 163.048 125.619 161.111 128.794 159.27 L 134.54 155.937 L 135.746 157.714 C 137.429 160.286 141.111 163.81 143.333 164.984 C 149.714 168.349 158.476 167.873 162.794 164 C 164.635 162.317 165.397 160.571 165.397 158 C 165.397 155.683 165.111 154.667 163.905 152.921 C 162.349 150.698 159.175 148.825 150.159 144.921 C 139.841 140.476 135.397 137.714 131.333 133.333 C 128.984 130.794 126.762 126.73 125.841 123.333 C 125.079 120.508 124.889 113.429 125.492 110.571 C 127.619 100.603 135.143 93.651 146 91.587 C 149.524 90.921 157.714 91.175 161.175 92.032 Z  M 114.222 100.381 L 114.286 108.571 L 101.27 108.571 L 88.254 108.571 L 88.254 145.556 L 88.254 182.54 L 79.048 182.54 L 69.841 182.54 L 69.841 145.556 L 69.841 108.571 L 56.825 108.571 L 43.81 108.571 L 43.81 100.54 C 43.81 96.095 43.905 92.381 44.032 92.286 C 44.127 92.159 59.968 92.095 79.175 92.127 L 114.127 92.222 L 114.222 100.381 Z " fill="rgb(0,122,204)"/></g></svg>