<?xml version="1.0" standalone="no"?><!-- Generator: Gravit.io --><svg xmlns="http://www.w3.org/2000/svg" xmlns:xlink="http://www.w3.org/1999/xlink" style="isolation:isolate" viewBox="0 0 200 200" width="200" height="200"><defs><clipPath id="_clipPath_szxnbIyEL729JCyXk3bQSspl6xdumL8W"><rect width="200" height="200"/></clipPath></defs><g clip-path="url(#_clipPath_szxnbIyEL729JCyXk3bQSspl6xdumL8W)"><g id="Group"><path d=" M 168.58 151.6 C 168.171 152.418 167.763 154.052 166.946 154.052 C 164.902 154.461 162.451 155.278 161.225 154.461 C 159.999 153.644 159.182 150.375 159.999 149.149 C 161.633 145.471 163.676 142.202 160.816 138.116 C 160.407 137.299 160.816 135.255 161.633 134.438 C 164.494 131.986 164.085 128.717 164.085 125.857 C 164.085 114.824 164.494 103.791 164.085 92.758 C 164.085 89.898 162.042 86.629 160.816 83.768 C 160.407 82.951 158.364 82.951 157.138 82.543 C 156.73 83.768 156.321 84.994 156.321 86.22 L 156.321 143.019 C 156.321 151.6 154.687 154.461 146.106 156.095 C 143.245 156.913 142.428 157.73 142.428 160.59 L 142.428 177.344 C 142.428 179.796 142.837 181.022 145.697 181.022 C 154.687 182.247 159.59 189.194 156.73 198.184 C 156.321 199.001 155.504 200.227 154.687 199.818 C 144.062 199.41 133.438 199.41 122.814 198.593 C 119.545 198.593 118.319 196.141 118.728 192.872 C 119.545 182.247 119.953 171.623 120.771 160.999 C 121.179 157.321 119.545 156.095 116.276 156.095 L 85.22 156.095 C 81.543 156.095 80.317 157.321 80.317 160.59 C 80.725 166.72 80.317 173.258 80.317 179.387 C 80.725 183.882 81.543 188.377 81.951 192.872 C 82.36 195.732 81.134 197.775 78.274 198.184 C 74.187 198.593 69.692 199.41 65.606 199.818 C 59.477 200.227 53.756 199.818 47.627 199.818 C 44.766 199.818 43.949 199.001 43.949 196.141 C 43.54 185.516 45.992 182.656 56.208 180.613 C 57.025 180.204 58.659 178.978 58.659 177.753 C 58.659 171.623 59.068 165.085 58.659 158.956 C 58.659 157.73 57.025 156.504 55.799 156.095 C 46.401 153.235 44.766 151.6 44.766 142.202 L 44.766 85.812 C 44.766 84.586 44.358 83.768 44.358 82.543 C 40.68 82.134 38.637 84.177 37.411 86.629 C 36.594 88.672 36.185 90.715 36.185 92.758 L 36.185 127.491 C 36.185 129.535 37.411 131.169 38.228 133.212 C 38.637 135.255 39.454 137.707 38.637 138.933 C 37.411 141.385 37.411 143.019 38.637 145.471 C 40.271 148.331 42.314 151.192 39.045 154.052 C 35.776 156.504 32.916 154.461 30.056 150.783 C 29.238 152.826 28.83 154.052 28.421 155.687 C 27.604 159.773 24.743 161.816 21.066 161.407 C 17.388 160.999 15.754 158.547 16.162 154.461 C 16.162 152.009 17.797 149.149 16.98 146.697 C 14.119 139.75 16.98 132.804 17.388 125.857 C 17.797 114.007 17.388 102.157 17.388 90.715 C 17.388 73.961 24.743 62.928 40.271 58.434 C 41.089 58.025 42.723 57.208 42.723 56.799 C 44.358 49.444 50.487 48.627 56.616 48.627 L 142.428 48.627 C 148.557 48.627 154.687 49.035 156.73 56.799 C 156.73 57.616 158.773 58.434 159.59 58.842 C 174.709 63.746 182.065 73.553 182.065 89.489 L 182.065 128.309 C 182.065 129.943 183.291 131.986 183.699 133.621 C 184.108 135.664 184.516 137.707 184.108 139.75 C 184.108 143.019 183.291 146.288 183.291 149.149 C 183.291 150.783 183.699 152.826 183.699 154.869 C 184.108 158.547 182.473 160.999 178.796 161.407 C 174.709 161.816 172.666 159.773 171.44 156.095 C 171.032 154.869 170.623 153.235 170.215 152.009 C 169.806 152.009 169.397 152.009 168.58 151.6 L 168.58 151.6 Z  M 54.573 73.553 L 136.707 73.553 C 145.288 73.553 145.288 73.553 145.288 64.563 C 145.288 54.756 142.837 52.304 133.03 52.304 L 65.606 52.304 C 63.563 52.304 61.111 52.304 59.477 53.121 C 57.434 54.347 54.982 56.799 54.573 58.842 C 54.165 63.337 54.573 68.241 54.573 73.553 Z  M 93.801 150.783 L 139.159 150.783 C 143.245 150.783 145.288 147.514 145.697 143.428 L 145.697 132.804 C 145.697 130.352 144.471 129.126 142.019 129.126 L 59.477 129.126 C 55.799 129.126 54.165 129.943 54.573 134.03 C 54.982 137.299 54.573 140.976 54.573 144.245 C 54.982 149.149 58.659 151.6 63.563 150.375 C 57.434 143.428 56.616 138.116 61.52 133.621 C 65.198 129.943 71.736 129.943 75.005 133.621 C 76.639 135.255 77.865 138.116 77.865 140.159 C 77.456 143.837 75.413 147.106 73.779 150.375 L 85.629 150.375 C 79.499 143.837 78.682 138.116 82.768 133.621 C 86.855 129.535 92.984 129.943 97.07 134.03 C 101.157 138.524 100.339 144.245 93.801 150.783 Z  M 157.138 60.885 C 157.138 64.972 156.73 68.649 156.73 72.736 C 156.73 73.553 157.547 74.779 158.364 75.187 C 165.72 78.048 168.171 83.768 168.171 91.124 L 168.171 125.04 C 168.171 126.266 169.397 128.717 170.215 129.126 C 173.075 129.535 175.935 129.126 178.796 129.126 C 178.796 113.19 179.204 98.07 178.796 82.951 C 178.796 71.918 168.58 62.52 157.138 60.885 Z  M 42.723 61.294 C 31.69 61.703 21.066 72.327 20.657 83.36 C 20.249 98.479 20.657 113.598 20.657 128.309 C 20.657 128.717 21.066 128.717 21.474 129.535 L 25.969 129.535 C 31.69 129.535 31.69 129.535 31.69 123.814 L 31.69 89.898 C 31.69 83.36 34.551 78.456 40.68 75.596 C 41.089 75.187 42.723 73.961 42.723 73.144 L 42.723 61.294 Z  M 97.479 107.06 C 108.512 98.888 113.007 98.479 121.588 105.017 C 126.9 109.103 126.9 109.103 131.395 104.2 C 135.073 100.522 138.75 98.479 144.062 100.931 L 146.106 100.931 L 146.106 91.532 C 146.106 89.489 145.288 88.672 143.245 88.672 L 100.748 88.672 C 99.931 88.672 97.888 89.489 97.888 89.898 C 97.479 95.21 97.479 100.931 97.479 107.06 Z  M 99.114 114.007 C 99.522 114.415 99.931 114.415 99.931 114.415 L 142.837 114.415 C 143.654 114.415 144.88 113.598 145.288 112.781 C 146.514 109.103 145.288 105.017 142.428 103.383 C 138.75 100.931 135.89 102.974 133.438 105.834 C 127.717 111.964 126.083 111.964 119.545 107.06 C 119.136 106.652 118.319 106.243 117.91 105.834 C 109.738 100.522 101.565 103.791 99.114 114.007 Z  M 70.101 148.331 C 75.005 147.106 77.048 144.245 76.639 139.75 C 76.23 135.664 72.144 131.986 68.058 131.986 C 63.972 131.986 59.885 136.073 59.477 140.159 C 59.477 143.837 61.928 147.106 66.015 147.923 C 66.423 145.062 66.832 141.793 67.241 138.933 L 68.875 138.933 C 69.284 140.159 69.692 141.793 69.692 143.019 C 70.101 144.654 70.101 146.288 70.101 148.331 Z  M 94.21 134.03 C 89.715 131.578 85.629 132.395 83.177 136.481 C 80.725 140.159 81.134 144.245 84.812 147.106 C 88.081 149.966 92.575 149.966 95.844 147.106 C 99.114 144.245 99.522 140.568 97.07 136.481 C 95.844 137.707 94.619 138.933 92.984 140.159 C 91.758 140.976 90.532 141.385 89.306 141.793 C 89.715 140.568 90.124 138.933 90.941 138.116 C 91.35 136.481 92.575 135.664 94.21 134.03 Z  M 73.779 183.065 C 66.423 183.065 59.477 182.656 52.53 183.065 C 49.261 183.065 46.401 185.108 45.583 189.603 C 52.53 189.603 59.068 189.194 65.606 189.603 C 70.51 190.011 72.961 188.377 73.779 183.065 Z  M 153.461 189.603 C 153.869 189.194 154.278 188.377 154.278 187.968 C 151.826 186.334 149.783 183.473 147.331 183.473 C 139.976 183.065 133.03 183.065 125.674 183.065 C 125.266 183.473 125.266 183.882 124.857 183.882 C 126.491 185.925 128.126 189.194 129.76 189.194 C 137.524 190.011 145.697 189.603 153.461 189.603 Z  M 58.251 168.763 L 58.251 178.57 C 58.251 179.387 59.068 180.204 59.885 181.022 C 60.703 180.204 61.928 179.796 61.928 178.978 L 61.928 159.364 C 61.928 158.547 60.703 157.73 59.885 156.913 C 59.477 157.73 58.251 158.547 58.251 159.364 C 57.842 162.225 58.251 165.494 58.251 168.763 Z  M 141.202 168.763 L 141.202 158.956 C 141.202 158.138 139.976 157.321 139.568 156.504 C 138.75 157.321 137.933 157.73 137.933 158.547 L 137.933 178.57 C 137.933 179.387 139.159 179.796 139.976 180.613 C 140.385 179.796 141.611 179.387 141.611 178.57 C 141.611 175.301 141.202 172.032 141.202 168.763 Z  M 23.518 159.364 C 22.292 156.913 22.292 156.095 22.7 148.331 C 22.7 147.514 21.883 145.471 21.066 145.471 C 19.84 145.471 17.797 146.288 17.797 147.106 C 16.98 149.966 16.571 152.826 16.571 155.687 C 16.98 158.956 19.431 160.59 23.518 159.364 Z  M 177.161 159.773 C 180.022 160.59 182.473 158.956 182.473 155.278 C 182.473 152.826 182.065 150.375 181.656 147.923 C 181.247 146.697 179.613 145.062 178.387 145.062 C 175.935 144.654 176.344 146.697 176.344 148.74 C 177.161 152.418 177.161 155.687 177.161 159.773 Z  M 35.368 152.826 C 34.142 150.375 33.325 148.74 32.099 147.514 C 30.873 146.288 28.83 145.471 26.787 145.471 C 25.969 145.471 24.743 147.514 24.335 149.149 C 23.926 150.375 23.518 152.009 23.518 153.644 C 23.518 154.869 24.335 155.687 24.743 156.913 C 25.561 156.095 26.378 155.687 26.787 154.461 C 28.421 149.966 28.83 149.966 32.916 152.418 C 33.325 152.418 33.733 152.418 35.368 152.826 Z  M 164.494 151.6 C 164.902 152.009 165.311 152.009 165.72 152.418 C 171.032 149.557 171.032 149.966 173.075 154.869 C 173.484 155.687 174.301 156.095 175.118 156.504 C 175.527 155.687 176.344 154.869 176.344 154.052 C 176.344 152.009 175.527 149.966 175.118 148.331 C 174.301 145.471 171.44 143.837 168.989 145.88 C 166.946 147.106 165.72 149.557 164.494 151.6 Z  M 77.865 169.171 L 77.865 159.364 C 77.865 158.547 76.639 157.73 76.23 156.913 C 75.822 157.73 75.005 158.547 75.005 158.956 L 75.005 178.978 C 75.005 179.796 75.822 180.204 76.639 181.022 C 77.048 180.204 78.274 179.796 78.274 178.978 C 77.865 175.709 77.865 172.44 77.865 169.171 Z  M 121.588 168.763 L 121.588 177.753 C 121.588 178.978 122.405 180.204 123.222 181.022 C 123.631 179.796 124.857 178.57 124.857 177.344 C 124.857 175.301 124.448 173.258 124.448 171.623 C 124.448 167.537 124.857 163.451 124.857 159.364 C 124.857 158.547 124.04 157.73 123.631 157.321 C 123.222 158.138 121.997 158.956 121.997 159.773 C 121.588 162.225 121.997 165.494 121.588 168.763 Z  M 154.278 192.054 C 150.192 189.603 131.395 189.603 128.535 192.054 L 154.278 192.054 Z  M 70.918 191.646 L 70.918 190.42 L 45.583 190.42 L 45.583 191.646 L 70.918 191.646 Z  M 72.553 190.829 C 72.961 191.237 73.37 191.237 73.779 191.646 C 75.413 191.237 77.048 190.829 78.274 190.42 C 79.091 190.011 80.317 188.377 79.908 187.56 C 79.908 186.334 78.682 185.108 77.865 183.882 C 76.639 184.699 75.413 185.108 74.596 185.925 C 73.779 187.56 73.37 189.194 72.553 190.829 Z  M 126.9 191.646 C 126.491 187.968 125.674 185.108 122.405 183.882 C 121.997 183.882 119.545 186.334 119.953 187.56 C 119.953 191.237 123.631 190.42 126.9 191.646 Z  M 166.537 145.88 C 163.268 145.062 162.042 145.88 161.225 149.557 C 160.816 150.783 162.042 152.418 162.451 154.052 C 162.859 154.052 163.268 153.644 163.268 153.644 C 164.494 151.192 165.311 148.74 166.537 145.88 Z  M 36.594 153.644 C 39.454 152.826 39.454 150.783 38.228 148.331 C 37.002 146.697 37.002 143.019 32.916 145.471 C 34.142 148.331 34.959 150.783 36.594 153.644 Z  M 99.931 0 L 130.986 0 C 137.116 0 139.976 2.86 139.976 8.99 L 139.976 35.142 C 139.976 41.271 136.707 44.132 130.578 44.132 L 69.284 44.132 C 63.154 44.132 59.885 41.271 59.885 35.142 L 59.885 8.99 C 59.885 2.86 62.746 0 68.875 0 L 99.931 0 Z  M 99.931 1.226 L 69.692 1.226 C 63.972 1.226 61.111 3.269 61.111 8.99 C 60.703 17.571 60.703 26.561 61.111 35.142 C 61.111 40.454 63.972 42.906 69.284 42.906 L 130.169 42.906 C 135.481 42.906 137.933 40.454 138.342 35.551 C 138.75 26.561 138.75 17.571 138.342 8.581 C 137.933 3.269 135.481 1.226 130.169 1.226 L 99.931 1.226 Z  M 144.062 35.959 L 144.062 15.936 C 149.783 16.754 153.461 20.431 153.461 25.743 C 153.869 31.464 150.192 35.142 144.062 35.959 Z  M 55.39 35.959 C 49.261 35.142 45.992 31.464 45.992 26.152 C 45.992 20.84 49.261 17.162 55.39 15.936 L 55.39 35.959 Z " fill="rgb(234,89,6)"/><path d=" M 124.448 142.611 L 113.824 142.611 C 113.007 142.611 112.19 141.793 111.372 140.976 C 112.19 140.159 113.007 138.933 113.824 138.933 L 135.481 138.933 C 136.299 138.933 137.116 140.159 137.933 140.976 C 137.116 141.385 136.299 142.611 135.481 142.611 L 124.448 142.611 Z  M 138.342 134.03 C 135.481 137.299 114.233 137.299 110.964 134.03 L 138.342 134.03 Z  M 111.372 146.288 C 114.641 143.837 118.319 145.062 121.588 145.471 C 121.588 145.471 121.997 147.923 121.588 148.331 C 119.953 149.557 113.007 148.331 111.372 146.288 Z  M 116.684 35.959 C 110.555 35.959 105.652 31.464 105.243 25.335 C 105.243 19.614 110.555 13.893 116.276 13.893 C 121.997 13.893 127.717 19.205 127.717 25.335 C 127.717 31.056 122.814 35.959 116.684 35.959 Z  M 126.083 25.335 C 126.083 20.023 122.405 15.528 117.093 15.528 C 111.781 15.528 107.695 19.614 107.286 24.926 C 107.286 30.238 111.372 34.325 116.684 34.733 C 121.588 34.733 126.083 30.647 126.083 25.335 Z  M 83.177 35.959 C 77.048 35.959 71.736 31.056 71.736 24.926 C 71.736 19.205 77.048 13.893 82.768 13.893 C 88.489 13.893 94.21 19.205 94.21 25.335 C 94.21 31.056 89.306 35.959 83.177 35.959 Z  M 73.779 25.335 C 73.779 30.647 77.865 34.733 83.177 34.733 C 88.489 34.733 92.575 30.647 92.575 25.335 C 92.575 20.023 88.489 15.936 83.177 15.936 C 77.456 15.528 73.779 19.614 73.779 25.335 Z " fill="rgb(234,89,6)"/><path d=" M 109.329 24.926 C 109.329 20.431 112.19 17.98 116.684 17.98 C 120.771 17.98 123.631 20.84 123.222 25.335 C 123.222 29.421 119.953 32.281 115.867 32.281 C 112.19 32.281 109.329 29.012 109.329 24.926 Z  M 90.124 25.335 C 90.124 29.421 87.263 32.281 83.177 32.281 C 78.682 32.281 75.822 29.421 75.822 24.926 C 75.822 20.84 78.682 17.98 82.768 17.98 C 87.263 17.98 90.124 20.84 90.124 25.335 Z " fill="rgb(234,89,6)"/></g></g></svg>