<?xml version="1.0" standalone="no"?><!-- Generator: Gravit.io --><svg xmlns="http://www.w3.org/2000/svg" xmlns:xlink="http://www.w3.org/1999/xlink" style="isolation:isolate" viewBox="0 0 200 200" width="200" height="200"><defs><clipPath id="_clipPath_rZVuLFfBQeJ6bkPDijuKi1oBaVm96LYe"><rect width="200" height="200"/></clipPath></defs><g clip-path="url(#_clipPath_rZVuLFfBQeJ6bkPDijuKi1oBaVm96LYe)"><path d=" M 100 0 C 155.212 0 200 44.788 200 100 C 200 155.212 155.212 200 100 200 C 44.788 200 0 155.212 0 100 C 0 44.788 44.788 0 100 0 Z " fill="rgb(44,142,187)"/><path d=" M 168.031 130.309 C 167.336 124.826 162.703 121.042 156.757 121.12 C 147.876 121.236 140.425 125.83 135.483 128.88 C 133.552 130.077 131.892 130.965 130.463 131.622 C 130.772 127.143 130.502 121.274 128.185 114.826 C 125.367 107.104 121.583 102.355 118.88 99.614 C 122.008 95.058 126.293 88.417 128.301 78.147 C 130.039 69.382 129.498 55.753 125.521 48.108 C 124.71 46.564 123.359 45.444 121.66 44.981 C 120.965 44.788 119.653 44.402 117.066 45.135 C 113.166 37.066 111.815 36.216 110.772 35.521 C 108.61 34.131 106.062 33.822 103.668 34.71 C 100.463 35.869 97.722 38.958 95.135 44.44 C 94.749 45.251 94.402 46.023 94.093 46.795 C 89.189 47.143 81.467 48.919 74.942 55.985 C 74.131 56.873 72.548 57.529 70.888 58.147 L 70.927 58.147 C 67.529 59.344 65.985 62.124 64.093 67.143 C 61.467 74.17 64.17 81.081 66.834 85.56 C 63.205 88.803 58.378 93.977 55.83 100.039 C 52.664 107.529 52.317 114.865 52.432 118.842 C 49.73 121.699 45.56 127.066 45.097 133.089 C 44.479 141.506 47.529 147.22 48.88 149.305 C 49.266 149.923 49.691 150.425 50.154 150.927 C 50 151.969 49.961 153.089 50.193 154.247 C 50.695 156.95 52.394 159.151 54.981 160.541 C 60.077 163.243 67.181 164.402 72.664 161.66 C 74.633 163.745 78.224 165.753 84.749 165.753 L 85.135 165.753 C 86.795 165.753 107.876 164.633 114.015 163.127 C 116.757 162.471 118.649 161.313 119.884 160.27 C 123.822 159.035 134.71 155.328 144.981 148.687 C 152.239 143.977 154.749 142.973 160.154 141.66 C 165.405 140.386 168.687 135.598 168.031 130.309 L 168.031 130.309 Z  M 158.842 135.985 C 152.664 137.452 149.537 138.803 141.892 143.784 C 129.961 151.506 116.911 155.097 116.911 155.097 C 116.911 155.097 115.83 156.718 112.703 157.452 C 107.297 158.764 86.95 159.884 85.097 159.923 C 80.116 159.961 77.066 158.649 76.216 156.602 C 73.629 150.425 79.923 147.722 79.923 147.722 C 79.923 147.722 78.533 146.873 77.722 146.1 C 76.988 145.367 76.216 143.9 75.985 144.44 C 75.019 146.795 74.517 152.548 71.931 155.135 C 68.378 158.726 61.66 157.529 57.683 155.444 C 53.32 153.127 57.992 147.683 57.992 147.683 C 57.992 147.683 55.637 149.073 53.745 146.216 C 52.046 143.591 50.463 139.112 50.888 133.591 C 51.351 127.297 58.378 121.197 58.378 121.197 C 58.378 121.197 57.143 111.892 61.197 102.355 C 64.865 93.668 74.749 86.68 74.749 86.68 C 74.749 86.68 66.448 77.49 69.537 69.228 C 71.544 63.822 72.355 63.861 73.012 63.629 C 75.328 62.741 77.568 61.776 79.228 59.961 C 87.529 51.004 98.108 52.703 98.108 52.703 C 98.108 52.703 103.127 37.452 107.761 40.425 C 109.189 41.351 114.324 52.78 114.324 52.78 C 114.324 52.78 119.807 49.575 120.425 50.772 C 123.745 57.22 124.131 69.537 122.664 77.027 C 120.193 89.382 114.015 96.023 111.544 100.193 C 110.965 101.158 118.185 104.208 122.741 116.834 C 126.95 128.378 123.205 138.07 123.861 139.151 C 123.977 139.344 124.015 139.421 124.015 139.421 C 124.015 139.421 128.842 139.807 138.533 133.822 C 143.707 130.618 149.846 127.027 156.834 126.95 C 163.591 126.834 163.938 134.749 158.842 135.985 L 158.842 135.985 Z " fill="rgb(255,255,255)"/></g></svg>