<?xml version="1.0" standalone="no"?><!-- Generator: Gravit.io --><svg xmlns="http://www.w3.org/2000/svg" xmlns:xlink="http://www.w3.org/1999/xlink" style="isolation:isolate" viewBox="0 0 1500 500" width="1500" height="500"><rect x="0" y="0" width="1500" height="500" transform="matrix(1,0,0,1,0,0)" fill="rgb(51,153,51)"/><g id="null"><path d=" M 563.906 200.859 L 417.958 346.808 Q 386.009 378.756 355.876 376.941 Q 325.742 375.126 299.602 348.986 Q 273.462 322.846 271.646 292.712 Q 269.831 262.579 301.78 230.629 L 447.729 84.682 L 419.047 56 L 273.098 201.949 Q 230.258 244.789 232.074 290.171 Q 233.889 335.553 273.643 375.307 Q 313.398 415.062 358.598 416.696 Q 403.799 418.33 446.639 375.489 L 592.588 229.541 L 563.906 200.859 Z " fill="rgb(255,255,255)"/><path d=" M 498.104 413.47 L 644.052 267.521 Q 676.001 235.572 674.186 205.438 Q 672.37 175.305 646.231 149.165 Q 620.09 123.025 589.957 121.21 Q 559.823 119.394 527.875 151.343 L 381.926 297.292 L 353.244 268.61 L 499.193 122.662 Q 542.033 79.822 587.415 81.636 Q 632.798 83.452 672.552 123.207 Q 712.307 162.961 713.94 208.162 Q 715.574 253.362 672.733 296.203 L 526.785 442.151 L 498.104 413.47 Z " fill="rgb(255,255,255)"/><rect x="511.802" y="174.477" width="36.33" height="36.33" transform="matrix(0.707,0.707,-0.707,0.707,291.443,-318.32)" fill="rgb(255,255,255)"/><rect x="437.792" y="101.696" width="36.33" height="36.33" transform="matrix(0.707,0.707,-0.707,0.707,218.301,-287.304)" fill="rgb(255,255,255)"/><rect x="397.778" y="288.526" width="36.33" height="36.33" transform="matrix(0.707,0.707,-0.707,0.707,338.69,-204.288)" fill="rgb(255,255,255)"/><rect x="470.575" y="360.095" width="36.33" height="36.33" transform="matrix(0.707,0.707,-0.707,0.707,410.619,-234.802)" fill="rgb(255,255,255)"/></g><g transform="matrix(1,0,0,1,804,54)"><text transform="matrix(1,0,0,1,0,51.305)" style="font-family:&quot;Open Sans&quot;;font-weight:400;font-size:48px;font-style:normal;fill:#FFFFFF;stroke:none;">UniteJS</text></g><g transform="matrix(1,0,0,1,804,342)"><text transform="matrix(1,0,0,1,0,25.652)" style="font-family:&quot;Open Sans&quot;;font-weight:400;font-size:24px;font-style:normal;fill:#FFFFFF;stroke:none;">@unitejs</text></g><g transform="matrix(1,0,0,1,804,387.658)"><text transform="matrix(1,0,0,1,0,25.652)" style="font-family:&quot;Open Sans&quot;;font-weight:400;font-size:24px;font-style:normal;fill:#FFFFFF;stroke:none;">http://unitejs.com</text></g><g transform="matrix(1,0,0,1,804,148)"><text transform="matrix(1,0,0,1,0,38.479)" style="font-family:&quot;Open Sans&quot;;font-weight:300;font-size:36px;font-style:normal;fill:#FFFFFF;stroke:none;">Zero configuration</text></g><g transform="matrix(1,0,0,1,806,213)"><text transform="matrix(1,0,0,1,0,38.479)" style="font-family:&quot;Open Sans&quot;;font-weight:300;font-size:36px;font-style:normal;fill:#FFFFFF;stroke:none;">web app creation.</text></g></svg>