<?xml version="1.0" encoding="UTF-8" standalone="no" ?>
<svg xmlns="http://www.w3.org/2000/svg" xmlns:xlink="http://www.w3.org/1999/xlink" version="1.1" width="285" height="633" id="gulpjs-logo">
  <g transform="matrix(1.25,0,0,-1.25,0,633.75)" id="g3012">
    <g id="g3014">
      <g clip-path="url(#clipPath3018)" id="g3016">
        <g transform="translate(176.3193,16.1807)" id="g3022">
          <path d="m 0,0 c 0,-8.417 -27.76,-15.24 -62.002,-15.24 -34.244,0 -62.003,6.823 -62.003,15.24 l -5.31,78.514 -15.01,24.939 c 0,0 30.02,-12.239 81.053,-12.239 51.033,0 81.515,12.47 81.515,12.47 L 4.85,80.822 0,0 z" id="path3024" style="fill:#e34e48;fill-opacity:1;fill-rule:nonzero;stroke:none"></path>
        </g>
        <g transform="translate(1.4824,369.9614)" id="g3026">
          <path d="m 0,0 24.907,-240.058 c 0,0 21.462,-16.957 86.113,-16.957 64.651,0 86.908,16.692 86.908,16.692 L 224.689,0.265 c 0,0 -15.368,-12.718 -113.139,-12.718 C 13.778,-12.453 0,0 0,0" id="path3028" style="fill:#e34e48;fill-opacity:1;fill-rule:nonzero;stroke:none"></path>
        </g>
        <g transform="translate(228.333,379)" id="g3030">
          <path d="m 0,0 c 0,-8.836 -50.96,-16 -113.822,-16 -62.863,0 -113.824,7.164 -113.824,16 0,8.836 50.961,16 113.824,16 C -50.96,16 0,8.836 0,0" id="path3032" style="fill:#e34e48;fill-opacity:1;fill-rule:nonzero;stroke:none"></path>
        </g>
        <g transform="translate(155.0967,371.0713)" id="g3034">
          <path d="M 0,0 C 1.917,0.26 4.872,0.613 4.885,2.935 4.887,4.3 3.739,5.09 2.423,5.498 L 1.445,3.968 C 2.252,3.775 2.716,3.53 2.716,3.27 2.711,2.41 -3.424,1.992 -8.501,1.929 c -5.077,-0.064 -11.714,0.533 -11.71,1.405 10e-4,0.186 0.245,0.36 0.672,0.508 l -0.982,1.541 c -1.039,-0.424 -1.854,-1.101 -1.859,-2.249 -0.003,-0.603 0.267,-1.494 0.76,-1.943 1.835,-1.671 6.442,-1.74 12.929,-1.713 C -2.205,-0.495 0,0 0,0" id="path3036" style="fill:#ffffff;fill-opacity:1;fill-rule:nonzero;stroke:none"></path>
        </g>
        <g transform="translate(227.4678,493.0547)" id="g3038">
          <path d="m 0,0 c -1.419,-1.639 -5.871,-0.105 -9.942,3.422 -4.073,3.526 -6.225,7.714 -4.807,9.351 1.42,1.638 5.871,0.106 9.944,-3.42 C -0.734,5.825 1.417,1.637 0,0" id="path3040" style="fill:#e34e48;fill-opacity:1;fill-rule:nonzero;stroke:none"></path>
        </g>
        <g transform="translate(212.7188,505.8276)" id="g3042">
          <path d="m 0,0 -59.688,-63.194 -11.873,-48.289 19.826,-0.876 10.216,40.379 56.378,59.324 L 0,0 z" id="path3044" style="fill:#e34e48;fill-opacity:1;fill-rule:nonzero;stroke:none"></path>
        </g>
        <g transform="translate(18.2344,207.7656)" id="g3046">
          <path d="m 0,0 c 15.585,-7.719 27.766,7.734 34.374,13.83 0.413,-4.142 -11.018,-27.779 -4,-30 7.017,-2.221 9.96,17.093 15.558,35.404 4.984,16.306 12.459,34.75 5.584,36.625 -6.875,1.875 -8.999,-15.997 -12.142,-22.029 -4.463,-8.563 -30.842,-37.405 -34,-16 -2.478,16.789 16.279,50.464 25,59 4.373,4.281 11.14,8.232 16,7 6.735,-1.706 7.313,-13.324 13,-13 13.438,0.767 -2.249,23.394 -14,24 C 19.378,96.17 2.944,55.981 -3.88,36.499 -4.358,30.494 0,0 0,0" id="path3048" style="fill:#ffffff;fill-opacity:1;fill-rule:evenodd;stroke:none"></path>
        </g>
        <g transform="translate(209.667,220)" id="g3050">
          <path d="m 0,0 c -7.949,-7.945 -34.382,-22.54 -36.06,-6.404 -1.336,12.855 28.12,31.474 20.56,32.07 -16.273,-0.93 -24.372,-19.071 -32.56,-38.07 -3,-6.963 -13.267,-36.655 -20,-33 -6.732,3.654 8.727,28.07 13.06,42.57 -5,-3.666 -23.335,-17.911 -28.06,-4.57 -7.597,-6.452 -23.83,-9.948 -21.999,7 -4.041,-7.159 -13.112,-17.153 -24,-13 -14.298,5.453 8.285,50.999 13.901,48.701 5.616,-2.297 -1.134,-12.672 -2.901,-16.701 -3.888,-8.867 -8.379,-20.014 -5.379,-22.296 5.14,-3.909 19.127,14.789 19.438,15.2 2.616,3.456 10.069,26.067 16.076,23.471 6.007,-2.596 -14.983,-32.45 -7.135,-38.375 1.583,-1.196 8.059,0.737 11.999,5 2.549,2.757 1.672,8.864 10.169,29.127 8.497,20.262 16.07,45.496 21.897,43.574 5.827,-1.922 1.024,-14.873 -1.066,-19.701 -9.81,-22.66 -26.774,-60.097 -18.774,-57.263 8,2.834 12.166,3 20,12.167 7.834,9.167 7.472,24.267 12.694,23.946 5.223,-0.321 4.346,-5.163 3.08,-8.85 5.139,5.881 24.36,18.267 29,6 5.497,-14.522 -27.5,-35.5 -19.273,-34.43 8.227,1.07 21.71,9.703 26.999,17.334 C 1.678,13.516 0,0 0,0" id="path3052" style="fill:#ffffff;fill-opacity:1;fill-rule:evenodd;stroke:none"></path>
        </g>
      </g>
    </g>
  </g>
</svg>